<svg width="144" height="100" viewBox="0 0 144 100" fill="none" xmlns="http://www.w3.org/2000/svg">
<g clip-path="url(#clip0_72_57288)">
<path fill-rule="evenodd" clip-rule="evenodd" d="M143.894 0.0204724C140.163 -0.196585 133.739 1.27845 131.772 6.07149C131.61 6.44185 131.471 6.81391 131.354 7.18481C131.357 7.1798 131.361 7.17478 131.364 7.16977C131.357 7.18657 131.35 7.20344 131.343 7.22028C131.08 8.0615 130.932 8.89631 130.891 9.69145C130.964 11.4027 131.834 12.974 133.346 13.7857C135.485 14.9345 138.183 14.1706 139.733 12.1004C139.728 12.1102 139.724 12.1199 139.72 12.1297C140.17 11.5135 140.571 10.8189 140.903 10.0596C141.601 8.42814 141.964 7.04435 142.267 5.88859C142.7 4.23921 143.01 3.05423 143.999 2.27666C142.802 2.51544 141.412 3.03456 139.725 4.32548C138.378 4.32549 140.862 1.35805 143.894 0.0204724ZM135.902 16.1471C134.73 16.3027 133.5 16.134 132.604 15.653C131.513 15.0674 130.443 14.0247 129.883 12.7873C128.968 13.8657 128.346 14.8049 128.346 14.8049L124.301 21.3152L91.6258 81.2734L79.8977 59.8295L74.8568 69.1404L91.6397 99.8267L132.112 25.5608L132.114 25.5579L135.183 18.6972C135.183 18.6972 135.572 17.5893 135.902 16.1471ZM75.4046 51.6142L75.4052 51.6152L70.3522 60.9042L70.3518 60.9034L49.1691 99.8462L0.559734 10.6495L0 0.348675L8.3662 6.39526L49.1617 81.2539L65.2777 51.6258L59.468 41.0031L37.2333 0.348675H103.29L75.4046 51.6142ZM70.331 42.3357L88.3337 9.23911H52.2289L64.907 32.4201L65.806 34.0638L60.7809 43.402L65.2788 51.6259L70.3316 42.3367L70.331 42.3357Z" fill="white"/>
</g>
<defs>
<clipPath id="clip0_72_57288">
<rect width="144" height="100" fill="white"/>
</clipPath>
</defs>
</svg>
