<svg width="13" height="13" viewBox="0 0 13 13" fill="none" xmlns="http://www.w3.org/2000/svg">
<path fill-rule="evenodd" clip-rule="evenodd" d="M11 7V11.25C11 11.8023 11.4477 12.25 12 12.25C12.5523 12.25 13 11.8023 13 11.25V1C13 0.447715 12.5523 0 12 0C11.4477 0 11 0.447715 11 1V5H3.41421L6.70711 1.70711C7.09763 1.31658 7.09763 0.683418 6.70711 0.292893C6.31658 -0.097631 5.68342 -0.0976311 5.29289 0.292893L0.292893 5.29289C-0.0976309 5.68342 -0.0976313 6.31658 0.292893 6.70711L5.29289 11.7071C5.68342 12.0976 6.31658 12.0976 6.70711 11.7071C7.09763 11.3166 7.09763 10.6834 6.70711 10.2929L3.41421 7H11Z" fill="white"/>
</svg>
