<svg width="188" height="40" viewBox="0 0 188 40" fill="none" xmlns="http://www.w3.org/2000/svg">
<g clip-path="url(#clip0_81_57517)">
<g clip-path="url(#clip1_81_57517)">
<path d="M66.5456 22.9843L65.432 26.1397H65.3392C65.1536 25.4282 64.8133 24.3455 64.2565 23.0462L58.2861 8.04292H52.4395V31.9554H56.3063V17.1996C56.3063 16.2715 56.3063 15.2197 56.2753 13.9205C56.2444 13.2709 56.1825 12.7759 56.1516 12.4047H56.2444C56.43 13.3327 56.6466 14.0133 56.8012 14.4464L63.9781 31.8935H66.7003L73.8153 14.2917C73.9699 13.8896 74.1246 13.0853 74.2793 12.4047H74.3721C74.2793 14.168 74.2174 15.7456 74.1865 16.7046V31.8626H78.3008V7.98105H72.6707L66.5456 22.9843ZM82.1986 14.7248H86.2201V31.8626H82.1986V14.7248ZM84.2402 7.48609C83.5597 7.48609 83.0029 7.73357 82.5388 8.16665C82.0748 8.59974 81.8273 9.15656 81.8273 9.83712C81.8273 10.4868 82.0748 11.0436 82.5388 11.4767C83.0029 11.9097 83.5597 12.1263 84.2402 12.1263C84.9208 12.1263 85.5086 11.8788 85.9416 11.4767C86.4057 11.0436 86.6531 10.4868 86.6531 9.83712C86.6531 9.1875 86.4057 8.63067 85.9416 8.16665C85.5395 7.73357 84.9517 7.48609 84.2402 7.48609ZM100.481 14.5701C99.7385 14.4154 98.9651 14.3226 98.2227 14.3226C96.3975 14.3226 94.7271 14.7248 93.335 15.5291C91.943 16.3334 90.8293 17.447 90.1178 18.8391C89.3754 20.2621 89.0042 21.9016 89.0042 23.7886C89.0042 25.4282 89.3754 26.8821 90.0869 28.2123C90.7984 29.5115 91.7883 30.5633 93.1185 31.2748C94.3868 31.9863 95.8717 32.3575 97.5421 32.3575C99.4601 32.3575 101.1 31.9554 102.399 31.2129L102.43 31.182V27.4699L102.275 27.5936C101.687 28.0267 101.007 28.3979 100.326 28.6144C99.6147 28.8619 98.9651 28.9857 98.4083 28.9857C96.7997 28.9857 95.5314 28.5216 94.6343 27.5008C93.7062 26.5109 93.2422 25.1498 93.2422 23.4484C93.2422 21.6851 93.7062 20.293 94.6652 19.2722C95.6242 18.2513 96.8925 17.7255 98.4392 17.7255C99.7385 17.7255 101.069 18.1585 102.275 19.0247L102.43 19.1484V15.2197L102.399 15.1888C101.873 14.9723 101.285 14.7248 100.481 14.5701ZM113.752 14.4464C112.762 14.4464 111.834 14.7557 111.03 15.4054C110.349 15.9622 109.885 16.7665 109.483 17.7255H109.452V14.7248H105.43V31.8626H109.452V23.1081C109.452 21.6232 109.761 20.3858 110.442 19.4887C111.122 18.5607 111.989 18.0967 113.04 18.0967C113.412 18.0967 113.783 18.1895 114.247 18.2513C114.68 18.3751 114.989 18.4988 115.206 18.6535L115.36 18.7772V14.7557L115.268 14.7248C114.989 14.5392 114.432 14.4464 113.752 14.4464ZM124.703 14.3536C121.888 14.3536 119.629 15.1888 118.052 16.8284C116.443 18.4679 115.67 20.7261 115.67 23.5721C115.67 26.2325 116.474 28.3979 118.021 29.9756C119.568 31.5223 121.671 32.3266 124.301 32.3266C127.054 32.3266 129.25 31.4914 130.828 29.8209C132.436 28.1504 133.21 25.9231 133.21 23.1699C133.21 20.4477 132.467 18.2823 130.952 16.7046C129.498 15.1269 127.363 14.3536 124.703 14.3536ZM127.92 27.5317C127.177 28.4907 126.002 28.9547 124.548 28.9547C123.094 28.9547 121.919 28.4907 121.083 27.4699C120.248 26.5109 119.846 25.1188 119.846 23.3556C119.846 21.5304 120.279 20.1384 121.083 19.1484C121.919 18.1585 123.063 17.6636 124.517 17.6636C125.94 17.6636 127.054 18.1276 127.858 19.0866C128.662 20.0455 129.095 21.4376 129.095 23.2628C129.034 25.1188 128.693 26.5728 127.92 27.5317ZM142.181 21.8398C140.912 21.3139 140.108 20.9117 139.737 20.5714C139.428 20.2621 139.273 19.829 139.273 19.2722C139.273 18.8082 139.459 18.3441 139.923 18.0348C140.387 17.7255 140.912 17.5708 141.686 17.5708C142.366 17.5708 143.078 17.6945 143.758 17.8801C144.439 18.0657 145.058 18.3441 145.553 18.7154L145.707 18.8391V15.0651L145.615 15.0341C145.151 14.8485 144.532 14.6629 143.789 14.5083C143.047 14.3845 142.366 14.3226 141.81 14.3226C139.892 14.3226 138.314 14.7867 137.077 15.8075C135.839 16.7665 135.251 18.0657 135.251 19.5815C135.251 20.3858 135.375 21.0973 135.654 21.6851C135.932 22.2728 136.334 22.8297 136.891 23.2937C137.448 23.7268 138.252 24.2217 139.366 24.6857C140.294 25.0879 141.005 25.3972 141.438 25.6447C141.871 25.8922 142.15 26.1706 142.366 26.3871C142.521 26.6346 142.614 26.944 142.614 27.3461C142.614 28.4907 141.748 29.0475 139.984 29.0475C139.304 29.0475 138.592 28.9238 137.757 28.6454C136.922 28.367 136.149 27.9648 135.499 27.5008L135.344 27.3771V31.3058L135.437 31.3367C136.025 31.6151 136.736 31.8007 137.602 32.0172C138.469 32.1719 139.242 32.2957 139.923 32.2957C141.995 32.2957 143.697 31.8316 144.903 30.8108C146.14 29.8209 146.79 28.5526 146.79 26.913C146.79 25.7685 146.481 24.7476 145.8 23.9742C144.903 23.2318 143.789 22.4585 142.181 21.8398ZM157.401 14.3536C154.586 14.3536 152.327 15.1888 150.75 16.8284C149.172 18.4679 148.368 20.7261 148.368 23.5721C148.368 26.2325 149.172 28.3979 150.719 29.9756C152.265 31.5223 154.369 32.3266 156.998 32.3266C159.752 32.3266 161.948 31.4914 163.526 29.8209C165.134 28.1504 165.908 25.9231 165.908 23.1699C165.908 20.4477 165.165 18.2823 163.649 16.7046C162.195 15.1269 160.061 14.3536 157.401 14.3536ZM160.587 27.5317C159.844 28.4907 158.669 28.9547 157.215 28.9547C155.73 28.9547 154.586 28.4907 153.75 27.4699C152.915 26.5109 152.513 25.1188 152.513 23.3556C152.513 21.5304 152.946 20.1384 153.75 19.1484C154.586 18.1585 155.73 17.6636 157.184 17.6636C158.576 17.6636 159.721 18.1276 160.525 19.0866C161.329 20.0455 161.762 21.4376 161.762 23.2628C161.762 25.1188 161.36 26.5728 160.587 27.5317ZM187.407 18.0348V14.7248H183.355V9.65152L183.231 9.68245L179.395 10.827L179.302 10.858V14.7248H173.239V12.5594C173.239 11.5695 173.487 10.7961 173.92 10.3011C174.353 9.80619 175.002 9.55871 175.807 9.55871C176.364 9.55871 176.951 9.68245 177.601 9.96086L177.756 10.0537V6.55805L177.663 6.52712C177.106 6.34151 176.364 6.21777 175.405 6.21777C174.198 6.21777 173.146 6.49618 172.187 6.9602C171.228 7.48609 170.517 8.19759 169.991 9.15656C169.465 10.0846 169.187 11.1364 169.187 12.3428V14.7248H166.372V18.0039H169.187V31.8626H173.239V18.0348H179.302V26.8512C179.302 30.4705 181.004 32.2957 184.407 32.2957C184.963 32.2957 185.551 32.2029 186.108 32.1101C186.696 31.9863 187.129 31.8316 187.376 31.7079L187.407 31.677V28.367L187.253 28.4907C187.005 28.6454 186.789 28.7691 186.417 28.8619C186.108 28.9547 185.83 28.9857 185.613 28.9857C184.809 28.9857 184.252 28.8 183.85 28.336C183.479 27.9029 183.293 27.1914 183.293 26.1397V18.0348H187.407Z" fill="white"/>
<path d="M0.59375 0H19.5567V18.9629H0.59375V0Z" fill="white"/>
<path d="M21.5361 0H40.4991V18.9629H21.5361V0Z" fill="white"/>
<path d="M0.592773 20.9429H19.5557V39.9058H0.592773V20.9429Z" fill="white"/>
<path d="M21.5361 20.9429H40.4991V39.9058H21.5361V20.9429Z" fill="white"/>
</g>
</g>
<defs>
<clipPath id="clip0_81_57517">
<rect width="188" height="40" fill="white"/>
</clipPath>
<clipPath id="clip1_81_57517">
<rect width="186.824" height="39.9057" fill="white" transform="translate(0.587891)"/>
</clipPath>
</defs>
</svg>
