<svg width="291" height="40" viewBox="0 0 291 40" fill="none" xmlns="http://www.w3.org/2000/svg">
<g clip-path="url(#clip0_79_57501)">
<path d="M34.4857 10.1784L24.1652 39.4955H21.3963L10.4045 10.1784L7.63553 32.7753C7.55162 33.1953 7.55162 33.8673 7.55162 34.1193C7.55162 36.8074 8.72632 37.3955 12.7538 37.5635V39.4955H0V37.5635C3.10456 37.3955 4.11144 36.8074 4.53097 34.3713L7.97116 7.15432C8.39069 4.21421 6.88037 3.29017 3.35628 3.12216V1.27409H15.6067C15.6906 2.45014 16.0262 3.37417 16.3618 4.63422L25.256 28.3231L33.4789 4.46621C33.9823 3.29017 34.234 2.36614 34.3179 1.19009H46.4005V3.03816C42.8764 3.20617 41.5339 4.1302 41.8695 7.07031L45.2258 34.2873C45.4775 36.8914 46.6522 37.3955 49.7568 37.4795V39.4115H32.1363V37.4795C35.9122 37.3114 37.2547 36.7234 37.2547 34.0353C37.2547 33.7833 37.2547 33.1953 37.1708 32.6913L34.4857 10.1784ZM77.8656 35.7994C77.1944 36.0514 76.4392 36.3874 75.684 36.3874C74.3415 36.3874 73.8381 35.1274 73.8381 33.2793V18.8308C73.8381 12.3625 70.0623 9.92642 63.1819 9.92642C57.0567 9.92642 52.3579 12.1945 52.3579 16.8147C52.3579 19.2508 53.8682 20.7628 56.2176 20.7628C58.7348 20.7628 60.3291 19.2508 60.3291 16.8987C60.3291 15.1346 59.4061 13.7906 57.6441 13.4546C58.3992 12.2785 59.9095 11.6065 62.5106 11.6065C65.2796 11.6065 66.3704 13.7906 66.3704 16.9827V21.6029L58.1475 24.543C54.12 25.971 50.7637 27.9871 50.7637 32.6073C50.7637 36.8914 53.6165 39.5795 58.0636 39.5795C62.0072 39.5795 64.86 37.1434 66.6221 34.8754C67.2094 37.8155 69.1393 39.6635 72.076 39.6635C74.5932 39.6635 76.6909 38.5715 78.2012 36.8074L77.8656 35.7994ZM66.3704 33.7833C64.86 34.9594 63.7693 35.5474 62.175 35.5474C59.3222 35.5474 57.9797 33.6153 57.9797 30.7592C57.9797 27.6511 59.4061 26.559 61.7555 25.551L66.4543 23.7029V33.7833H66.3704ZM78.9564 37.2274L78.5369 29.7512H80.5506C81.8092 34.4553 84.4943 37.9835 88.6896 37.9835C91.6263 37.9835 93.8918 36.6394 93.8918 33.5313C93.8918 30.5912 91.8781 29.4152 87.6827 27.9031C81.8931 25.887 78.8725 23.6189 78.8725 18.5787C78.8725 13.1185 82.9839 9.92642 88.9413 9.92642C92.4654 9.92642 95.4861 10.7665 97.8355 12.1945V18.8308H95.9895C95.0665 14.9666 92.801 11.6905 89.0252 11.6905C86.2563 11.6905 84.5782 13.2865 84.5782 15.7226C84.5782 18.1587 86.3402 19.3348 90.5356 20.9308C96.409 22.9469 99.8492 25.131 99.8492 30.5072C99.8492 36.3034 95.57 39.7475 88.8574 39.7475C84.6621 39.9155 81.2219 38.9075 78.9564 37.2274ZM111.512 10.4304H118.644V12.9505H111.512V31.0952C111.512 34.3713 112.771 35.7994 115.372 35.7994C116.798 35.7994 118.057 35.2954 119.4 34.3713L120.155 35.2954C118.393 37.9835 115.624 39.9996 111.68 39.9996C107.233 39.9996 104.045 37.7315 104.045 31.5152V12.9505H100.688V11.9425C104.464 10.1784 107.569 7.23832 110.002 3.62618H111.764L111.512 10.4304ZM143.984 30.3392C141.97 33.1113 139.537 34.7914 135.845 34.7914C130.475 34.7914 126.616 30.1712 126.867 22.6109H144.656V21.3508C144.656 14.7986 140.796 10.0104 133.412 10.0104C126.028 10.0104 119.987 16.4787 119.987 25.803C119.987 34.1193 125.357 39.9996 133.244 39.9996C139.453 39.9996 143.481 36.2194 144.823 30.8432L143.984 30.3392ZM132.825 12.0265C136.349 12.0265 137.691 15.4706 137.691 20.6788H126.867C127.371 15.6386 129.133 12.0265 132.825 12.0265ZM199.363 3.87819L199.447 12.6145H197.349C196.09 6.39829 192.902 2.95416 187.532 2.95416C180.064 2.95416 176.624 10.4304 176.624 19.7548C176.624 29.9192 180.652 37.6475 188.035 37.6475C193.238 37.6475 196.678 34.3713 198.524 26.475H200.705L199.866 36.7234C196.678 38.7395 192.482 39.9996 187.28 39.9996C175.365 39.9996 168.066 32.6073 168.066 21.2668C168.066 8.58237 176.54 0.518066 187.28 0.518066C192.315 0.60207 196.342 1.69411 199.363 3.87819ZM213.207 35.2114C213.207 37.1434 213.963 37.3955 216.564 37.6475V39.4955H202.132V37.6475C204.649 37.4795 205.488 37.1434 205.488 35.2114V6.14628L202.3 4.38221V3.20617L211.949 0.60207H213.207V35.2114ZM244.673 35.7994C244.001 36.0514 243.246 36.3874 242.491 36.3874C241.065 36.3874 240.645 35.1274 240.645 33.2793L240.729 18.8308C240.729 12.3625 236.869 9.92642 229.989 9.92642C223.864 9.92642 219.165 12.1945 219.165 16.8147C219.165 19.2508 220.675 20.7628 223.025 20.7628C225.542 20.7628 227.136 19.2508 227.136 16.8987C227.136 15.1346 226.213 13.7906 224.451 13.4546C225.206 12.2785 226.716 11.6065 229.318 11.6065C232.087 11.6065 233.177 13.7906 233.177 16.9827V21.6029L224.954 24.543C220.927 25.971 217.571 27.9871 217.571 32.6073C217.571 36.8914 220.423 39.5795 224.871 39.5795C228.814 39.5795 231.667 37.1434 233.429 34.8754C234.016 37.8155 235.946 39.6635 238.883 39.6635C241.4 39.6635 243.498 38.5715 245.008 36.8074L244.673 35.7994ZM233.177 33.7833C231.667 34.9594 230.576 35.5474 228.982 35.5474C226.129 35.5474 224.787 33.6153 224.787 30.7592C224.787 27.6511 226.297 26.475 228.562 25.551L233.261 23.7029V33.7833H233.177ZM245.931 37.2274L245.679 29.7512H247.693C248.868 34.4553 251.637 37.9835 255.832 37.9835C258.769 37.9835 261.034 36.6394 261.034 33.5313C261.034 30.5912 259.021 29.4152 254.741 27.9031C248.952 25.887 245.931 23.6189 245.931 18.5787C245.931 13.1185 250.043 9.92642 256.084 9.92642C259.524 9.92642 262.629 10.7665 264.894 12.1945V18.8308H263.048C262.209 14.9666 259.86 11.6905 256.084 11.6905C253.231 11.6905 251.553 13.2865 251.553 15.7226C251.553 18.1587 253.315 19.3348 257.51 20.9308C263.468 22.9469 266.908 25.131 266.908 30.5072C266.908 36.3034 262.461 39.7475 255.748 39.7475C251.469 39.9155 248.113 38.9075 245.931 37.2274ZM269.509 37.2274L269.257 29.7512H271.271C272.446 34.4553 275.215 37.9835 279.41 37.9835C282.347 37.9835 284.612 36.6394 284.612 33.5313C284.612 30.5912 282.515 29.4152 278.403 27.9031C272.53 25.887 269.593 23.6189 269.593 18.5787C269.593 13.1185 273.704 9.92642 279.746 9.92642C283.186 9.92642 286.29 10.7665 288.556 12.1945V18.8308H286.71C285.871 14.9666 283.521 11.6905 279.746 11.6905C276.893 11.6905 275.299 13.2865 275.299 15.7226C275.299 18.1587 276.893 19.3348 281.172 20.9308C287.129 22.9469 290.486 25.131 290.486 30.5072C290.486 36.3034 286.206 39.7475 279.494 39.7475C275.215 39.9155 271.858 38.9075 269.509 37.2274ZM163.535 10.0944C160.598 10.0944 158.668 12.1945 156.57 18.1587L156.738 10.0944H155.48L145.662 13.0345V14.1266L148.935 16.1427V35.3794C148.935 37.3114 148.096 37.5635 145.578 37.8155V39.6635H161.101V37.8155C157.745 37.5635 156.486 37.2274 156.486 35.0434V21.0148C157.242 19.0828 158.165 17.4867 159.423 16.0587C160.094 17.3187 161.269 18.1587 162.863 18.1587C165.464 18.1587 167.143 16.3947 167.143 14.0426C167.143 11.4385 165.716 10.0944 163.535 10.0944Z" fill="white"/>
</g>
<defs>
<clipPath id="clip0_79_57501">
<rect width="290.665" height="40" fill="white"/>
</clipPath>
</defs>
</svg>
