<svg width="129" height="40" viewBox="0 0 129 40" fill="none" xmlns="http://www.w3.org/2000/svg">
<path d="M93.1169 1.7718C90.1495 0.690516 87.0128 0.147922 83.8546 0.169568C73.6412 0.169568 66.4279 5.31459 66.3769 12.7002C66.313 18.1261 71.5027 21.1837 75.4285 22.9966C79.4565 24.8606 80.8034 26.0351 80.7906 27.7012C80.7651 30.2354 77.5733 31.3844 74.6051 31.3844C70.5261 31.3844 68.2983 30.8163 64.8704 29.3928L63.6001 28.7991L62.1511 37.3018C64.6342 38.3359 69.109 39.2232 73.7305 39.2998C84.5887 39.2998 91.687 34.1867 91.77 26.3287C91.8594 21.9944 89.0507 18.7197 83.1397 16.0132C79.5458 14.2577 77.318 13.0832 77.318 11.3022C77.318 9.72552 79.2267 8.0403 83.2163 8.0403C85.8715 7.97606 88.5103 8.47423 90.9593 9.5021L91.9169 9.92978L93.3659 1.71435L93.1169 1.7718ZM119.621 0.858974H111.642C109.158 0.858974 107.288 1.542 106.203 4.00599L90.8572 38.77H101.715L103.886 33.0696L117.138 33.0824C117.45 34.4165 118.408 38.77 118.408 38.77H127.983L119.621 0.858974ZM51.6887 0.539803H62.0362L55.5634 38.47H45.2287L51.6887 0.527037V0.539803ZM25.421 21.4454L26.4934 26.7117L36.6047 0.858974H47.565L31.2809 38.7189H20.3462L11.4094 6.66148C11.2647 6.13288 10.9247 5.6789 10.4583 5.39119C7.23721 3.72728 3.82429 2.46458 0.295898 1.63136L0.436333 0.833436H17.0906C19.3504 0.922804 21.1696 1.63136 21.776 4.04429L25.4146 21.4646L25.421 21.4454ZM106.854 25.3138L110.978 14.7046C110.927 14.8195 111.827 12.5151 112.35 11.0916L113.059 14.3663L115.452 25.3074H106.848L106.854 25.3138Z" fill="white"/>
</svg>
