<svg width="40" height="34" viewBox="0 0 40 34" fill="none" xmlns="http://www.w3.org/2000/svg">
<path fill-rule="evenodd" clip-rule="evenodd" d="M1.75137 33.9997C0.78659 33.9997 0.00436762 33.2175 0.00436762 32.2527L0 16.9581H0.00436762C0.0786154 8.71133 5.95161 1.82856 13.7354 0.192925C13.8262 0.174001 13.9049 0.155338 13.9811 0.137274C14.2003 0.0852992 14.3986 0.0382802 14.8037 0.00424886C14.9256 -0.00579643 15.295 0.0051223 15.295 0.0051223C16.2598 0.0051223 17.042 0.787345 17.042 1.75213V4.41457C17.042 5.32083 16.3507 6.06287 15.468 6.14978C15.4689 6.15109 15.4724 6.15983 15.4724 6.15983C15.4724 6.15983 14.8199 6.28386 14.5015 6.36641C9.77494 7.59456 6.26564 11.8664 6.19401 16.9576H15.295C16.2598 16.9576 17.042 17.7399 17.042 18.7046V32.2527C17.042 33.2175 16.2598 33.9997 15.295 33.9997H1.75137ZM37.5604 34H24.0163C23.0515 34 22.2693 33.2178 22.2693 32.253L22.2649 16.958H22.2693C22.344 8.71208 28.2166 1.82931 36.0004 0.194115C36.0904 0.175235 36.1686 0.15664 36.2442 0.138653C36.4643 0.0863208 36.6627 0.0391301 37.0686 0.00500171C37.1909 -0.00504358 37.5604 0.00631208 37.5604 0.00631208C38.5252 0.00631208 39.3074 0.788534 39.3074 1.75332V4.41576C39.3074 5.32158 38.6165 6.06362 37.7329 6.15053C37.7338 6.15184 37.7373 6.16014 37.7373 6.16014C37.7373 6.16014 37.0852 6.28418 36.7668 6.36673C32.0399 7.59531 28.5306 11.8672 28.459 16.958H37.5604C38.5252 16.958 39.3074 17.7402 39.3074 18.705V32.253C39.3074 33.2178 38.5252 34 37.5604 34Z" fill="white"/>
</svg>
