<svg width="254" height="40" viewBox="0 0 254 40" fill="none" xmlns="http://www.w3.org/2000/svg">
<path d="M209.005 2.62885L209.488 30.9155H209.246L201.062 2.62885H187.58V38.2575H196.487L196.006 9.00893H196.247L205.034 38.2575H217.913V2.62885H209.005ZM39.4055 2.62885L32.6652 38.6199H42.4155L47.3505 5.87927H47.591L52.4062 38.6188H62.0357L55.4151 2.62885H39.4055ZM93.8122 2.62885L89.3592 30.0732H89.1177L84.6648 2.62885H69.9795L69.257 38.6199H78.2847L78.5262 6.23951H78.6459L84.6637 38.6188H93.8122L99.831 6.24055H100.073L100.312 38.6188H109.34L108.497 2.62885H93.8122ZM17.499 28.3876C17.8592 29.2299 17.7395 30.4345 17.6187 31.0362C17.3782 32.2398 16.536 33.4433 14.1278 33.4433C11.8415 33.4433 10.5172 32.1201 10.5172 30.1929V26.703H0.887695V29.4714C0.887695 37.5361 7.26673 39.9432 14.0081 39.9432C20.5079 39.9432 25.9239 37.6558 26.7672 31.7577C27.2482 28.6281 26.8869 26.5823 26.7672 25.8597C25.0816 18.2771 11.3605 16.1105 10.3964 11.897C10.2767 11.1745 10.2767 10.453 10.3964 9.97094C10.6379 8.76739 11.4802 7.56383 13.6468 7.56383C15.8134 7.56383 17.018 8.8871 17.018 10.8143V12.9809H26.0447V10.453C26.0447 2.62885 18.9431 1.42529 13.8873 1.42529C7.50828 1.42529 2.21202 3.5919 1.24897 9.36916C1.00742 10.934 0.887695 12.3791 1.3687 14.1844C2.8138 21.6473 15.6947 23.8139 17.499 28.3876ZM134.618 28.3876C134.979 29.2309 134.858 30.3137 134.738 31.0362C134.497 32.2398 133.654 33.4433 131.247 33.4433C128.96 33.4433 127.637 32.1201 127.637 30.1929V26.703H118.006V29.4714C118.006 37.4153 124.265 39.8234 131.007 39.8234C137.507 39.8234 142.803 37.6568 143.645 31.638C144.127 28.5084 143.766 26.5823 143.645 25.74C142.201 18.2771 128.599 15.9897 127.637 11.8981C127.516 11.1755 127.516 10.453 127.637 9.97094C127.877 8.76739 128.719 7.56383 130.886 7.56383C132.932 7.56383 134.257 8.8871 134.257 10.8143V12.9809H143.163V10.453C143.163 2.62885 136.182 1.42529 131.128 1.42529C124.747 1.42529 119.571 3.47112 118.609 9.36916C118.367 10.934 118.367 12.3791 118.729 14.1844C120.174 21.6473 132.812 23.6931 134.618 28.3876ZM164.951 33.2028C167.479 33.2028 168.2 31.5172 168.441 30.5542C168.562 30.194 168.562 29.5911 168.562 29.2309V2.62885H177.709V28.5084C177.709 29.2309 177.709 30.5542 177.589 30.9155C176.987 37.6568 171.691 39.8234 165.071 39.8234C158.451 39.8234 153.155 37.6568 152.552 30.9155C152.552 30.5542 152.432 29.2309 152.432 28.5084V2.62885H161.58V29.2309C161.58 29.7119 161.58 30.1929 161.7 30.5542C161.7 31.5172 162.423 33.2028 164.951 33.2028ZM240.06 32.8416C242.709 32.8416 243.551 31.156 243.792 30.1929C243.913 29.8327 243.913 29.2299 243.913 28.8696V23.6931H240.181V18.3968H252.94V28.0274C252.94 28.7489 252.94 29.2299 252.82 30.4345C252.218 37.054 246.56 39.3414 240.181 39.3414C233.801 39.3414 228.145 37.054 227.543 30.4345C227.422 29.2299 227.422 28.7489 227.422 28.0263V12.8611C227.422 12.2583 227.543 11.0548 227.543 10.453C228.385 3.71162 233.802 1.54502 240.181 1.54502C246.56 1.54502 252.098 3.71162 252.82 10.453C252.94 11.5358 252.94 12.8601 252.94 12.8601V14.0636H243.913V12.0178C243.913 12.0178 243.913 11.1745 243.792 10.6935C243.672 9.85121 242.95 8.04588 240.181 8.04588C237.534 8.04588 236.81 9.73044 236.571 10.6935C236.45 11.1745 236.45 11.7773 236.45 12.3791V28.8696C236.45 29.3506 236.45 29.8316 236.571 30.1929C236.571 31.156 237.534 32.8416 240.06 32.8416Z" fill="white"/>
</svg>
