<svg width="129" height="40" viewBox="0 0 129 40" fill="none" xmlns="http://www.w3.org/2000/svg">
<g clip-path="url(#clip0_470_25179)">
<path d="M2.92104 36.3903C2.55788 36.2693 2.33999 36.1079 1.77508 35.5349C1.42806 35.1879 1.1214 34.9054 1.08912 34.9054C1.05684 34.9054 0.911577 34.7521 0.766314 34.5746C0.51614 34.2679 0.5 34.2114 0.5 33.6223V32.9928L1.18596 32.3149C1.56526 31.9437 2.15438 31.3546 2.49332 31.0076C2.83227 30.6606 3.42139 30.0795 3.79261 29.7164C4.16384 29.3532 5.54383 27.9813 6.85926 26.6739C8.17469 25.3666 9.42556 24.1641 9.63539 24.0108C9.84521 23.8574 10.0147 23.696 10.0228 23.6476C10.0228 23.6073 10.1922 23.4216 10.402 23.2441C10.6119 23.0666 10.8136 22.8729 10.862 22.8164C11.2252 22.3967 15.0666 18.6038 15.1231 18.6038C15.1634 18.6038 15.1957 18.5715 15.1957 18.5312C15.1957 18.4343 19.3115 14.3266 19.4002 14.3266C19.4406 14.3266 19.4729 14.2943 19.4729 14.254C19.4729 14.1571 21.8939 11.7442 21.9827 11.7442C22.023 11.7442 22.0553 11.7119 22.0553 11.6715C22.0553 11.6312 22.2732 11.3891 22.5395 11.1228C22.8058 10.8645 23.2739 10.4045 23.5725 10.0979C23.8711 9.7912 24.2585 9.4119 24.436 9.2505C24.8234 8.88734 24.9283 8.78243 25.3076 8.387C25.469 8.20945 25.6546 8.02384 25.7111 7.97542C25.7676 7.927 26.0178 7.67682 26.2599 7.43472C26.502 7.19262 26.736 6.99086 26.7763 6.99086C26.8167 6.99086 27.1879 6.64385 27.6076 6.2242L28.3662 5.45754H31.3198L31.7637 5.92561C32.1188 6.3049 32.2237 6.47438 32.3044 6.82946C32.3851 7.17648 32.4012 10.2593 32.377 21.0894L32.3367 34.9135L31.9089 35.3412L31.4812 35.7689H30.2142C28.7132 35.7689 28.6486 35.7447 27.8335 34.7683C27.7044 34.6069 27.6883 33.929 27.6721 23.4862L27.6479 12.3736L15.6638 24.3336C9.06241 30.9269 3.59893 36.3419 3.51823 36.3742C3.34069 36.4468 3.09858 36.4549 2.92104 36.3903ZM37.2352 35.4381C37.09 35.3735 36.751 35.1072 36.4928 34.857L36.0166 34.397V6.05473L36.1942 5.88526C36.291 5.79648 36.5008 5.58666 36.6461 5.42526L36.9205 5.13473H38.244C39.0672 5.13473 39.5594 5.16701 39.5594 5.21543C39.5594 5.26386 39.6159 5.29614 39.6886 5.29614C39.9064 5.29614 40.3987 5.87719 40.5036 6.26455C40.5843 6.54701 40.6085 9.10524 40.6085 17.6757V28.7237L41.3752 27.9651C41.7949 27.5455 42.1822 27.1743 42.2226 27.1258C42.2952 27.0532 44.5952 24.7532 44.8212 24.5192C45.3457 23.9946 46.4352 22.9052 46.5159 22.8325C46.6047 22.7518 46.9436 22.4129 47.4036 21.9367C47.4601 21.8803 47.8394 21.501 48.259 21.0894C48.6706 20.6778 49.058 20.2985 49.1064 20.242C49.2113 20.129 50.6316 18.7087 50.7931 18.5554C50.8818 18.4747 51.0513 18.2971 51.6727 17.6757L52.5281 16.8203L53.3836 15.9648L54.6829 14.6656L55.966 13.3824C56.1193 13.221 57.572 11.7765 57.6446 11.7038L58.9277 10.4207L60.227 9.12138L61.0744 8.27401L61.9298 7.41858C61.9863 7.36209 62.1881 7.16841 62.3737 6.97472C62.5593 6.78104 62.7611 6.57929 62.8175 6.5228C62.874 6.4663 63.326 6.00631 63.8344 5.48982L64.7544 4.56982H65.8035L66.7558 5.5221C67.6435 6.40981 67.708 6.49859 67.813 6.9263C68.0308 7.8463 68.2165 7.59612 64.2863 11.5343C62.3414 13.4792 59.3716 16.441 57.6849 18.1115C55.9983 19.782 51.4709 24.2771 47.6296 28.1023C43.7882 31.9276 40.5036 35.1637 40.3342 35.2928C40.0275 35.5268 40.0194 35.5268 38.7686 35.5511C37.784 35.5591 37.4451 35.5349 37.2352 35.4381ZM71.5978 35.4219C71.4445 35.3493 71.1056 35.083 70.8554 34.8328L70.3954 34.3809V6.10315L70.7908 5.69157L71.1863 5.28H74.2368L74.5999 5.61894L74.9631 5.95789L74.9873 20.3631L75.0115 34.7683L74.6403 35.1314L74.2691 35.4946L73.0828 35.5188C72.0821 35.5591 71.8319 35.5349 71.5978 35.4219ZM115.257 35.4219C115.104 35.3493 114.781 35.0911 114.547 34.849L114.127 34.4132V6.05473L114.483 5.67543L114.838 5.29614H117.92L118.235 5.61087C118.461 5.83683 118.574 6.03859 118.647 6.35332C118.727 6.69227 118.744 9.86383 118.719 20.7666L118.695 34.744L118.308 35.1314L117.92 35.5188L116.734 35.543C115.741 35.5591 115.491 35.5349 115.257 35.4219ZM124.538 35.4219C124.385 35.3493 124.062 35.0911 123.828 34.849L123.408 34.4132V6.05473L123.763 5.67543L124.118 5.29614H127.201L127.516 5.61087C127.742 5.83683 127.855 6.03859 127.927 6.35332C128.008 6.69227 128.024 9.86383 128 20.7666L127.976 34.744L127.588 35.1314L127.201 35.5188L126.015 35.543C125.022 35.5591 124.772 35.5349 124.538 35.4219ZM93.0563 35.3574C93.0321 35.3332 92.6367 35.2686 92.1767 35.204C90.4981 34.97 88.2304 34.0742 86.6648 33.0251C86.229 32.7346 85.8336 32.4925 85.7932 32.4925C85.7529 32.4925 85.7206 32.4683 85.7206 32.4279C85.7206 32.3956 85.5834 32.2746 85.4139 32.1697C85.0669 31.9356 82.8153 29.7244 82.8153 29.6195C82.8153 29.5792 82.7266 29.45 82.6136 29.329C82.5006 29.2079 82.4118 29.0869 82.4118 29.0627C82.4118 29.0385 82.2827 28.8448 82.1294 28.643C81.976 28.4413 81.8469 28.2234 81.8469 28.1669C81.8469 28.1104 81.8146 28.0539 81.7662 28.0539C81.7178 28.0539 81.6855 27.9813 81.6855 27.8925C81.6855 27.8037 81.6532 27.7311 81.6129 27.7311C81.5725 27.7311 81.4031 27.4486 81.2336 27.1016C81.0641 26.7546 80.8946 26.4641 80.8624 26.4479C80.8301 26.4318 80.7978 26.335 80.7978 26.222C80.7978 26.109 80.7655 26.0283 80.7332 26.0283C80.701 26.0283 80.596 25.7781 80.5153 25.4634C80.4346 25.1487 80.3297 24.8985 80.2974 24.8985C80.2652 24.8985 80.2329 24.7855 80.2329 24.6564C80.2329 24.5273 80.1925 24.4143 80.1441 24.4143C80.0876 24.4143 80.0715 24.3255 80.1038 24.1722C80.128 24.043 80.1199 23.9139 80.0715 23.8816C80.0311 23.8574 79.9908 23.696 79.9908 23.5185C79.9908 23.349 79.9504 23.1795 79.9101 23.1553C79.8697 23.1311 79.8294 22.9294 79.8294 22.7195C79.8294 22.5097 79.789 22.2999 79.7406 22.2515C79.6841 22.195 79.6518 21.4848 79.6518 20.2097C79.6518 18.9347 79.6841 18.2245 79.7406 18.168C79.789 18.1196 79.8294 17.9097 79.8294 17.6999C79.8294 17.4901 79.8617 17.2964 79.902 17.2722C79.9424 17.248 79.9988 16.9575 80.0311 16.6185C80.0634 16.2796 80.1199 16.0133 80.1603 16.0133C80.2006 16.0133 80.2329 15.9003 80.2329 15.7712C80.2329 15.642 80.2652 15.5291 80.2974 15.5291C80.3297 15.5291 80.4024 15.3677 80.4588 15.1659C80.5153 14.9642 80.6445 14.6171 80.7574 14.3831C80.8704 14.1491 80.9592 13.8989 80.9592 13.8182C80.9592 13.7375 80.9995 13.6729 81.0399 13.6729C81.0883 13.6729 81.1206 13.6164 81.1206 13.5519C81.1206 13.4873 81.1529 13.4308 81.2013 13.4308C81.2497 13.4308 81.282 13.3824 81.282 13.3259C81.282 13.1645 81.5241 12.7045 81.6129 12.7045C81.6532 12.7045 81.6855 12.6319 81.6855 12.5431C81.6855 12.4543 81.7178 12.3817 81.7662 12.3817C81.8146 12.3817 81.8469 12.3494 81.8469 12.301C81.8469 12.2122 82.428 11.3487 82.6539 11.1066C82.7427 11.0098 82.8153 10.9049 82.8153 10.8565C82.8153 10.7273 85.1557 8.42735 85.2848 8.42735C85.3493 8.42735 85.422 8.37086 85.4462 8.30629C85.4704 8.24173 85.6237 8.10454 85.7851 7.99963C85.9465 7.89472 86.1725 7.74946 86.2855 7.67682C86.3985 7.59612 86.576 7.49928 86.6729 7.45893C86.7697 7.41858 86.8504 7.33788 86.8504 7.29753C86.8504 7.25718 86.8988 7.21683 86.9634 7.21683C87.0199 7.21683 87.2135 7.12806 87.3749 7.01507C87.5444 6.90209 87.7865 6.78911 87.9076 6.7649C88.0367 6.74069 88.1416 6.6842 88.1416 6.64385C88.1416 6.6035 88.1981 6.57122 88.2627 6.57122C88.3272 6.57122 88.3837 6.53894 88.3837 6.49052C88.3837 6.44209 88.4483 6.40981 88.529 6.40981C88.6097 6.40981 88.8356 6.33718 89.0213 6.24034C89.2149 6.15157 89.4893 6.05473 89.6427 6.03052C89.796 6.00631 89.917 5.95789 89.917 5.91754C89.917 5.87719 90.022 5.8449 90.1591 5.8449C90.2963 5.8449 90.4012 5.81262 90.4012 5.7642C90.4012 5.71578 90.5223 5.6835 90.6756 5.6835C90.829 5.6835 90.9742 5.65122 90.9984 5.61087C91.0469 5.53824 91.8297 5.42526 92.2332 5.43333C92.3704 5.4414 92.5156 5.40105 92.5398 5.3607C92.6125 5.24772 96.6959 5.24772 96.6959 5.3607C96.6959 5.40912 96.8331 5.4414 97.0026 5.43333C97.1721 5.42526 97.4868 5.46561 97.7128 5.5221C97.9387 5.57859 98.2535 5.64315 98.423 5.65929C98.5924 5.6835 98.7296 5.73192 98.7296 5.77227C98.7296 5.81262 98.8184 5.8449 98.9314 5.8449C99.0444 5.8449 99.1331 5.87719 99.1331 5.91754C99.1331 5.95789 99.2542 6.00631 99.3914 6.03052C99.7545 6.08701 100.263 6.27262 100.263 6.34525C100.263 6.37753 100.328 6.40981 100.408 6.40981C100.489 6.40981 100.731 6.49859 100.957 6.61157C101.175 6.72455 101.401 6.81332 101.457 6.81332C101.514 6.81332 101.554 6.8456 101.554 6.88595C101.554 6.9263 101.716 7.02314 101.917 7.11192C102.119 7.19262 102.28 7.29753 102.28 7.33788C102.28 7.3863 102.434 7.49121 102.627 7.57191C102.813 7.66068 103.031 7.78981 103.096 7.87858C103.16 7.96735 103.265 8.02384 103.322 8.02384C103.378 8.02384 103.491 8.11261 103.588 8.22559C103.685 8.33858 103.806 8.42735 103.862 8.42735C103.911 8.42735 104.209 8.68559 104.516 9.00033C104.823 9.31506 105.129 9.6298 105.194 9.68629C105.904 10.3642 106.194 10.6789 106.291 10.8645C106.356 10.9856 106.437 11.0905 106.469 11.0905C106.501 11.0905 106.614 11.2358 106.711 11.4133C106.808 11.5908 106.921 11.7361 106.961 11.7361C107.002 11.7361 107.05 11.8007 107.082 11.8814C107.155 12.075 107.324 12.3575 107.47 12.527C107.534 12.6077 107.623 12.761 107.655 12.874C107.687 12.987 107.76 13.108 107.817 13.1564C107.962 13.2694 108.422 14.1813 108.422 14.3428C108.422 14.4154 108.462 14.5042 108.503 14.5284C108.551 14.5526 108.583 14.6494 108.583 14.7301C108.583 14.8108 108.607 14.8915 108.648 14.9077C108.704 14.9319 109.237 16.5055 109.374 17.0705C109.471 17.4498 109.406 17.6192 109.043 18.0469L108.737 18.402L107.244 18.4262C105.993 18.4504 105.718 18.4343 105.557 18.3294C105.452 18.2568 105.307 18.2003 105.242 18.2003C105.17 18.2003 105.121 18.1276 105.121 18.0389C105.121 17.9501 105.089 17.8775 105.04 17.8775C104.992 17.8775 104.96 17.7887 104.96 17.6838C104.96 17.5789 104.927 17.4659 104.887 17.4417C104.847 17.4175 104.79 17.2722 104.766 17.1189C104.718 16.8606 104.58 16.5136 104.266 15.8115C104.201 15.6743 104.153 15.521 104.153 15.4806C104.153 15.4403 104.08 15.3354 103.991 15.2547C103.903 15.174 103.83 15.061 103.83 14.9964C103.83 14.9319 103.798 14.8915 103.757 14.8915C103.717 14.8915 103.66 14.8027 103.636 14.6898C103.612 14.5768 103.547 14.488 103.507 14.488C103.467 14.488 103.426 14.4557 103.426 14.4073C103.426 14.1813 101.49 12.067 101.272 12.067C101.223 12.067 101.167 12.0347 101.151 12.0024C101.118 11.9136 100.295 11.3407 100.206 11.3407C100.166 11.3407 100.118 11.3165 100.102 11.2761C100.045 11.1389 98.5521 10.5094 97.7693 10.2835C96.7121 9.97681 95.2917 9.86383 93.936 9.96874C92.8384 10.0575 92.7254 10.0737 91.8458 10.3319C89.7476 10.9372 87.6009 12.4705 86.3016 14.2863C85.5672 15.3192 84.9136 16.6347 84.5908 17.7564C84.4051 18.3859 84.2276 19.7497 84.2276 20.5003C84.2276 21.5252 84.502 23.3248 84.7118 23.6476C84.7441 23.688 84.8329 23.9381 84.9136 24.1964C84.9943 24.4546 85.0911 24.6644 85.1314 24.6644C85.1637 24.6644 85.196 24.7371 85.196 24.8259C85.196 24.9146 85.2283 24.9873 85.2767 24.9873C85.3251 24.9873 85.3574 25.0357 85.3574 25.1002C85.3574 25.1648 85.4058 25.2616 85.4623 25.3262C85.5188 25.3827 85.6318 25.5602 85.7044 25.7216C85.7771 25.883 85.8981 26.0606 85.9627 26.1171C86.0272 26.1736 86.0837 26.2704 86.0837 26.335C86.0837 26.3995 86.1402 26.4722 86.2048 26.4964C86.2693 26.5206 86.3258 26.5771 86.3258 26.6174C86.3258 26.7546 87.7946 28.3041 87.9156 28.3041C87.9479 28.3041 88.1013 28.4251 88.2546 28.5623C88.5532 28.8448 88.6097 28.8771 89.1827 29.1837C89.3844 29.2886 89.5539 29.4097 89.5539 29.442C89.5539 29.4742 89.6265 29.5065 89.7153 29.5065C89.8041 29.5065 89.8767 29.5307 89.8767 29.5711C89.8767 29.6518 90.2802 29.8293 90.4577 29.8293C90.5384 29.8293 90.603 29.8535 90.603 29.8939C90.603 29.9746 91.2083 30.2328 91.4019 30.2328C91.4907 30.2328 91.5795 30.2732 91.6118 30.3135C91.636 30.3539 91.7651 30.3942 91.8942 30.3942C92.0233 30.3942 92.1525 30.4346 92.1767 30.4749C92.2009 30.5153 92.3704 30.5556 92.5479 30.5556C92.7254 30.5556 92.8626 30.596 92.8626 30.6363C92.8626 30.6848 93.5082 30.717 94.6381 30.717C95.7679 30.717 96.4135 30.6848 96.4135 30.6363C96.4135 30.596 96.5749 30.5556 96.7766 30.5556C96.9784 30.5556 97.1398 30.5153 97.1398 30.4749C97.1398 30.4346 97.2205 30.3942 97.3173 30.3942C97.5837 30.3942 98.431 30.1441 98.431 30.0634C98.431 30.023 98.5198 29.9907 98.6328 29.9907C98.7458 29.9907 98.8345 29.9504 98.8345 29.91C98.8345 29.8697 98.8991 29.8293 98.9879 29.8293C99.0686 29.8293 99.2219 29.7648 99.3268 29.676C99.4317 29.5953 99.6093 29.4985 99.7222 29.4662C99.8352 29.4339 99.9966 29.3451 100.085 29.2644C100.174 29.1837 100.368 29.0546 100.521 28.9739C100.941 28.7399 101.223 28.4897 102.143 27.5536C103.217 26.4641 103.435 26.2139 103.435 26.0767C103.435 26.0202 103.491 25.9234 103.556 25.8669C103.62 25.8104 103.677 25.7136 103.677 25.6571C103.677 25.6006 103.709 25.5441 103.757 25.5441C103.806 25.5441 103.838 25.5037 103.838 25.4634C103.838 25.423 103.911 25.302 103.999 25.2132C104.088 25.1164 104.177 24.9388 104.209 24.8097C104.242 24.6806 104.29 24.5757 104.33 24.5757C104.371 24.5757 104.403 24.4869 104.403 24.3739C104.403 24.2609 104.435 24.1722 104.467 24.1722C104.5 24.1722 104.572 24.0108 104.629 23.809C104.685 23.6073 104.758 23.4459 104.798 23.4459C104.839 23.4459 104.895 23.2441 104.927 23.002C104.96 22.7599 105.016 22.5581 105.057 22.5581C105.097 22.5581 105.129 22.4855 105.129 22.3967C105.129 22.2434 105.186 22.2353 106.905 22.2353C108.527 22.2353 108.688 22.2515 108.737 22.3806C108.761 22.4613 108.898 22.6308 109.035 22.768C109.172 22.9052 109.326 23.1715 109.374 23.3571C109.455 23.6638 109.439 23.7929 109.189 24.6402C108.591 26.6416 107.986 27.8037 106.533 29.7486C106.065 30.3781 104.145 32.2262 103.507 32.67C101.401 34.1307 99.6335 34.8409 96.9381 35.309C96.4135 35.3977 93.129 35.4381 93.0563 35.3574Z" fill="white"/>
</g>
<defs>
<clipPath id="clip0_470_25179">
<rect width="127.5" height="31.875" fill="white" transform="translate(0.5 4.5625)"/>
</clipPath>
</defs>
</svg>
