<svg width="20" height="20" viewBox="0 0 20 20" fill="none" xmlns="http://www.w3.org/2000/svg">
<path fill-rule="evenodd" clip-rule="evenodd" d="M12 0.75C12 1.16421 12.3358 1.5 12.75 1.5H16.9393L9.21967 9.21967C8.92678 9.51256 8.92678 9.98744 9.21967 10.2803C9.51256 10.5732 9.98744 10.5732 10.2803 10.2803L18 2.56066V6.75C18 7.16421 18.3358 7.5 18.75 7.5C19.1642 7.5 19.5 7.16421 19.5 6.75V0.75C19.5 0.335786 19.1642 0 18.75 0H12.75C12.3358 0 12 0.335786 12 0.75ZM6.75 3L6.69513 3C5.32754 2.99998 4.22522 2.99996 3.35825 3.11652C2.45814 3.23754 1.70027 3.49643 1.09835 4.09835C0.496434 4.70027 0.23754 5.45814 0.116523 6.35825C-3.72789e-05 7.22522 -2.06492e-05 8.32754 5.70068e-07 9.69513V9.75V12.75V12.8049C-2.06492e-05 14.1725 -3.72789e-05 15.2748 0.116523 16.1418C0.23754 17.0419 0.496434 17.7997 1.09835 18.4016L1.61635 17.8837L1.09835 18.4017C1.70027 19.0036 2.45814 19.2625 3.35825 19.3835C4.22522 19.5 5.32754 19.5 6.69513 19.5H6.75H9.75H9.80487C11.1725 19.5 12.2748 19.5 13.1418 19.3835C14.0419 19.2625 14.7997 19.0036 15.4017 18.4016C16.0036 17.7997 16.2625 17.0419 16.3835 16.1418C16.5 15.2748 16.5 14.1725 16.5 12.8049V12.75V11.75C16.5 11.3358 16.1642 11 15.75 11C15.3358 11 15 11.3358 15 11.75V12.75C15 14.1854 14.9984 15.1865 14.8969 15.9419C14.7982 16.6757 14.6178 17.0642 14.341 17.341C14.0642 17.6178 13.6757 17.7982 12.9419 17.8969C12.1865 17.9984 11.1854 18 9.75 18H6.75C5.31458 18 4.31347 17.9984 3.55812 17.8969C2.82435 17.7982 2.43577 17.6178 2.15901 17.341C1.88225 17.0642 1.7018 16.6757 1.60315 15.9419C1.50159 15.1865 1.5 14.1854 1.5 12.75V9.75C1.5 8.31458 1.50159 7.31347 1.60315 6.55812C1.7018 5.82434 1.88225 5.43577 2.15901 5.15901C2.43577 4.88225 2.82435 4.7018 3.55812 4.60315C4.31347 4.50159 5.31458 4.5 6.75 4.5H7.75C8.16421 4.5 8.5 4.16421 8.5 3.75C8.5 3.33579 8.16421 3 7.75 3H6.75Z" fill="#22282F"/>
</svg>
