<svg width="166" height="40" viewBox="0 0 166 40" fill="none" xmlns="http://www.w3.org/2000/svg">
<path d="M156.398 19.6147L157.574 20.7905C158.619 21.8168 159.253 23.1975 159.402 24.6528C159.57 26.5374 158.918 28.3846 157.574 29.728L148.076 39.3755L147.74 38.3306C147.591 37.9201 147.33 36.4454 147.33 35.3071V35.27C147.33 35.1209 147.33 34.9903 147.349 34.8599C147.349 33.5164 147.815 30.0451 150.539 27.3208L155.036 22.5444C156.38 20.9211 155.913 19.1483 155.895 19.0923L156.398 19.6147ZM85.2715 23.8169C85.2714 26.7398 84.4286 28.9401 82.9219 30.4468C81.385 31.9535 79.1546 32.7368 76.4727 32.7368C73.6401 32.7368 71.5006 31.7722 69.9336 30.5669C69.3611 30.1451 68.9083 29.3314 68.9082 28.4878C68.9082 27.0414 70.0536 25.8659 71.5 25.8657C72.163 25.8657 72.5855 26.0462 73.1279 26.438C74.2127 27.2515 75.1767 27.6743 76.4121 27.6743C78.5516 27.6743 79.8173 26.4383 79.8174 23.5757V10.3462C79.8174 8.86963 80.9932 7.66441 82.4697 7.63428H85.2715V23.8169ZM113.659 12.0337C113.63 12.0646 114.231 12.847 114.262 12.9077C114.744 13.5706 115.135 14.294 115.467 15.0171C116.13 16.5237 116.462 18.151 116.401 19.8384C116.401 21.4958 116.1 23.1541 115.467 24.6909C114.834 26.2877 113.87 27.7339 112.635 28.9692C111.399 30.2047 109.953 31.1393 108.355 31.8022C106.819 32.4049 105.191 32.7368 103.504 32.7368C101.846 32.7368 100.188 32.4351 98.6514 31.8022C98.6212 31.7725 98.5331 31.7423 98.5312 31.7417C97.6274 31.35 96.6933 30.808 95.6689 29.9946C95.6796 29.9838 97.1766 28.4559 97.6572 28.0054C97.8983 27.704 98.2303 27.4324 98.6221 27.2817C99.2246 27.0408 99.8877 27.0407 100.49 27.2817C101.455 27.6433 102.479 27.855 103.534 27.855C104.559 27.8549 105.583 27.6734 106.547 27.2817C107.541 26.8599 108.446 26.2577 109.199 25.5044C109.983 24.751 110.585 23.8465 110.977 22.8521C111.338 21.9179 111.55 20.893 111.55 19.8384C111.55 18.814 111.368 17.7898 110.977 16.8257C110.856 16.5545 110.796 16.2227 110.796 15.9214C110.796 15.2584 111.068 14.6254 111.55 14.1733L113.659 12.0337ZM62.46 8.20654C63.5146 7.18224 65.1416 7.15193 66.1963 8.146L66.2871 8.20654C67.2815 9.26127 67.2511 10.9193 66.2266 11.9438L58.4219 19.9897L66.2266 28.0356C67.2812 29.0903 67.2814 30.7174 66.2871 31.8022L66.1963 31.8628C65.1416 32.857 63.4845 32.8267 62.46 31.8022L51.2793 20.02L62.46 8.20654ZM51.0986 29.9644C51.0985 31.2901 49.8934 32.3745 48.417 32.3745H45.7051V10.3159C45.7052 8.83958 46.8497 7.66465 48.2959 7.63428H51.0986V29.9644ZM130.986 7.63428C136.893 7.63428 140.479 11.1302 140.479 16.1929V16.2524C140.479 21.5561 136.622 24.4798 131.68 24.8716L130.444 24.9312H127.974V23.3345C127.974 22.4907 128.304 21.6766 128.847 21.104C129.449 20.4712 130.293 20.0796 131.228 20.0796H131.288C133.638 19.8385 134.994 18.3019 134.994 16.3433V16.2827C134.994 14.083 133.578 12.7876 131.288 12.5767H126.346V29.9644C126.346 31.3202 125.11 32.3744 123.664 32.3745H120.892V10.3462C120.892 8.83952 122.097 7.63431 123.604 7.63428H130.986ZM19.2461 10.0454C19.2458 11.4011 18.1614 12.4554 16.8057 12.4556H5.625V17.4888H15.0576C16.4136 17.4888 17.498 18.5732 17.498 19.9292C17.498 21.2852 16.4136 22.3403 15.0576 22.3403H5.625V27.4028H19.2764V29.9341C19.2763 31.2899 18.1917 32.345 16.8359 32.3452H0.201172V10.3159C0.201306 8.8093 1.40644 7.60402 2.91309 7.604H19.2461V10.0454ZM29.3115 27.4028H41.8779L41.8477 29.9341C41.8476 31.2901 40.732 32.3452 39.376 32.3452H23.8564V10.3159C23.8566 8.83942 25.0323 7.63414 26.5088 7.604H29.3115V27.4028ZM103.504 6.97119C105.161 6.97123 106.819 7.27297 108.355 7.90576C108.446 7.93593 108.506 7.99578 108.597 8.02588C109.471 8.44775 110.375 8.9905 111.339 9.77393L109.199 11.8833C108.747 12.3654 108.144 12.6362 107.451 12.6362C107.15 12.6362 106.848 12.5761 106.547 12.4556C105.613 12.0941 104.589 11.8834 103.534 11.8833C102.51 11.8833 101.485 12.0639 100.521 12.4556C99.5261 12.8775 98.6215 13.4805 97.8682 14.2339C97.0849 14.9871 96.4825 15.8911 96.0908 16.8853C95.7292 17.8495 95.5176 18.8443 95.5176 19.8989C95.5176 20.9536 95.6991 21.9786 96.0908 22.9429C96.3317 23.5454 96.3316 24.2084 96.0605 24.7808C95.8797 25.1725 95.6381 25.5045 95.3066 25.7456C94.7941 26.2883 93.3779 27.6743 93.3779 27.6743C92.6849 26.7402 92.2332 26.0466 91.7812 25.2632C91.721 25.0824 91.6003 24.8408 91.54 24.7202C90.9374 23.1835 90.6055 21.556 90.6055 19.8687C90.6055 18.2114 90.9073 16.5539 91.54 15.0171C92.1729 13.42 93.1376 11.9733 94.373 10.7378C95.6084 9.50257 97.0546 8.56866 98.6514 7.90576C100.188 7.30306 101.816 6.97119 103.504 6.97119ZM163.153 15.6206C164.329 16.8148 165.001 18.4013 165.001 20.062V20.1177C165.001 20.3042 164.982 20.4907 164.963 20.6958C164.814 22.1512 164.18 23.5142 163.135 24.5591L161.922 25.7339L161.512 26.2007C161.55 26.1411 161.995 24.1466 160.41 22.562L151.044 13.1577C151.044 13.1577 148.786 10.6017 148.002 7.84033C147.034 4.41416 147.775 1.65648 147.778 1.60791L148.002 0.600098L163.153 15.6206Z" fill="white"/>
</svg>
