<svg width="117" height="40" viewBox="0 0 117 40" fill="none" xmlns="http://www.w3.org/2000/svg">
<path d="M81.1104 11.814C83.3472 11.814 85.1339 12.8133 86.0625 13.9106H86.2031V12.5601H90.1143V29.2749C90.1141 36.2108 86.0204 39.0668 81.1807 39.0669C76.6222 39.0669 73.8786 35.9996 72.8516 33.5093L76.4395 32.0181C77.0867 33.5516 78.6482 35.3667 81.1807 35.3667C84.2899 35.3666 86.2031 33.4391 86.2031 29.8374V28.4868H86.0625C85.1339 29.6123 83.3613 30.6254 81.1104 30.6255C76.4113 30.6255 72.1057 26.5312 72.1055 21.2554C72.1055 15.9512 76.4112 11.814 81.1104 11.814ZM60.9893 11.8286C66.1668 11.8286 70.3877 15.7681 70.3877 21.2271C70.3875 26.6436 66.1667 30.6255 60.9893 30.6255C55.8118 30.6255 51.591 26.6436 51.5908 21.2271C51.5908 15.7822 55.8117 11.8286 60.9893 11.8286ZM107.531 11.8286C112.413 11.8286 114.805 15.7118 115.579 17.8081L116.001 18.8774L103.423 24.0825C104.38 25.9678 105.871 26.9253 107.981 26.9253C110.092 26.9253 111.555 25.8835 112.61 24.3218L115.818 26.4604C114.777 27.994 112.287 30.6255 107.981 30.6255C102.635 30.6255 98.6535 26.4889 98.6533 21.2271C98.6533 15.6274 102.677 11.8286 107.531 11.8286ZM40.4629 11.772C45.6404 11.772 49.8613 15.7402 49.8613 21.1851C49.8612 26.6016 45.6404 30.5835 40.4629 30.5835C35.2856 30.5833 31.0646 26.5874 31.0645 21.1851C31.0645 15.7403 35.2855 11.7722 40.4629 11.772ZM15.6152 1.19189C20.0753 1.19189 23.2693 2.93666 25.6611 5.22998L22.833 8.05811C21.1165 6.45419 18.7949 5.20166 15.6152 5.20166C9.72036 5.20183 5.10558 9.95715 5.10547 15.8521C5.10547 21.747 9.72029 26.5023 15.6152 26.5024C19.442 26.5024 21.6231 24.9695 23.002 23.5767C24.1416 22.437 24.9159 20.762 25.1973 18.314H15.6152V14.4028H29.0664C29.193 15.1203 29.3047 16.0912 29.3047 17.0337C29.3047 20.0446 28.4888 23.7597 25.8438 26.4048C23.2691 29.0777 19.9766 30.5122 15.6152 30.5122C7.53951 30.512 0.744141 23.9278 0.744141 15.8521C0.744259 7.77639 7.53958 1.19207 15.6152 1.19189ZM96.6426 29.7671H92.5908V2.24756H96.6426V29.7671ZM60.9756 15.5288C58.1336 15.5288 55.6855 17.8504 55.6855 21.2271C55.6857 24.5754 58.1336 26.9253 60.9756 26.9253C63.8314 26.9251 66.2655 24.5612 66.2656 21.2271C66.2656 17.8505 63.8175 15.529 60.9756 15.5288ZM81.4619 15.5151C78.6199 15.5151 76.2285 17.935 76.2285 21.2554C76.2287 24.5334 78.62 26.9106 81.4619 26.9106C84.2757 26.9247 86.4842 24.5334 86.4844 21.2554C86.4844 17.935 84.2758 15.5152 81.4619 15.5151ZM40.4629 15.4868C37.621 15.4871 35.1729 17.8086 35.1729 21.1851C35.173 24.5333 37.6211 26.8831 40.4629 26.8833C43.3048 26.8833 45.7538 24.5334 45.7539 21.1851C45.7539 17.8084 43.3049 15.4868 40.4629 15.4868ZM107.658 15.4438C105.562 15.4438 102.65 17.3013 102.748 20.9312L111.147 17.4419C110.683 16.2742 109.304 15.444 107.658 15.4438Z" fill="white"/>
</svg>
