<svg width="126" height="40" viewBox="0 0 126 40" fill="none" xmlns="http://www.w3.org/2000/svg">
<path d="M10.0117 39.3257H0.201172V0.0825195H10.0117V39.3257ZM19.7998 9.88135C19.7998 15.1319 21.8422 20.0669 25.5557 23.7769C29.2656 27.4867 34.2004 29.5317 39.4473 29.5317V39.314C23.1902 39.314 10.0147 26.1384 10.0146 9.88135H19.7998ZM115.175 12.9468C116.298 12.9468 117.387 13.132 118.44 13.5034C119.494 13.8748 120.44 14.4579 121.277 15.2524C122.115 16.0471 122.776 17.0794 123.26 18.3491C123.743 19.6102 123.985 21.1435 123.985 22.9487V24.3218H109.843C109.873 25.535 110.103 26.5762 110.537 27.4448C111.012 28.3775 111.673 29.0902 112.52 29.5825C113.366 30.0661 114.355 30.3081 115.486 30.3081C116.22 30.3081 116.89 30.2038 117.494 29.9966C118.099 29.7806 118.622 29.4618 119.062 29.0386C119.503 28.6153 119.839 28.0921 120.072 27.4702L123.739 28.1313C123.446 29.211 122.919 30.1573 122.159 30.9692C121.408 31.7725 120.461 32.398 119.321 32.8472C118.19 33.2877 116.898 33.5083 115.447 33.5083C113.487 33.5083 111.797 33.0893 110.381 32.2515C108.973 31.405 107.885 30.2167 107.116 28.688C106.356 27.1506 105.976 25.3499 105.976 23.2856C105.976 21.2473 106.356 19.4507 107.116 17.896C107.885 16.3414 108.956 15.1278 110.329 14.2554C111.711 13.383 113.326 12.9468 115.175 12.9468ZM56.6348 19.2427H56.958L68.0879 6.57178H73.1279L62.4258 18.5181L73.167 33.1069H68.3477L59.7695 21.2515L56.6348 24.853V33.1069H52.6309V6.57178H56.6348V19.2427ZM81.6699 33.1069H77.7959V13.2056H81.6699V33.1069ZM94.5127 28.52H94.7197L99.7471 13.2056H103.906L96.6895 33.1069H92.543L85.3135 13.2056H89.4727L94.5127 28.52ZM115.201 16.147C114.113 16.147 113.163 16.4142 112.351 16.9497C111.547 17.4766 110.926 18.1679 110.485 19.0229C110.107 19.7653 109.894 20.5641 109.848 21.4194H120.189C120.189 20.4005 119.982 19.4982 119.567 18.7124C119.153 17.9178 118.57 17.2913 117.818 16.8335C117.076 16.3757 116.203 16.147 115.201 16.147ZM79.752 5.50928C80.4257 5.50928 81.0005 5.73801 81.4756 6.1958C81.9593 6.64495 82.2012 7.18945 82.2012 7.82861C82.2011 8.45911 81.9593 9.00366 81.4756 9.46143C81.0005 9.91053 80.4256 10.1343 79.752 10.1343C79.0783 10.1342 78.4993 9.91052 78.0156 9.46143C77.5406 9.00366 77.3037 8.45911 77.3037 7.82861C77.3037 7.18947 77.5406 6.64494 78.0156 6.1958C78.4993 5.73805 79.0783 5.50932 79.752 5.50928ZM39.4414 9.87939H29.6299V0.0688477H39.4414V9.87939Z" fill="white"/>
</svg>
