<svg width="128" height="40" viewBox="0 0 128 40" fill="none" xmlns="http://www.w3.org/2000/svg">
<g clip-path="url(#clip0_962_49611)">
<path d="M4.01285 36.1111C1.90503 36.1111 0.662518 34.8242 0.662518 32.6054V7.57777C0.662518 5.38119 1.90503 4.0943 4.01285 4.0943H14.5964C20.6092 4.0943 24.3811 7.17839 24.3811 12.0819C24.3811 15.5875 21.763 18.5163 18.3683 19.0266V19.2041C22.717 19.5369 25.9121 22.7097 25.9121 26.9476C25.9121 32.5832 21.6742 36.1111 14.8404 36.1111H4.01285ZM7.36319 17.4069H12.1779C15.7501 17.4069 17.7914 15.8316 17.7914 13.1247C17.7914 10.5509 15.9942 9.08653 12.8657 9.08653H7.36319V17.4069ZM7.36319 31.1189H13.132C16.9926 31.1189 19.0783 29.477 19.0783 26.4151C19.0783 23.4197 16.9261 21.8222 12.9767 21.8222H7.36319V31.1189ZM32.5684 36.577C30.6824 36.577 29.329 35.4233 29.329 33.2045V7.00089C29.329 4.78212 30.6824 3.60618 32.5684 3.60618C34.4765 3.60618 35.8078 4.78212 35.8078 7.00089V33.2045C35.8078 35.4233 34.4765 36.577 32.5684 36.577ZM51.095 36.6214C43.9062 36.6214 39.3134 32.0064 39.3134 24.1963C39.3134 16.4972 43.9728 11.8156 51.095 11.8156C58.2173 11.8156 62.8767 16.475 62.8767 24.1963C62.8767 32.0286 58.2838 36.6214 51.095 36.6214ZM51.095 31.6736C54.2679 31.6736 56.287 28.9888 56.287 24.2185C56.287 19.4925 54.2457 16.7635 51.095 16.7635C47.9444 16.7635 45.8809 19.4925 45.8809 24.2185C45.8809 28.9888 47.9 31.6736 51.095 31.6736ZM77.1434 36.6214C69.9546 36.6214 65.3617 32.0064 65.3617 24.1963C65.3617 16.4972 70.0211 11.8156 77.1434 11.8156C84.2656 11.8156 88.925 16.475 88.925 24.1963C88.925 32.0286 84.3322 36.6214 77.1434 36.6214ZM77.1434 31.6736C80.3162 31.6736 82.3353 28.9888 82.3353 24.2185C82.3353 19.4925 80.294 16.7635 77.1434 16.7635C73.9927 16.7635 71.9293 19.4925 71.9293 24.2185C71.9293 28.9888 73.9483 31.6736 77.1434 31.6736ZM95.5147 36.577C93.5844 36.577 92.2753 35.4011 92.2753 33.2045V15.1438C92.2753 12.9694 93.5622 11.8378 95.4038 11.8378C97.2454 11.8378 98.5322 12.9694 98.5322 15.1438V16.6303H98.6654C99.6638 13.7681 102.215 11.8822 105.455 11.8822C108.894 11.8822 111.29 13.6572 112.089 16.7635H112.222C113.287 13.7681 116.127 11.8822 119.611 11.8822C124.27 11.8822 127.398 15.0772 127.398 19.8697V33.2045C127.398 35.4011 126.067 36.577 124.137 36.577C122.229 36.577 120.92 35.4011 120.92 33.2045V21.4894C120.92 18.7382 119.544 17.2294 117.037 17.2294C114.574 17.2294 112.954 19.0266 112.954 21.6669V33.2045C112.954 35.4011 111.756 36.577 109.826 36.577C107.918 36.577 106.719 35.4011 106.719 33.2045V21.2897C106.719 18.7382 105.277 17.2294 102.881 17.2294C100.418 17.2294 98.7541 19.0932 98.7541 21.7557V33.2045C98.7541 35.4011 97.4229 36.577 95.5147 36.577Z" fill="white"/>
</g>
<defs>
<clipPath id="clip0_962_49611">
<rect width="128" height="40" fill="white"/>
</clipPath>
</defs>
</svg>
