<svg width="125" height="40" viewBox="0 0 125 40" fill="none" xmlns="http://www.w3.org/2000/svg">
<g clip-path="url(#clip0_961_49189)">
<mask id="mask0_961_49189" style="mask-type:luminance" maskUnits="userSpaceOnUse" x="99" y="9" width="12" height="19">
<path d="M105.309 24.9069C103.651 24.823 102.703 22.8632 102.819 20.8605C103.023 17.3308 105.976 13.7682 105.976 13.7682C106.665 14.3967 108.739 17.8028 108.627 20.4093C108.517 22.9552 106.965 24.9906 105.309 24.9069ZM107.282 12.5956C107.995 11.7663 108.484 11.2829 108.374 10.7079C108.264 10.133 106.314 9.73415 105.447 10.534C102.88 8.49987 103.406 10.8827 103.777 11.4141C100.745 13.5436 98.6939 19.1491 100.344 23.5231C101.958 27.7987 106.824 28.3262 109.375 25.3214C111.635 22.6605 111.231 17.7693 107.282 12.5956Z" fill="white"/>
</mask>
<g mask="url(#mask0_961_49189)">
<mask id="mask1_961_49189" style="mask-type:luminance" maskUnits="userSpaceOnUse" x="0" y="1" width="124" height="40">
<path d="M0 40.1995H124V1.00002H0V40.1995Z" fill="white"/>
</mask>
<g mask="url(#mask1_961_49189)">
<path d="M99.1367 27.8418H111.373V9.10496H99.1367V27.8418Z" fill="white"/>
</g>
</g>
<mask id="mask2_961_49189" style="mask-type:luminance" maskUnits="userSpaceOnUse" x="0" y="4" width="16" height="26">
<path d="M12.2538 4.09459C6.53414 3.68076 0.212959 8.41224 0.454709 14.5401C0.477909 15.1285 0.976067 15.6675 1.69117 15.6675C2.57581 15.6675 5.16684 15.5695 5.16684 15.5695C5.16684 15.5695 0.0546875 19.595 0.0546875 24.3081C0.0546875 26.7952 1.92264 29.7742 5.82215 29.7742C11.2873 29.774 15.361 25.305 15.3533 21.519C15.3529 21.2307 15.0218 20.8242 14.4878 21.4706C13.6409 22.4962 9.09867 27.1555 4.60946 27.1555C3.10223 27.1553 1.79164 26.3042 1.79164 24.5045C1.79164 22.1478 5.52739 17.5656 11.9498 15.7652C13.5229 15.3075 13.6537 13.1143 11.6549 13.0163C9.6901 12.9198 2.9056 13.6707 2.41425 13.6707C1.92264 13.6707 1.87833 13.5647 2.05368 13.1143C2.2832 12.5251 4.77342 8.17208 12.2448 7.35385C14.7681 7.15723 14.5149 4.25858 12.2538 4.09459Z" fill="white"/>
</mask>
<g mask="url(#mask2_961_49189)">
<mask id="mask3_961_49189" style="mask-type:luminance" maskUnits="userSpaceOnUse" x="0" y="1" width="124" height="40">
<path d="M0 40.1995H124V1.00002H0V40.1995Z" fill="white"/>
</mask>
<g mask="url(#mask3_961_49189)">
<path d="M0 30.3948H15.9725V3.4495H0V30.3948Z" fill="white"/>
</g>
</g>
<mask id="mask4_961_49189" style="mask-type:luminance" maskUnits="userSpaceOnUse" x="16" y="9" width="10" height="19">
<path d="M20.3375 11.2522C20.3375 9.77207 18.1369 8.86304 17.3076 10.959C15.711 14.9945 15.226 27.2231 20.5696 27.2231C22.9154 27.223 25.9092 22.0888 25.9092 17.0772C25.9092 12.9442 24.215 10.243 23.8566 9.75533C23.4981 9.26695 23.0093 9.52745 23.0746 10.439C23.1398 11.3496 23.4002 19.7781 20.7611 22.8374C19.7186 23.976 18.9504 22.7899 18.8391 21.6661C18.5132 18.379 20.3375 13.4 20.3375 11.2522Z" fill="white"/>
</mask>
<g mask="url(#mask4_961_49189)">
<mask id="mask5_961_49189" style="mask-type:luminance" maskUnits="userSpaceOnUse" x="0" y="1" width="124" height="40">
<path d="M0 40.1995H124V1.00002H0V40.1995Z" fill="white"/>
</mask>
<g mask="url(#mask5_961_49189)">
<path d="M15.6074 27.8433H26.5326V8.89256H15.6074V27.8433Z" fill="white"/>
</g>
</g>
<mask id="mask6_961_49189" style="mask-type:luminance" maskUnits="userSpaceOnUse" x="39" y="9" width="11" height="19">
<path d="M44.7595 24.3872C43.2591 24.3872 42.4252 22.4515 42.4252 20.3493C42.4252 16.6444 45.0926 13.2739 45.0926 13.2739C45.826 14.2081 47.5932 16.8445 47.5932 19.5144C47.5932 22.1847 46.259 24.3872 44.7595 24.3872ZM45.9596 12.1057C45.9596 12.1057 46.8072 10.9554 46.2972 10.3063C45.7237 9.57477 43.8855 9.34677 42.1634 11.2737C39.8962 13.81 38.3078 19.1625 40.0249 23.653C41.6665 27.9465 46.263 28.3092 48.3931 25.0551C50.2934 22.151 49.7935 17.3118 45.9596 12.1057Z" fill="white"/>
</mask>
<g mask="url(#mask6_961_49189)">
<mask id="mask7_961_49189" style="mask-type:luminance" maskUnits="userSpaceOnUse" x="0" y="1" width="124" height="40">
<path d="M0 40.1995H124V1.00002H0V40.1995Z" fill="white"/>
</mask>
<g mask="url(#mask7_961_49189)">
<path d="M38.6797 27.8433H50.0908V9.15282H38.6797V27.8433Z" fill="white"/>
</g>
</g>
<mask id="mask8_961_49189" style="mask-type:luminance" maskUnits="userSpaceOnUse" x="27" y="9" width="13" height="20">
<path d="M30.8806 16.4861C31.0116 14.817 31.1427 13.0822 31.1427 13.0822C31.143 13.0819 34.8788 12.1326 36.1563 12.2641C37.2688 12.3778 37.4999 12.8529 36.9334 13.7314C35.5994 15.8 32.5321 16.516 30.8806 16.4861ZM38.8997 27.5556C37.3016 25.3403 35.2945 20.9057 32.2241 18.2209C35.3372 18.0243 39.2365 15.6026 39.2365 13.0168C39.2365 11.102 37.2421 9.72194 34.6536 9.72194C32.0649 9.72194 29.2095 10.5949 28.1281 11.2492C26.7187 12.0675 27.7675 13.9984 29.0786 13.4752C29.0786 13.4752 28.5869 15.7657 28.456 16.9771C27.3914 16.8456 27.1776 17.0423 27.2432 17.2716C27.309 17.5004 27.7675 17.6973 28.292 18.3521C28.1281 19.7917 27.8378 26.1956 27.9033 26.7522C27.9694 27.3127 28.3075 27.4094 28.788 26.8175C29.2141 26.2942 30.1269 25.0287 30.5529 20.2505C31.0444 20.6753 32.3879 22.473 34.0265 24.5703C36.4296 27.647 37.222 27.8689 38.2092 28.2157C38.7419 28.4036 39.2911 28.098 38.8997 27.5556Z" fill="white"/>
</mask>
<g mask="url(#mask8_961_49189)">
<mask id="mask9_961_49189" style="mask-type:luminance" maskUnits="userSpaceOnUse" x="0" y="1" width="124" height="40">
<path d="M0 40.1995H124V1.00002H0V40.1995Z" fill="white"/>
</mask>
<g mask="url(#mask9_961_49189)">
<path d="M26.6113 28.8911H39.8578V9.10135H26.6113V28.8911Z" fill="white"/>
</g>
</g>
<mask id="mask10_961_49189" style="mask-type:luminance" maskUnits="userSpaceOnUse" x="50" y="1" width="28" height="29">
<path d="M52.8084 13.6383C52.8769 7.5186 56.0654 5.60317 57.802 5.60317C60.2272 5.60317 61.2285 7.45224 61.3923 8.27096C61.556 9.08894 62.4737 9.74329 62.7687 8.40158C63.0638 7.05987 65.9169 2.96824 69.4229 2.96824C72.6341 2.96799 73.7463 6.27588 73.6499 9.08919C73.3875 16.7477 63.5091 22.8601 62.2089 26.72C61.0512 24.3822 52.7269 21.0031 52.8084 13.6383ZM70.57 1.07017C67.6863 1.07017 64.2757 3.19749 62.2117 6.73263C61.6547 5.4558 59.6699 4.06471 57.311 4.06471C55.4101 4.06471 50.0742 6.43764 50.0742 14.0967C50.0742 23.9811 60.0864 26.0113 62.1107 29.0833C62.2496 29.2946 62.6977 29.4541 62.8685 28.9493C64.4836 24.1887 77.0069 18.8097 77.0069 9.12169C77.0069 3.68847 73.4537 1.07017 70.57 1.07017Z" fill="white"/>
</mask>
<g mask="url(#mask10_961_49189)">
<mask id="mask11_961_49189" style="mask-type:luminance" maskUnits="userSpaceOnUse" x="0" y="1" width="124" height="40">
<path d="M0 40.1995H124V1.00002H0V40.1995Z" fill="white"/>
</mask>
<g mask="url(#mask11_961_49189)">
<path d="M49.4531 29.905H77.6283V0.449878H49.4531V29.905Z" fill="white"/>
</g>
</g>
<mask id="mask12_961_49189" style="mask-type:luminance" maskUnits="userSpaceOnUse" x="75" y="9" width="7" height="19">
<path d="M78.7142 10.1466C78.8008 13.4731 75.8727 18.7621 75.6854 22.6227C75.548 25.437 76.0531 26.5757 76.2932 26.9465C76.5442 27.3345 77.0941 27.368 77.241 26.6623C77.6787 24.5536 80.6942 18.9944 81.0807 14.5242C81.3176 11.7841 80.4666 10.1073 79.4872 9.79037C79.0499 9.64908 78.702 9.70217 78.7142 10.1466Z" fill="white"/>
</mask>
<g mask="url(#mask12_961_49189)">
<mask id="mask13_961_49189" style="mask-type:luminance" maskUnits="userSpaceOnUse" x="0" y="1" width="124" height="40">
<path d="M0 40.1995H124V1.00002H0V40.1995Z" fill="white"/>
</mask>
<g mask="url(#mask13_961_49189)">
<path d="M75.043 27.8403H81.7441V9.10077H75.043V27.8403Z" fill="white"/>
</g>
</g>
<mask id="mask14_961_49189" style="mask-type:luminance" maskUnits="userSpaceOnUse" x="80" y="9" width="13" height="20">
<path d="M89.6388 9.7216C85.5417 9.7216 82.5867 11.1726 82.5867 14.4672C82.5868 16.4968 84.0939 17.8929 86.497 18.2859C87.8953 18.5477 89.2562 18.6503 89.752 18.8314C90.6486 19.1582 88.5027 20.1897 85.163 22.452C82.8814 23.9976 81.2149 25.6306 80.3244 27.3646C80.016 27.9648 80.4333 28.5379 81.0783 28.0945C82.3306 27.2332 85.0749 25.7977 87.7375 24.3346C90.2715 22.942 92.6583 21.4118 92.6583 19.5079C92.6583 17.7838 91.3629 17.1339 90.364 17.0201C88.6381 16.8244 84.9023 16.9767 84.9023 14.8167C84.9026 14.0092 85.9727 12.9507 89.4135 12.9507C92.0681 12.9507 91.8003 9.7216 89.6388 9.7216Z" fill="white"/>
</mask>
<g mask="url(#mask14_961_49189)">
<mask id="mask15_961_49189" style="mask-type:luminance" maskUnits="userSpaceOnUse" x="0" y="1" width="124" height="40">
<path d="M0 40.1995H124V1.00002H0V40.1995Z" fill="white"/>
</mask>
<g mask="url(#mask15_961_49189)">
<path d="M79.5996 28.8723H93.2797V9.10153H79.5996V28.8723Z" fill="white"/>
</g>
</g>
<mask id="mask16_961_49189" style="mask-type:luminance" maskUnits="userSpaceOnUse" x="93" y="9" width="6" height="19">
<path d="M94.7963 10.3224C96.1368 12.8927 93.8555 19.8847 93.8555 22.5411C93.8557 25.1975 94.1549 26.1338 94.8589 26.9949C95.2188 27.436 95.6915 27.1715 95.7351 26.6951C95.9534 24.3537 98.4717 17.9988 98.6342 15.046C98.8418 11.2847 96.9822 9.82735 95.8928 9.73531C95.2892 9.68445 94.4909 9.79349 94.7963 10.3224Z" fill="white"/>
</mask>
<g mask="url(#mask16_961_49189)">
<mask id="mask17_961_49189" style="mask-type:luminance" maskUnits="userSpaceOnUse" x="0" y="1" width="124" height="40">
<path d="M0 40.1995H124V1.00002H0V40.1995Z" fill="white"/>
</mask>
<g mask="url(#mask17_961_49189)">
<path d="M93.2363 27.8403H99.2735V9.10399H93.2363V27.8403Z" fill="white"/>
</g>
</g>
<mask id="mask18_961_49189" style="mask-type:luminance" maskUnits="userSpaceOnUse" x="95" y="1" width="5" height="8">
<path d="M95.7194 6.69527C95.6509 9.14462 99.741 9.53996 99.741 6.54542C99.741 3.93593 97.5551 1.77736 97.1162 1.41811C96.4338 0.862373 95.4687 0.962727 95.696 1.86097C96.2193 3.74353 95.7428 5.83958 95.7194 6.69527Z" fill="white"/>
</mask>
<g mask="url(#mask18_961_49189)">
<mask id="mask19_961_49189" style="mask-type:luminance" maskUnits="userSpaceOnUse" x="0" y="1" width="124" height="40">
<path d="M0 40.1995H124V1.00002H0V40.1995Z" fill="white"/>
</mask>
<g mask="url(#mask19_961_49189)">
<path d="M95.043 9.28345H100.364V0.455288H95.043V9.28345Z" fill="white"/>
</g>
</g>
<mask id="mask20_961_49189" style="mask-type:luminance" maskUnits="userSpaceOnUse" x="112" y="9" width="12" height="19">
<path d="M123.778 26.9684C123.243 23.6785 123.978 19.4454 123.978 15.4565C123.978 12.4112 121.445 10.8457 119.941 10.8457C117.988 10.8457 116.828 11.7254 116.828 11.7254C116.849 11.1458 116.95 10.2542 116.931 9.97293C116.91 9.65128 116.524 9.6509 115.966 9.95147C112.895 11.86 112.451 17.3361 112.451 21.1317C112.451 24.9276 113.056 26.2731 113.12 26.7874C113.181 27.2759 113.782 27.349 114.018 26.92C115.65 23.7458 115.841 17.9656 116.399 14.7484C117.172 13.6977 120.327 13.5047 120.457 16.014C120.588 18.5674 120.341 25.0227 122.956 27.2764C123.309 27.5799 123.855 27.441 123.778 26.9684Z" fill="white"/>
</mask>
<g mask="url(#mask20_961_49189)">
<mask id="mask21_961_49189" style="mask-type:luminance" maskUnits="userSpaceOnUse" x="0" y="1" width="124" height="40">
<path d="M0 40.1995H124V1.00002H0V40.1995Z" fill="white"/>
</mask>
<g mask="url(#mask21_961_49189)">
<path d="M111.832 28.0576H124.602V9.10866H111.832V28.0576Z" fill="white"/>
</g>
</g>
</g>
<g clip-path="url(#clip1_961_49189)">
<mask id="mask22_961_49189" style="mask-type:luminance" maskUnits="userSpaceOnUse" x="21" y="31" width="6" height="8">
<path d="M21.418 37.1259L22.2542 36.1254C22.8325 36.6028 23.439 36.9053 24.1739 36.9053C24.7529 36.9053 25.1023 36.6759 25.1023 36.2997V36.2812C25.1023 35.9233 24.8816 35.7401 23.8065 35.4647C22.5111 35.1345 21.6752 34.7765 21.6752 33.5005V33.4825C21.6752 32.3174 22.6125 31.5464 23.9262 31.5464C24.8633 31.5464 25.6624 31.84 26.3147 32.3631L25.5797 33.4278C25.01 33.0327 24.4495 32.7944 23.9077 32.7944C23.3656 32.7944 23.0808 33.0422 23.0808 33.3541V33.3725C23.0808 33.7943 23.3562 33.9321 24.468 34.2167C25.7729 34.5561 26.5077 35.0241 26.5077 36.1435V36.1621C26.5077 37.4377 25.5338 38.1531 24.1463 38.1531C23.1726 38.1531 22.1898 37.8134 21.418 37.1259Z" fill="white"/>
</mask>
<g mask="url(#mask22_961_49189)">
<mask id="mask23_961_49189" style="mask-type:luminance" maskUnits="userSpaceOnUse" x="0" y="-2" width="124" height="41">
<path d="M0 38.1992H124V-1.00022H0V38.1992Z" fill="white"/>
</mask>
<g mask="url(#mask23_961_49189)">
<path d="M20.7949 38.1995H27.1271V30.9264H20.7949V38.1995Z" fill="white"/>
</g>
</g>
<mask id="mask24_961_49189" style="mask-type:luminance" maskUnits="userSpaceOnUse" x="27" y="31" width="8" height="8">
<path d="M33.2508 34.8681V34.8497C33.2508 33.7488 32.4422 32.8308 31.3029 32.8308C30.1637 32.8308 29.3736 33.7304 29.3736 34.8313V34.8497C29.3736 35.9509 30.1821 36.8687 31.3212 36.8687C32.4604 36.8685 33.2506 35.9693 33.2508 34.8681ZM27.8945 34.8681V34.8497C27.8945 33.0236 29.3368 31.5277 31.3212 31.5277C33.3059 31.5277 34.7298 33.0056 34.7298 34.8313V34.8497C34.7298 36.6758 33.2872 38.1714 31.3029 38.1714C29.3185 38.1714 27.8945 36.6942 27.8945 34.8681Z" fill="white"/>
</mask>
<g mask="url(#mask24_961_49189)">
<mask id="mask25_961_49189" style="mask-type:luminance" maskUnits="userSpaceOnUse" x="0" y="-2" width="124" height="41">
<path d="M0 38.1992H124V-1.00022H0V38.1992Z" fill="white"/>
</mask>
<g mask="url(#mask25_961_49189)">
<path d="M27.2754 38.1995H35.3531V30.9079H27.2754V38.1995Z" fill="white"/>
</g>
</g>
<mask id="mask26_961_49189" style="mask-type:luminance" maskUnits="userSpaceOnUse" x="36" y="31" width="7" height="8">
<path d="M36.3574 31.6385H37.6619L40.6756 35.5936V31.6385H42.0717V38.0618H40.8684L37.754 33.9786V38.0618H36.3574V31.6385Z" fill="white"/>
</mask>
<g mask="url(#mask26_961_49189)">
<mask id="mask27_961_49189" style="mask-type:luminance" maskUnits="userSpaceOnUse" x="0" y="-2" width="124" height="41">
<path d="M0 38.1992H124V-1.00022H0V38.1992Z" fill="white"/>
</mask>
<g mask="url(#mask27_961_49189)">
<path d="M35.7383 38.1995H42.695V31.0181H35.7383V38.1995Z" fill="white"/>
</g>
</g>
<mask id="mask28_961_49189" style="mask-type:luminance" maskUnits="userSpaceOnUse" x="43" y="31" width="7" height="8">
<path d="M43.873 34.8681V34.8497C43.873 33.0236 45.2971 31.5277 47.245 31.5277C48.4022 31.5277 49.1006 31.84 49.7711 32.4084L48.88 33.4824C48.3839 33.0697 47.9428 32.8308 47.1989 32.8308C46.17 32.8308 45.3519 33.7393 45.3519 34.8313V34.8497C45.3519 36.0244 46.1608 36.8871 47.2999 36.8871C47.8146 36.8871 48.2736 36.7583 48.6319 36.5017V35.5835H47.2081V34.3631H50.0009V37.1531C49.3394 37.7127 48.4297 38.1714 47.2541 38.1714C45.251 38.1714 43.873 36.7676 43.873 34.8681Z" fill="white"/>
</mask>
<g mask="url(#mask28_961_49189)">
<mask id="mask29_961_49189" style="mask-type:luminance" maskUnits="userSpaceOnUse" x="0" y="-2" width="124" height="41">
<path d="M0 38.1992H124V-1.00022H0V38.1992Z" fill="white"/>
</mask>
<g mask="url(#mask29_961_49189)">
<path d="M43.252 38.1995H50.6223V30.9079H43.252V38.1995Z" fill="white"/>
</g>
</g>
<mask id="mask30_961_49189" style="mask-type:luminance" maskUnits="userSpaceOnUse" x="54" y="31" width="7" height="8">
<path d="M54.9355 34.8681V34.8497C54.9355 33.0236 56.3135 31.5277 58.2889 31.5277C59.5009 31.5277 60.2273 31.9316 60.8248 32.5192L59.9239 33.5559C59.4276 33.1061 58.9223 32.8308 58.2796 32.8308C57.1954 32.8308 56.4145 33.7304 56.4145 34.8313V34.8497C56.4145 35.9509 57.1771 36.8687 58.2796 36.8687C59.0142 36.8685 59.4642 36.5749 59.9696 36.1162L60.8703 37.0247C60.2085 37.7311 59.4735 38.1714 58.2337 38.1714C56.3412 38.1714 54.9355 36.7124 54.9355 34.8681Z" fill="white"/>
</mask>
<g mask="url(#mask30_961_49189)">
<mask id="mask31_961_49189" style="mask-type:luminance" maskUnits="userSpaceOnUse" x="0" y="-2" width="124" height="41">
<path d="M0 38.1992H124V-1.00022H0V38.1992Z" fill="white"/>
</mask>
<g mask="url(#mask31_961_49189)">
<path d="M54.3145 38.1995H61.4916V30.9079H54.3145V38.1995Z" fill="white"/>
</g>
</g>
<mask id="mask32_961_49189" style="mask-type:luminance" maskUnits="userSpaceOnUse" x="62" y="31" width="7" height="8">
<path d="M67.4402 34.8681V34.8497C67.4402 33.7488 66.6312 32.8308 65.4925 32.8308C64.3528 32.8308 63.5629 33.7304 63.5629 34.8313V34.8497C63.5629 35.9509 64.3715 36.8687 65.5109 36.8687C66.65 36.8685 67.4402 35.9693 67.4402 34.8681ZM62.084 34.8681V34.8497C62.084 33.0236 63.526 31.5277 65.5109 31.5277C67.4954 31.5277 68.919 33.0056 68.919 34.8313L68.9191 34.8497C68.9191 36.6758 67.4767 38.1714 65.4925 38.1714C63.5081 38.1714 62.084 36.6942 62.084 34.8681Z" fill="white"/>
</mask>
<g mask="url(#mask32_961_49189)">
<mask id="mask33_961_49189" style="mask-type:luminance" maskUnits="userSpaceOnUse" x="0" y="-2" width="124" height="41">
<path d="M0 38.1992H124V-1.00022H0V38.1992Z" fill="white"/>
</mask>
<g mask="url(#mask33_961_49189)">
<path d="M61.4609 38.1995H69.5386V30.9079H61.4609V38.1995Z" fill="white"/>
</g>
</g>
<mask id="mask34_961_49189" style="mask-type:luminance" maskUnits="userSpaceOnUse" x="70" y="31" width="7" height="8">
<path d="M70.5469 31.6385H71.8514L74.865 35.5936V31.6385H76.2616V38.0618H75.0576L71.9433 33.9786V38.0618H70.5469V31.6385Z" fill="white"/>
</mask>
<g mask="url(#mask34_961_49189)">
<mask id="mask35_961_49189" style="mask-type:luminance" maskUnits="userSpaceOnUse" x="0" y="-2" width="124" height="41">
<path d="M0 38.1992H124V-1.00022H0V38.1992Z" fill="white"/>
</mask>
<g mask="url(#mask35_961_49189)">
<path d="M69.9238 38.1995H76.881V31.0181H69.9238V38.1995Z" fill="white"/>
</g>
</g>
<mask id="mask36_961_49189" style="mask-type:luminance" maskUnits="userSpaceOnUse" x="77" y="31" width="7" height="8">
<path d="M79.7147 32.9415H77.7578V31.6385H83.0863V32.9415H81.1295V38.0618H79.7147V32.9415Z" fill="white"/>
</mask>
<g mask="url(#mask36_961_49189)">
<mask id="mask37_961_49189" style="mask-type:luminance" maskUnits="userSpaceOnUse" x="0" y="-2" width="124" height="41">
<path d="M0 38.1992H124V-1.00022H0V38.1992Z" fill="white"/>
</mask>
<g mask="url(#mask37_961_49189)">
<path d="M77.1406 38.1995H83.7117V31.0181H77.1406V38.1995Z" fill="white"/>
</g>
</g>
<mask id="mask38_961_49189" style="mask-type:luminance" maskUnits="userSpaceOnUse" x="84" y="31" width="6" height="8">
<path d="M84.7246 31.6385H89.5753V32.8955H86.1306V34.1984H89.1621V35.4558H86.1306V36.8049H89.6216V38.0618H84.7246V31.6385Z" fill="white"/>
</mask>
<g mask="url(#mask38_961_49189)">
<mask id="mask39_961_49189" style="mask-type:luminance" maskUnits="userSpaceOnUse" x="0" y="-2" width="124" height="41">
<path d="M0 38.1992H124V-1.00022H0V38.1992Z" fill="white"/>
</mask>
<g mask="url(#mask39_961_49189)">
<path d="M84.1055 38.1995H90.2449V31.0181H84.1055V38.1995Z" fill="white"/>
</g>
</g>
<mask id="mask40_961_49189" style="mask-type:luminance" maskUnits="userSpaceOnUse" x="90" y="31" width="7" height="8">
<path d="M90.9844 37.1259L91.8203 36.1254C92.3989 36.6028 93.0055 36.9053 93.7407 36.9053C94.319 36.9053 94.6685 36.6759 94.6685 36.2997V36.2812C94.6685 35.9233 94.4479 35.7401 93.3731 35.4647C92.0775 35.1345 91.2416 34.7765 91.2416 33.5005L91.2418 33.4825C91.2418 32.3174 92.1785 31.5464 93.4926 31.5464C94.4293 31.5464 95.229 31.84 95.8813 32.3631L95.1462 33.4278C94.5766 33.0327 94.0159 32.7944 93.4741 32.7944C92.9323 32.7944 92.6472 33.0422 92.6472 33.3541V33.3725C92.6472 33.7943 92.9227 33.9321 94.0343 34.2167C95.3392 34.5561 96.074 35.0241 96.074 36.1435L96.0741 36.1621C96.0741 37.4377 95.1002 38.1531 93.7126 38.1531C92.7394 38.1531 91.7562 37.8134 90.9844 37.1259Z" fill="white"/>
</mask>
<g mask="url(#mask40_961_49189)">
<mask id="mask41_961_49189" style="mask-type:luminance" maskUnits="userSpaceOnUse" x="0" y="-2" width="124" height="41">
<path d="M0 38.1992H124V-1.00022H0V38.1992Z" fill="white"/>
</mask>
<g mask="url(#mask41_961_49189)">
<path d="M90.3633 38.1995H96.6955V30.9264H90.3633V38.1995Z" fill="white"/>
</g>
</g>
<mask id="mask42_961_49189" style="mask-type:luminance" maskUnits="userSpaceOnUse" x="97" y="31" width="6" height="8">
<path d="M99.2048 32.9415H97.248V31.6385H102.576V32.9415H100.619V38.0618H99.2048V32.9415Z" fill="white"/>
</mask>
<g mask="url(#mask42_961_49189)">
<mask id="mask43_961_49189" style="mask-type:luminance" maskUnits="userSpaceOnUse" x="0" y="-2" width="124" height="41">
<path d="M0 38.1992H124V-1.00022H0V38.1992Z" fill="white"/>
</mask>
<g mask="url(#mask43_961_49189)">
<path d="M96.6289 38.1995H103.2V31.0181H96.6289V38.1995Z" fill="white"/>
</g>
</g>
</g>
<defs>
<clipPath id="clip0_961_49189">
<rect width="125" height="32" fill="white" transform="translate(0 1)"/>
</clipPath>
<clipPath id="clip1_961_49189">
<rect width="125" height="9" fill="white" transform="translate(0 30)"/>
</clipPath>
</defs>
</svg>
