<svg width="221" height="40" viewBox="0 0 221 40" fill="none" xmlns="http://www.w3.org/2000/svg">
<g clip-path="url(#clip0_962_49706)">
<g clip-path="url(#clip1_962_49706)">
<path d="M47.5364 25.4921L28.521 6.7488C26.3862 4.64428 22.9241 4.64428 20.7894 6.7488L15.1377 12.3205L15.1313 12.3141L7.39656 19.9363L7.40302 19.9427L1.89345 25.3774C-0.167002 27.4086 -0.412447 30.7136 1.51235 32.8691C3.61801 35.2314 7.27384 35.3206 9.49575 33.1301L9.50221 33.1364L11.1299 31.5317L12.4572 30.2232C12.9514 29.7362 13.7491 29.7362 14.2432 30.2232L17.1594 33.0982L17.1627 33.0951C19.2264 35.0658 22.5269 35.2823 24.6939 33.4102C27.0903 31.3343 27.1806 27.7303 24.9587 25.5398L24.8845 25.4666L21.9747 22.5979C21.4805 22.1108 21.4805 21.3243 21.9747 20.8373L23.7703 19.0671C24.2645 18.58 25.0621 18.58 25.5562 19.0671L39.8017 33.1109C41.9364 35.2154 45.3985 35.2154 47.5332 33.1109C49.6711 31.0096 49.6711 27.5965 47.5364 25.4921Z" fill="white"/>
<path d="M63.027 34.6797C62.4685 34.6797 61.9988 34.4922 61.618 34.1171C61.2373 33.7419 61.0469 33.2792 61.0469 32.729V7.33207C61.0469 6.75686 61.2373 6.29419 61.618 5.94406C61.9988 5.56891 62.4685 5.38135 63.027 5.38135H80.2392C80.823 5.38135 81.2926 5.55641 81.648 5.90654C82.0034 6.23166 82.1812 6.66933 82.1812 7.21953C82.1812 7.74473 82.0034 8.16988 81.648 8.49501C81.2926 8.82013 80.823 8.98268 80.2392 8.98268H65.0071V18.0986H75.9362C76.5199 18.0986 76.9896 18.2736 77.345 18.6238C77.7004 18.9489 77.8782 19.374 77.8782 19.8993C77.8782 20.4244 77.7004 20.8622 77.345 21.2123C76.9896 21.5374 76.5199 21.6999 75.9362 21.6999H65.0071V32.729C65.0071 33.2792 64.8167 33.7419 64.436 34.1171C64.0551 34.4922 63.5855 34.6797 63.027 34.6797Z" fill="white"/>
<path d="M92.0813 34.8295C89.9742 34.8295 88.0956 34.3919 86.4454 33.5166C84.8207 32.6162 83.5386 31.3908 82.5994 29.8402C81.6854 28.2646 81.2285 26.4639 81.2285 24.4382C81.2285 22.3874 81.6601 20.5868 82.5233 19.0362C83.4117 17.4606 84.6303 16.2351 86.1788 15.3598C87.7275 14.4594 89.5046 14.0093 91.5101 14.0093C93.4903 14.0093 95.1911 14.4469 96.6128 15.3223C98.0344 16.1726 99.1134 17.3605 99.8496 18.8861C100.611 20.3866 100.992 22.1248 100.992 24.1005C100.992 24.5757 100.827 24.9759 100.497 25.301C100.167 25.6011 99.7481 25.7512 99.2403 25.7512H83.894V22.75H99.1261L97.5648 23.8004C97.5395 22.5499 97.2855 21.437 96.8032 20.4616C96.3209 19.4614 95.6354 18.6735 94.7469 18.0983C93.8583 17.5231 92.7794 17.2355 91.5101 17.2355C90.063 17.2355 88.819 17.5481 87.7782 18.1733C86.7627 18.7985 85.9885 19.6614 85.4554 20.7618C84.9223 21.8372 84.6557 23.0626 84.6557 24.4382C84.6557 25.8137 84.973 27.0392 85.6077 28.1145C86.2423 29.1899 87.1182 30.0403 88.2353 30.6655C89.3522 31.2907 90.6342 31.6033 92.0813 31.6033C92.8682 31.6033 93.6679 31.4658 94.4803 31.1907C95.318 30.8906 95.9908 30.5529 96.4985 30.1779C96.8794 29.9026 97.2855 29.7652 97.7171 29.7652C98.1741 29.7401 98.5676 29.8651 98.8976 30.1404C99.3292 30.5154 99.5577 30.9281 99.583 31.3782C99.6084 31.8284 99.4053 32.2161 98.9737 32.5411C98.1106 33.2165 97.0317 33.7666 95.737 34.1918C94.4677 34.617 93.2491 34.8295 92.0813 34.8295Z" fill="white"/>
<path d="M113.885 34.8295C112.032 34.8295 110.369 34.3794 108.897 33.4791C107.424 32.5537 106.257 31.3157 105.393 29.7652C104.556 28.1895 104.137 26.414 104.137 24.4382C104.137 22.4625 104.594 20.6868 105.508 19.1113C106.447 17.5356 107.703 16.2976 109.277 15.3973C110.877 14.4719 112.667 14.0093 114.647 14.0093C116.627 14.0093 118.404 14.4719 119.978 15.3973C121.552 16.2976 122.796 17.5356 123.71 19.1113C124.649 20.6868 125.119 22.4625 125.119 24.4382H123.634C123.634 26.414 123.202 28.1895 122.339 29.7652C121.501 31.3157 120.346 32.5537 118.874 33.4791C117.401 34.3794 115.738 34.8295 113.885 34.8295ZM114.647 31.4532C115.941 31.4532 117.097 31.1532 118.112 30.5529C119.127 29.9277 119.927 29.09 120.511 28.0394C121.095 26.9641 121.387 25.7637 121.387 24.4382C121.387 23.0877 121.095 21.8872 120.511 20.8368C119.927 19.7614 119.127 18.9237 118.112 18.3234C117.097 17.6982 115.941 17.3855 114.647 17.3855C113.377 17.3855 112.222 17.6982 111.182 18.3234C110.166 18.9237 109.354 19.7614 108.744 20.8368C108.16 21.8872 107.868 23.0877 107.868 24.4382C107.868 25.7637 108.16 26.9641 108.744 28.0394C109.354 29.09 110.166 29.9277 111.182 30.5529C112.222 31.1532 113.377 31.4532 114.647 31.4532ZM123.177 34.7169C122.618 34.7169 122.149 34.5419 121.768 34.1918C121.412 33.8166 121.235 33.3539 121.235 32.8038V27.0641L121.958 23.0877L125.119 24.4382V32.8038C125.119 33.3539 124.928 33.8166 124.548 34.1918C124.192 34.5419 123.735 34.7169 123.177 34.7169Z" fill="white"/>
<path d="M132.766 21.8495C132.766 20.3489 133.134 19.011 133.871 17.8355C134.632 16.6351 135.648 15.6847 136.917 14.9845C138.186 14.2842 139.583 13.9341 141.106 13.9341C142.629 13.9341 143.759 14.1842 144.495 14.6844C145.257 15.1595 145.548 15.7348 145.371 16.41C145.295 16.7601 145.142 17.0352 144.914 17.2353C144.711 17.4104 144.47 17.5229 144.19 17.5729C143.911 17.623 143.606 17.6105 143.276 17.5354C141.652 17.2103 140.192 17.1853 138.897 17.4604C137.602 17.7355 136.574 18.2482 135.813 18.9985C135.076 19.7488 134.708 20.699 134.708 21.8495H132.766ZM132.804 34.6792C132.195 34.6792 131.725 34.5293 131.395 34.2292C131.065 33.9041 130.9 33.4288 130.9 32.8036V16.0349C130.9 15.4346 131.065 14.972 131.395 14.6468C131.725 14.3217 132.195 14.1592 132.804 14.1592C133.439 14.1592 133.909 14.3217 134.213 14.6468C134.543 14.947 134.708 15.4096 134.708 16.0349V32.8036C134.708 33.4039 134.543 33.8666 134.213 34.1916C133.909 34.5167 133.439 34.6792 132.804 34.6792Z" fill="white"/>
<path d="M154.369 34.6797C153.252 34.6797 152.262 34.3797 151.399 33.7794C150.537 33.1792 149.864 32.3664 149.381 31.3409C148.899 30.2906 148.658 29.0902 148.658 27.7397V7.25704C148.658 6.70684 148.836 6.25667 149.191 5.90654C149.546 5.55641 150.002 5.38135 150.561 5.38135C151.119 5.38135 151.577 5.55641 151.932 5.90654C152.288 6.25667 152.465 6.70684 152.465 7.25704V27.7397C152.465 28.6651 152.643 29.4278 152.998 30.0281C153.353 30.6282 153.811 30.9284 154.369 30.9284H155.321C155.83 30.9284 156.236 31.1034 156.54 31.4535C156.87 31.8036 157.035 32.2539 157.035 32.804C157.035 33.3542 156.795 33.8044 156.311 34.1546C155.83 34.5047 155.208 34.6797 154.446 34.6797H154.369Z" fill="white"/>
<path d="M169.467 34.8295C167.359 34.8295 165.481 34.3919 163.831 33.5166C162.207 32.6162 160.924 31.3908 159.985 29.8402C159.071 28.2646 158.613 26.4639 158.613 24.4382C158.613 22.3874 159.045 20.5868 159.909 19.0362C160.798 17.4606 162.015 16.2351 163.564 15.3598C165.113 14.4594 166.89 14.0093 168.896 14.0093C170.876 14.0093 172.577 14.4469 173.998 15.3223C175.42 16.1726 176.498 17.3605 177.234 18.8861C177.996 20.3866 178.377 22.1248 178.377 24.1005C178.377 24.5757 178.213 24.9759 177.883 25.301C177.552 25.6011 177.133 25.7512 176.626 25.7512H161.279V22.75H176.512L174.951 23.8004C174.925 22.5499 174.671 21.437 174.189 20.4616C173.706 19.4614 173.021 18.6735 172.133 18.0983C171.243 17.5231 170.165 17.2355 168.896 17.2355C167.448 17.2355 166.205 17.5481 165.163 18.1733C164.148 18.7985 163.375 19.6614 162.84 20.7618C162.307 21.8372 162.041 23.0626 162.041 24.4382C162.041 25.8137 162.359 27.0392 162.994 28.1145C163.628 29.1899 164.504 30.0403 165.621 30.6655C166.738 31.2907 168.02 31.6033 169.467 31.6033C170.254 31.6033 171.053 31.4658 171.866 31.1907C172.703 30.8906 173.376 30.5529 173.883 30.1779C174.264 29.9026 174.671 29.7652 175.103 29.7652C175.559 29.7401 175.953 29.8651 176.283 30.1404C176.715 30.5154 176.944 30.9281 176.968 31.3782C176.993 31.8284 176.79 32.2161 176.36 32.5411C175.496 33.2165 174.418 33.7666 173.122 34.1918C171.853 34.617 170.635 34.8295 169.467 34.8295Z" fill="white"/>
<path d="M190.912 34.8295C189.136 34.8295 187.486 34.567 185.962 34.0417C184.465 33.4916 183.296 32.8038 182.458 31.9785C182.079 31.5784 181.913 31.1282 181.964 30.628C182.039 30.1028 182.294 29.6777 182.726 29.3525C183.233 28.9524 183.728 28.7898 184.21 28.8649C184.717 28.9148 185.149 29.1273 185.505 29.5025C185.937 29.9777 186.622 30.4279 187.561 30.8531C188.526 31.2532 189.592 31.4532 190.76 31.4532C192.232 31.4532 193.349 31.2156 194.111 30.7405C194.898 30.2654 195.304 29.6526 195.33 28.9024C195.356 28.152 194.987 27.5019 194.225 26.9515C193.489 26.4014 192.131 25.9513 190.15 25.6011C187.587 25.1009 185.721 24.3506 184.553 23.3503C183.411 22.3499 182.839 21.1244 182.839 19.6739C182.839 18.3984 183.22 17.348 183.981 16.5227C184.743 15.6724 185.721 15.0472 186.914 14.647C188.107 14.2219 189.351 14.0093 190.645 14.0093C192.321 14.0093 193.807 14.2719 195.101 14.7971C196.396 15.3223 197.424 16.0475 198.186 16.9729C198.541 17.373 198.707 17.7982 198.681 18.2484C198.655 18.6735 198.44 19.0362 198.034 19.3362C197.627 19.6113 197.145 19.699 196.587 19.5989C196.029 19.4988 195.559 19.2738 195.178 18.9237C194.543 18.3234 193.858 17.9107 193.122 17.6856C192.384 17.4606 191.535 17.348 190.57 17.348C189.453 17.348 188.5 17.5356 187.713 17.9107C186.951 18.2859 186.572 18.836 186.572 19.5613C186.572 20.0116 186.685 20.4241 186.914 20.7993C187.168 21.1494 187.65 21.4745 188.36 21.7747C189.072 22.0497 190.113 22.3248 191.484 22.5999C193.388 22.9751 194.886 23.4503 195.977 24.0255C197.094 24.6007 197.894 25.2759 198.375 26.0512C198.859 26.8016 199.099 27.6769 199.099 28.6773C199.099 29.8277 198.782 30.8655 198.148 31.7909C197.538 32.7163 196.625 33.454 195.405 34.0042C194.213 34.5544 192.715 34.8295 190.912 34.8295Z" fill="white"/>
<path d="M211.587 34.8295C209.809 34.8295 208.16 34.567 206.636 34.0417C205.138 33.4916 203.97 32.8038 203.133 31.9785C202.752 31.5784 202.587 31.1282 202.638 30.628C202.713 30.1028 202.968 29.6777 203.4 29.3525C203.907 28.9524 204.402 28.7898 204.884 28.8649C205.393 28.9148 205.823 29.1273 206.179 29.5025C206.611 29.9777 207.297 30.4279 208.236 30.8531C209.2 31.2532 210.267 31.4532 211.434 31.4532C212.907 31.4532 214.024 31.2156 214.786 30.7405C215.572 30.2654 215.978 29.6526 216.004 28.9024C216.029 28.152 215.661 27.5019 214.899 26.9515C214.163 26.4014 212.805 25.9513 210.826 25.6011C208.26 25.1009 206.395 24.3506 205.227 23.3503C204.085 22.3499 203.514 21.1244 203.514 19.6739C203.514 18.3984 203.895 17.348 204.657 16.5227C205.418 15.6724 206.395 15.0472 207.588 14.647C208.781 14.2219 210.025 14.0093 211.321 14.0093C212.996 14.0093 214.48 14.2719 215.775 14.7971C217.07 15.3223 218.098 16.0475 218.86 16.9729C219.215 17.373 219.38 17.7982 219.355 18.2484C219.329 18.6735 219.114 19.0362 218.707 19.3362C218.301 19.6113 217.819 19.699 217.261 19.5989C216.702 19.4988 216.233 19.2738 215.852 18.9237C215.217 18.3234 214.532 17.9107 213.796 17.6856C213.059 17.4606 212.209 17.348 211.244 17.348C210.127 17.348 209.174 17.5356 208.388 17.9107C207.627 18.2859 207.246 18.836 207.246 19.5613C207.246 20.0116 207.36 20.4241 207.588 20.7993C207.842 21.1494 208.325 21.4745 209.036 21.7747C209.746 22.0497 210.786 22.3248 212.158 22.5999C214.062 22.9751 215.56 23.4503 216.651 24.0255C217.768 24.6007 218.567 25.2759 219.051 26.0512C219.532 26.8016 219.773 27.6769 219.773 28.6773C219.773 29.8277 219.457 30.8655 218.822 31.7909C218.212 32.7163 217.298 33.454 216.081 34.0042C214.887 34.5544 213.389 34.8295 211.587 34.8295Z" fill="white"/>
<mask id="mask0_962_49706" style="mask-type:luminance" maskUnits="userSpaceOnUse" x="59" y="3" width="162" height="34">
<path d="M220.61 3.89844H59.5391V36.5236H220.61V3.89844Z" fill="white"/>
<path d="M63.027 34.6797C62.4685 34.6797 61.9988 34.4922 61.618 34.1171C61.2373 33.7419 61.0469 33.2792 61.0469 32.729V7.33207C61.0469 6.75686 61.2373 6.29419 61.618 5.94406C61.9988 5.56891 62.4685 5.38135 63.027 5.38135H80.2392C80.823 5.38135 81.2926 5.55641 81.648 5.90654C82.0034 6.23166 82.1812 6.66933 82.1812 7.21953C82.1812 7.74473 82.0034 8.16988 81.648 8.49501C81.2926 8.82013 80.823 8.98268 80.2392 8.98268H65.0071V18.0986H75.9362C76.5199 18.0986 76.9896 18.2736 77.345 18.6238C77.7004 18.9489 77.8782 19.374 77.8782 19.8993C77.8782 20.4244 77.7004 20.8622 77.345 21.2123C76.9896 21.5374 76.5199 21.6999 75.9362 21.6999H65.0071V32.729C65.0071 33.2792 64.8167 33.7419 64.436 34.1171C64.0551 34.4922 63.5855 34.6797 63.027 34.6797Z" fill="black"/>
<path d="M92.0813 34.8295C89.9742 34.8295 88.0956 34.3919 86.4454 33.5166C84.8207 32.6162 83.5386 31.3908 82.5994 29.8402C81.6854 28.2646 81.2285 26.4639 81.2285 24.4382C81.2285 22.3874 81.6601 20.5868 82.5233 19.0362C83.4117 17.4606 84.6303 16.2351 86.1788 15.3598C87.7275 14.4594 89.5046 14.0093 91.5101 14.0093C93.4903 14.0093 95.1911 14.4469 96.6128 15.3223C98.0344 16.1726 99.1134 17.3605 99.8496 18.8861C100.611 20.3866 100.992 22.1248 100.992 24.1005C100.992 24.5757 100.827 24.9759 100.497 25.301C100.167 25.6011 99.7481 25.7512 99.2403 25.7512H83.894V22.75H99.1261L97.5648 23.8004C97.5395 22.5499 97.2855 21.437 96.8032 20.4616C96.3209 19.4614 95.6354 18.6735 94.7469 18.0983C93.8583 17.5231 92.7794 17.2355 91.5101 17.2355C90.063 17.2355 88.819 17.5481 87.7782 18.1733C86.7627 18.7985 85.9885 19.6614 85.4554 20.7618C84.9223 21.8372 84.6557 23.0626 84.6557 24.4382C84.6557 25.8137 84.973 27.0392 85.6077 28.1145C86.2423 29.1899 87.1182 30.0403 88.2353 30.6655C89.3522 31.2907 90.6342 31.6033 92.0813 31.6033C92.8682 31.6033 93.6679 31.4658 94.4803 31.1907C95.318 30.8906 95.9908 30.5529 96.4985 30.1779C96.8794 29.9026 97.2855 29.7652 97.7171 29.7652C98.1741 29.7401 98.5676 29.8651 98.8976 30.1404C99.3292 30.5154 99.5577 30.9281 99.583 31.3782C99.6084 31.8284 99.4053 32.2161 98.9737 32.5411C98.1106 33.2165 97.0317 33.7666 95.737 34.1918C94.4677 34.617 93.2491 34.8295 92.0813 34.8295Z" fill="black"/>
<path d="M113.883 34.8295C112.03 34.8295 110.367 34.3794 108.895 33.4791C107.422 32.5537 106.255 31.3157 105.391 29.7652C104.554 28.1895 104.135 26.414 104.135 24.4382C104.135 22.4625 104.592 20.6868 105.506 19.1113C106.445 17.5356 107.702 16.2976 109.275 15.3973C110.875 14.4719 112.665 14.0093 114.645 14.0093C116.625 14.0093 118.402 14.4719 119.976 15.3973C121.55 16.2976 122.794 17.5356 123.708 19.1113C124.647 20.6868 125.117 22.4625 125.117 24.4382H123.632C123.632 26.414 123.2 28.1895 122.337 29.7652C121.499 31.3157 120.344 32.5537 118.872 33.4791C117.399 34.3794 115.736 34.8295 113.883 34.8295ZM114.645 31.4532C115.939 31.4532 117.095 31.1532 118.11 30.5529C119.126 29.9277 119.925 29.09 120.509 28.0394C121.093 26.9641 121.385 25.7637 121.385 24.4382C121.385 23.0877 121.093 21.8872 120.509 20.8368C119.925 19.7614 119.126 18.9237 118.11 18.3234C117.095 17.6982 115.939 17.3855 114.645 17.3855C113.375 17.3855 112.22 17.6982 111.18 18.3234C110.164 18.9237 109.352 19.7614 108.742 20.8368C108.159 21.8872 107.867 23.0877 107.867 24.4382C107.867 25.7637 108.159 26.9641 108.742 28.0394C109.352 29.09 110.164 29.9277 111.18 30.5529C112.22 31.1532 113.375 31.4532 114.645 31.4532ZM123.175 34.7169C122.616 34.7169 122.147 34.5419 121.766 34.1918C121.41 33.8166 121.233 33.3539 121.233 32.8038V27.0641L121.956 23.0877L125.117 24.4382V32.8038C125.117 33.3539 124.926 33.8166 124.546 34.1918C124.19 34.5419 123.733 34.7169 123.175 34.7169Z" fill="black"/>
<path d="M132.764 21.8495C132.764 20.3489 133.132 19.011 133.869 17.8355C134.63 16.6351 135.646 15.6847 136.915 14.9845C138.184 14.2842 139.581 13.9341 141.104 13.9341C142.627 13.9341 143.757 14.1842 144.493 14.6844C145.255 15.1595 145.546 15.7348 145.369 16.41C145.293 16.7601 145.14 17.0352 144.912 17.2353C144.709 17.4104 144.468 17.5229 144.188 17.5729C143.909 17.623 143.604 17.6105 143.274 17.5354C141.65 17.2103 140.19 17.1853 138.895 17.4604C137.6 17.7355 136.572 18.2482 135.811 18.9985C135.074 19.7488 134.706 20.699 134.706 21.8495H132.764ZM132.802 34.6792C132.193 34.6792 131.723 34.5293 131.393 34.2292C131.063 33.9041 130.898 33.4288 130.898 32.8036V16.0349C130.898 15.4346 131.063 14.972 131.393 14.6468C131.723 14.3217 132.193 14.1592 132.802 14.1592C133.437 14.1592 133.907 14.3217 134.211 14.6468C134.541 14.947 134.706 15.4096 134.706 16.0349V32.8036C134.706 33.4039 134.541 33.8666 134.211 34.1916C133.907 34.5167 133.437 34.6792 132.802 34.6792Z" fill="black"/>
<path d="M154.368 34.6797C153.251 34.6797 152.26 34.3797 151.397 33.7794C150.535 33.1792 149.862 32.3664 149.379 31.3409C148.897 30.2906 148.656 29.0902 148.656 27.7397V7.25704C148.656 6.70684 148.834 6.25667 149.189 5.90654C149.544 5.55641 150.001 5.38135 150.559 5.38135C151.117 5.38135 151.575 5.55641 151.93 5.90654C152.286 6.25667 152.463 6.70684 152.463 7.25704V27.7397C152.463 28.6651 152.641 29.4278 152.996 30.0281C153.351 30.6282 153.809 30.9284 154.368 30.9284H155.319C155.828 30.9284 156.234 31.1034 156.538 31.4535C156.868 31.8036 157.033 32.2539 157.033 32.804C157.033 33.3542 156.793 33.8044 156.309 34.1546C155.828 34.5047 155.206 34.6797 154.444 34.6797H154.368Z" fill="black"/>
<path d="M169.467 34.8295C167.359 34.8295 165.481 34.3919 163.831 33.5166C162.207 32.6162 160.924 31.3908 159.985 29.8402C159.071 28.2646 158.613 26.4639 158.613 24.4382C158.613 22.3874 159.045 20.5868 159.909 19.0362C160.798 17.4606 162.015 16.2351 163.564 15.3598C165.113 14.4594 166.89 14.0093 168.896 14.0093C170.876 14.0093 172.577 14.4469 173.998 15.3223C175.42 16.1726 176.498 17.3605 177.234 18.8861C177.996 20.3866 178.377 22.1248 178.377 24.1005C178.377 24.5757 178.213 24.9759 177.883 25.301C177.552 25.6011 177.133 25.7512 176.626 25.7512H161.279V22.75H176.512L174.951 23.8004C174.925 22.5499 174.671 21.437 174.189 20.4616C173.706 19.4614 173.021 18.6735 172.133 18.0983C171.243 17.5231 170.165 17.2355 168.896 17.2355C167.448 17.2355 166.205 17.5481 165.163 18.1733C164.148 18.7985 163.375 19.6614 162.84 20.7618C162.307 21.8372 162.041 23.0626 162.041 24.4382C162.041 25.8137 162.359 27.0392 162.994 28.1145C163.628 29.1899 164.504 30.0403 165.621 30.6655C166.738 31.2907 168.02 31.6033 169.467 31.6033C170.254 31.6033 171.053 31.4658 171.866 31.1907C172.703 30.8906 173.376 30.5529 173.883 30.1779C174.264 29.9026 174.671 29.7652 175.103 29.7652C175.559 29.7401 175.953 29.8651 176.283 30.1404C176.715 30.5154 176.944 30.9281 176.968 31.3782C176.993 31.8284 176.79 32.2161 176.36 32.5411C175.496 33.2165 174.418 33.7666 173.122 34.1918C171.853 34.617 170.635 34.8295 169.467 34.8295Z" fill="black"/>
<path d="M190.912 34.8295C189.136 34.8295 187.486 34.567 185.962 34.0417C184.465 33.4916 183.296 32.8038 182.458 31.9785C182.079 31.5784 181.913 31.1282 181.964 30.628C182.039 30.1028 182.294 29.6777 182.726 29.3525C183.233 28.9524 183.728 28.7898 184.21 28.8649C184.717 28.9148 185.149 29.1273 185.505 29.5025C185.937 29.9777 186.622 30.4279 187.561 30.8531C188.526 31.2532 189.592 31.4532 190.76 31.4532C192.232 31.4532 193.349 31.2156 194.111 30.7405C194.898 30.2654 195.304 29.6526 195.33 28.9024C195.356 28.152 194.987 27.5019 194.225 26.9515C193.489 26.4014 192.131 25.9513 190.15 25.6011C187.587 25.1009 185.721 24.3506 184.553 23.3503C183.411 22.3499 182.839 21.1244 182.839 19.6739C182.839 18.3984 183.22 17.348 183.981 16.5227C184.743 15.6724 185.721 15.0472 186.914 14.647C188.107 14.2219 189.351 14.0093 190.645 14.0093C192.321 14.0093 193.807 14.2719 195.101 14.7971C196.396 15.3223 197.424 16.0475 198.186 16.9729C198.541 17.373 198.707 17.7982 198.681 18.2484C198.655 18.6735 198.44 19.0362 198.034 19.3362C197.627 19.6113 197.145 19.699 196.587 19.5989C196.029 19.4988 195.559 19.2738 195.178 18.9237C194.543 18.3234 193.858 17.9107 193.122 17.6856C192.384 17.4606 191.535 17.348 190.57 17.348C189.453 17.348 188.5 17.5356 187.713 17.9107C186.951 18.2859 186.572 18.836 186.572 19.5613C186.572 20.0116 186.685 20.4241 186.914 20.7993C187.168 21.1494 187.65 21.4745 188.36 21.7747C189.072 22.0497 190.113 22.3248 191.484 22.5999C193.388 22.9751 194.886 23.4503 195.977 24.0255C197.094 24.6007 197.894 25.2759 198.375 26.0512C198.859 26.8016 199.099 27.6769 199.099 28.6773C199.099 29.8277 198.782 30.8655 198.148 31.7909C197.538 32.7163 196.625 33.454 195.405 34.0042C194.213 34.5544 192.715 34.8295 190.912 34.8295Z" fill="black"/>
<path d="M211.587 34.8295C209.809 34.8295 208.16 34.567 206.636 34.0417C205.138 33.4916 203.97 32.8038 203.133 31.9785C202.752 31.5784 202.587 31.1282 202.638 30.628C202.713 30.1028 202.968 29.6777 203.4 29.3525C203.907 28.9524 204.402 28.7898 204.884 28.8649C205.393 28.9148 205.823 29.1273 206.179 29.5025C206.611 29.9777 207.297 30.4279 208.236 30.8531C209.2 31.2532 210.267 31.4532 211.434 31.4532C212.907 31.4532 214.024 31.2156 214.786 30.7405C215.572 30.2654 215.978 29.6526 216.004 28.9024C216.029 28.152 215.661 27.5019 214.899 26.9515C214.163 26.4014 212.805 25.9513 210.826 25.6011C208.26 25.1009 206.395 24.3506 205.227 23.3503C204.085 22.3499 203.514 21.1244 203.514 19.6739C203.514 18.3984 203.895 17.348 204.657 16.5227C205.418 15.6724 206.395 15.0472 207.588 14.647C208.781 14.2219 210.025 14.0093 211.321 14.0093C212.996 14.0093 214.48 14.2719 215.775 14.7971C217.07 15.3223 218.098 16.0475 218.86 16.9729C219.215 17.373 219.38 17.7982 219.355 18.2484C219.329 18.6735 219.114 19.0362 218.707 19.3362C218.301 19.6113 217.819 19.699 217.261 19.5989C216.702 19.4988 216.233 19.2738 215.852 18.9237C215.217 18.3234 214.532 17.9107 213.796 17.6856C213.059 17.4606 212.209 17.348 211.244 17.348C210.127 17.348 209.174 17.5356 208.388 17.9107C207.627 18.2859 207.246 18.836 207.246 19.5613C207.246 20.0116 207.36 20.4241 207.588 20.7993C207.842 21.1494 208.325 21.4745 209.036 21.7747C209.746 22.0497 210.786 22.3248 212.158 22.5999C214.062 22.9751 215.56 23.4503 216.651 24.0255C217.768 24.6007 218.567 25.2759 219.051 26.0512C219.532 26.8016 219.773 27.6769 219.773 28.6773C219.773 29.8277 219.457 30.8655 218.822 31.7909C218.212 32.7163 217.298 33.454 216.081 34.0042C214.887 34.5544 213.389 34.8295 211.587 34.8295Z" fill="black"/>
</mask>
<g mask="url(#mask0_962_49706)">
<path d="M61.6166 5.94412L61.7943 6.13167L61.8007 6.12543L61.6166 5.94412ZM81.6466 5.9066L81.4625 6.08804L81.4696 6.09449L81.6466 5.9066ZM65.0057 8.98274V8.72634H64.7454V8.98274H65.0057ZM65.0057 18.0986H64.7454V18.355H65.0057V18.0986ZM77.3436 18.6238L77.1595 18.8052L77.1666 18.8117L77.3436 18.6238ZM77.3436 21.2124L77.5209 21.4003L77.5277 21.3936L77.3436 21.2124ZM65.0057 21.7V21.4436H64.7454V21.7H65.0057ZM86.4447 33.517L86.317 33.7404L86.3213 33.7427L86.4447 33.517ZM82.5987 29.8405L82.3726 29.9678L82.3752 29.9719L82.5987 29.8405ZM86.1781 15.3601L86.3077 15.5825L86.3104 15.5809L86.1781 15.3601ZM96.6121 15.3226L96.4742 15.5401L96.477 15.5418L96.6121 15.3226ZM99.8488 18.8865L99.6137 18.9965L99.6161 19.0011L99.8488 18.8865ZM100.496 25.3013L100.673 25.4898L100.68 25.4827L100.496 25.3013ZM83.8933 25.7516H83.633V26.008H83.8933V25.7516ZM83.8933 22.7503V22.4939H83.633V22.7503H83.8933ZM99.1254 22.7503L99.2721 22.9621L99.9679 22.4939H99.1254V22.7503ZM97.564 23.8007L97.3039 23.8059L97.3135 24.2799L97.7108 24.0125L97.564 23.8007ZM96.8025 20.462L96.5674 20.572L96.5686 20.5744L96.8025 20.462ZM87.7775 18.1737L87.6421 17.9547L87.6396 17.9562L87.7775 18.1737ZM85.4546 20.7621L85.6886 20.8747L85.6895 20.8726L85.4546 20.7621ZM94.4796 31.1911L94.5642 31.4335L94.5686 31.4321L94.4796 31.1911ZM96.4978 30.1782L96.344 29.9713L96.3417 29.973L96.4978 30.1782ZM97.7164 29.7655V30.0224L97.7308 30.0215L97.7164 29.7655ZM98.8969 30.1407L99.0691 29.9484L99.065 29.9449L98.8969 30.1407ZM98.973 32.5415L98.815 32.3379L98.8112 32.3407L98.973 32.5415ZM95.7363 34.1922L95.6539 33.9489L95.6524 33.9494L95.7363 34.1922ZM108.895 33.4794L108.755 33.6955L108.758 33.6973L108.895 33.4794ZM105.392 29.7655L105.161 29.8844L105.164 29.8887L105.392 29.7655ZM105.506 19.1116L105.282 18.9817L105.28 18.9844L105.506 19.1116ZM119.977 15.3976L119.843 15.6178L119.846 15.6194L119.977 15.3976ZM123.708 19.1116L123.482 19.2387L123.484 19.2414L123.708 19.1116ZM123.632 24.4385V24.1821H123.372V24.4385H123.632ZM122.338 29.7655L122.108 29.6438L122.108 29.6451L122.338 29.7655ZM118.872 33.4794L119.01 33.6973L119.012 33.6955L118.872 33.4794ZM118.111 30.5533L118.245 30.7732L118.249 30.7707L118.111 30.5533ZM120.51 28.0398L120.738 28.163L120.739 28.1608L120.51 28.0398ZM120.51 20.8372L120.28 20.958L120.281 20.9603L120.51 20.8372ZM118.111 18.3237L117.973 18.5412L117.977 18.5436L118.111 18.3237ZM111.18 18.3237L111.314 18.5436L111.316 18.5426L111.18 18.3237ZM108.743 20.8372L108.516 20.7122L108.515 20.7139L108.743 20.8372ZM108.743 28.0398L108.513 28.1608L108.517 28.167L108.743 28.0398ZM111.18 30.5533L111.042 30.7708L111.049 30.7745L111.18 30.5533ZM121.766 34.1922L121.576 34.3674L121.589 34.3796L121.766 34.1922ZM121.233 27.0644L120.977 27.0192L120.973 27.0417V27.0644H121.233ZM121.957 23.088L122.06 22.8528L121.759 22.7238L121.7 23.0428L121.957 23.088ZM132.764 21.85H132.504V22.1064H132.764V21.85ZM133.868 17.8361L133.648 17.7002L133.647 17.7014L133.868 17.8361ZM144.493 14.6849L144.345 14.8961L144.353 14.9015L144.493 14.6849ZM145.368 16.4105L145.116 16.3461L145.114 16.3568L145.368 16.4105ZM144.911 17.2358L145.083 17.4288L145.084 17.4275L144.911 17.2358ZM143.274 17.5359L143.333 17.286L143.326 17.2847L143.274 17.5359ZM135.81 18.999L135.626 18.8177L135.623 18.8208L135.81 18.999ZM134.706 21.85V22.1064H134.966V21.85H134.706ZM131.393 34.2297L131.209 34.411L131.216 34.418L131.393 34.2297ZM134.211 14.6474L134.019 14.8218L134.034 14.8358L134.211 14.6474ZM134.211 34.1922L134.027 34.0106L134.02 34.0182L134.211 34.1922ZM149.379 31.341L149.143 31.4467V31.4488L149.379 31.341ZM156.538 31.4536L156.341 31.6205L156.347 31.6281L156.538 31.4536ZM163.832 33.517L163.704 33.7404L163.708 33.7427L163.832 33.517ZM159.986 29.8405L159.76 29.9678L159.763 29.9719L159.986 29.8405ZM163.565 15.3601L163.695 15.5825L163.698 15.5809L163.565 15.3601ZM173.999 15.3226L173.862 15.5401L173.865 15.5418L173.999 15.3226ZM177.235 18.8865L177 18.9965L177.003 19.0011L177.235 18.8865ZM177.884 25.3013L178.06 25.4898L178.068 25.4827L177.884 25.3013ZM161.28 25.7516H161.02V26.008H161.28V25.7516ZM161.28 22.7503V22.4939H161.02V22.7503H161.28ZM176.513 22.7503L176.659 22.9621L177.356 22.4939H176.513V22.7503ZM174.952 23.8007L174.691 23.8059L174.7 24.2799L175.098 24.0125L174.952 23.8007ZM174.19 20.462L173.955 20.572V20.5744L174.19 20.462ZM165.164 18.1737L165.028 17.9547L165.027 17.9562L165.164 18.1737ZM162.841 20.7621L163.076 20.8747V20.8726L162.841 20.7621ZM171.867 31.1911L171.952 31.4335L171.956 31.4321L171.867 31.1911ZM173.884 30.1782L173.731 29.9713L173.729 29.973L173.884 30.1782ZM175.104 29.7655V30.0224L175.117 30.0215L175.104 29.7655ZM176.284 30.1407L176.456 29.9484L176.453 29.9449L176.284 30.1407ZM176.361 32.5415L176.203 32.3379L176.198 32.3407L176.361 32.5415ZM173.123 34.1922L173.041 33.9489L173.04 33.9494L173.123 34.1922ZM185.96 34.0421L185.868 34.2823L185.874 34.2841L185.96 34.0421ZM182.456 31.9788L182.266 32.1543L182.272 32.1602L182.456 31.9788ZM181.962 30.6283L181.703 30.592V30.6028L181.962 30.6283ZM182.724 29.3528L182.882 29.5566L182.886 29.553L182.724 29.3528ZM184.208 28.8652L184.167 29.1188L184.182 29.1203L184.208 28.8652ZM185.503 29.5029L185.697 29.3319L185.694 29.3279L185.503 29.5029ZM187.559 30.8534L187.451 31.0865L187.458 31.0896L187.559 30.8534ZM194.109 30.7408L193.973 30.5223L193.97 30.5242L194.109 30.7408ZM194.223 26.9519L194.066 27.1562L194.069 27.1587L194.223 26.9519ZM190.148 25.6015L190.098 25.853L190.103 25.8537L190.148 25.6015ZM184.551 23.3506L184.378 23.5422L184.38 23.544L184.551 23.3506ZM183.979 16.5231L184.172 16.6955L184.175 16.6927L183.979 16.5231ZM186.912 14.6474L186.996 14.8901L187 14.8885L186.912 14.6474ZM198.184 16.9732L197.982 17.1348L197.988 17.1421L198.184 16.9732ZM198.032 19.3366L198.179 19.548L198.188 19.5418L198.032 19.3366ZM195.176 18.924L194.995 19.1089L194.998 19.1114L195.176 18.924ZM187.711 17.9111L187.598 17.6803L187.595 17.6817L187.711 17.9111ZM186.912 20.7997L186.687 20.9319L186.699 20.9487L186.912 20.7997ZM188.358 21.775L188.256 22.0108L188.263 22.0136L188.358 21.775ZM195.975 24.0258L195.852 24.252L195.855 24.253L195.975 24.0258ZM198.373 26.0516L198.152 26.1856L198.153 26.1887L198.373 26.0516ZM198.146 31.7912L197.929 31.6477L197.928 31.6517L198.146 31.7912ZM195.403 34.0046L195.295 33.7714L195.293 33.7723L195.403 34.0046ZM206.636 34.0421L206.546 34.2823L206.55 34.2841L206.636 34.0421ZM203.133 31.9788L202.943 32.1543L202.948 32.1602L203.133 31.9788ZM202.638 30.6283L202.38 30.592L202.379 30.6028L202.638 30.6283ZM203.4 29.3528L203.558 29.5566L203.562 29.553L203.4 29.3528ZM204.884 28.8652L204.843 29.1188L204.858 29.1203L204.884 28.8652ZM206.178 29.5029L206.373 29.3319L206.37 29.3279L206.178 29.5029ZM208.236 30.8534L208.126 31.0865L208.134 31.0896L208.236 30.8534ZM214.786 30.7408L214.649 30.5223L214.646 30.5242L214.786 30.7408ZM214.899 26.9519L214.742 27.1562L214.745 27.1587L214.899 26.9519ZM210.825 25.6015L210.774 25.853L210.779 25.8537L210.825 25.6015ZM205.227 23.3506L205.054 23.5422L205.057 23.544L205.227 23.3506ZM204.657 16.5231L204.849 16.6955L204.851 16.6927L204.657 16.5231ZM207.587 14.6474L207.672 14.8901L207.676 14.8885L207.587 14.6474ZM218.859 16.9732L218.658 17.1348L218.664 17.1421L218.859 16.9732ZM218.707 19.3366L218.855 19.548L218.864 19.5418L218.707 19.3366ZM215.852 18.924L215.671 19.1089L215.674 19.1114L215.852 18.924ZM208.388 17.9111L208.274 17.6803L208.271 17.6817L208.388 17.9111ZM207.587 20.7997L207.365 20.9319L207.377 20.9487L207.587 20.7997ZM209.036 21.775L208.933 22.0108L208.941 22.0136L209.036 21.775ZM216.651 24.0258L216.529 24.252L216.531 24.253L216.651 24.0258ZM219.051 26.0516L218.828 26.1856L218.831 26.1887L219.051 26.0516ZM218.822 31.7912L218.606 31.6477L218.603 31.6517L218.822 31.7912ZM216.081 34.0046L215.972 33.7714L215.969 33.7723L216.081 34.0046ZM63.0256 34.4233C62.5332 34.4233 62.1306 34.261 61.8007 33.9357L61.4326 34.2985C61.8642 34.7236 62.4008 34.9362 63.0256 34.9362V34.4233ZM61.8007 33.9357C61.4707 33.6107 61.3057 33.2141 61.3057 32.7291H60.7852C60.7852 33.3445 61.001 33.8732 61.4326 34.2985L61.8007 33.9357ZM61.3057 32.7291V7.33213H60.7852V32.7291H61.3057ZM61.3057 7.33213C61.3057 6.81849 61.4729 6.42718 61.7943 6.13167L61.4389 5.75667C60.9988 6.16142 60.7852 6.69534 60.7852 7.33213H61.3057ZM61.8007 6.12543C62.1306 5.80033 62.5332 5.63781 63.0256 5.63781V5.125C62.4008 5.125 61.8642 5.33763 61.4326 5.76281L61.8007 6.12543ZM63.0256 5.63781H80.2377V5.125H63.0256V5.63781ZM80.2377 5.63781C80.7646 5.63781 81.1638 5.7938 81.4625 6.08804L81.8307 5.72529C81.4185 5.31929 80.8786 5.125 80.2377 5.125V5.63781ZM81.4696 6.09449C81.7637 6.36359 81.9195 6.72883 81.9195 7.21959H82.4401C82.4401 6.60994 82.2404 6.09986 81.8238 5.71871L81.4696 6.09449ZM81.9195 7.21959C81.9195 7.68135 81.7664 8.03568 81.4696 8.30718L81.8238 8.68296C82.2377 8.30423 82.4401 7.80822 82.4401 7.21959H81.9195ZM81.4696 8.30718C81.1718 8.5796 80.77 8.72634 80.2377 8.72634V9.23916C80.8731 9.23916 81.4107 9.06077 81.8238 8.68296L81.4696 8.30718ZM80.2377 8.72634H65.0057V9.23916H80.2377V8.72634ZM64.7454 8.98274V18.0986H65.2659V8.98274H64.7454ZM65.0057 18.355H75.9347V17.8422H65.0057V18.355ZM75.9347 18.355C76.4616 18.355 76.8607 18.5109 77.1595 18.8052L77.5277 18.4425C77.1155 18.0365 76.5756 17.8422 75.9347 17.8422V18.355ZM77.1666 18.8117C77.4633 19.0833 77.6165 19.4375 77.6165 19.8993H78.137C78.137 19.3108 77.9347 18.8147 77.5208 18.4359L77.1666 18.8117ZM77.6165 19.8993C77.6165 20.3611 77.463 20.732 77.1596 21.031L77.5277 21.3936C77.935 20.9923 78.137 20.4879 78.137 19.8993H77.6165ZM77.1666 21.0245C76.8686 21.2969 76.467 21.4436 75.9347 21.4436V21.9564C76.5701 21.9564 77.1078 21.778 77.5209 21.4003L77.1666 21.0245ZM75.9347 21.4436H65.0057V21.9564H75.9347V21.4436ZM64.7454 21.7V32.7291H65.2659V21.7H64.7454ZM64.7454 32.7291C64.7454 33.2141 64.5804 33.6107 64.2504 33.9357L64.6185 34.2985C65.0501 33.8732 65.2659 33.3445 65.2659 32.7291H64.7454ZM64.2504 33.9357C63.9205 34.261 63.5179 34.4233 63.0256 34.4233V34.9362C63.6503 34.9362 64.1869 34.7236 64.6185 34.2985L64.2504 33.9357ZM92.0805 34.5734C90.0112 34.5734 88.1758 34.144 86.5681 33.2911L86.3213 33.7427C88.0139 34.6404 89.9359 35.0862 92.0805 35.0862V34.5734ZM86.5724 33.2935C84.9865 32.4147 83.7378 31.2206 82.8221 29.7091L82.3752 29.9719C83.3381 31.5615 84.6535 32.8186 86.317 33.7404L86.5724 33.2935ZM82.8247 29.7133C81.9358 28.1808 81.4881 26.425 81.4881 24.4385H80.9675C80.9675 26.5036 81.4337 28.349 82.3726 29.9678L82.8247 29.7133ZM81.4881 24.4385C81.4881 22.4239 81.9117 20.6669 82.7508 19.1598L82.2949 18.912C81.4075 20.506 80.9675 22.3516 80.9675 24.4385H81.4881ZM82.7508 19.1598C83.6169 17.624 84.8013 16.434 86.3077 15.5825L86.0486 15.1377C84.458 16.0369 83.206 17.2966 82.2949 18.912L82.7508 19.1598ZM86.3104 15.5809C87.8144 14.7065 89.5448 14.266 91.5094 14.266V13.7532C89.4628 13.7532 87.639 14.2131 86.0459 15.1393L86.3104 15.5809ZM91.5094 14.266C93.4496 14.266 95.1008 14.6945 96.4742 15.5401L96.7501 15.1052C95.28 14.2001 93.5293 13.7532 91.5094 13.7532V14.266ZM96.477 15.5418C97.8538 16.3653 98.8985 17.5147 99.6137 18.9965L100.084 18.7763C99.3266 17.2071 98.2136 15.9806 96.7471 15.1034L96.477 15.5418ZM99.6161 19.0011C100.357 20.4602 100.731 22.1579 100.731 24.1009H101.252C101.252 22.0924 100.864 20.3137 100.082 18.7717L99.6161 19.0011ZM100.731 24.1009C100.731 24.5106 100.592 24.8447 100.312 25.12L100.68 25.4827C101.061 25.1077 101.252 24.6416 101.252 24.1009H100.731ZM100.32 25.1129C100.044 25.3635 99.6911 25.4952 99.2396 25.4952V26.008C99.8035 26.008 100.288 25.8395 100.673 25.4898L100.32 25.1129ZM99.2396 25.4952H83.8933V26.008H99.2396V25.4952ZM84.1536 25.7516V22.7503H83.633V25.7516H84.1536ZM83.8933 23.0067H99.1254V22.4939H83.8933V23.0067ZM98.9786 22.5386L97.4173 23.589L97.7108 24.0125L99.2721 22.9621L98.9786 22.5386ZM97.8243 23.7957C97.7983 22.5137 97.5377 21.3633 97.0364 20.3497L96.5686 20.5744C97.0319 21.5115 97.2791 22.5869 97.3039 23.8059L97.8243 23.7957ZM97.0376 20.3519C96.536 19.3118 95.8198 18.4869 94.8891 17.8844L94.6032 18.3129C95.4496 18.8608 96.1043 19.6115 96.5674 20.572L97.0376 20.3519ZM94.8891 17.8844C93.9505 17.2767 92.8195 16.9794 91.5094 16.9794V17.4922C92.7379 17.4922 93.7649 17.7701 94.6032 18.3129L94.8891 17.8844ZM91.5094 16.9794C90.0235 16.9794 88.7307 17.3007 87.6421 17.9547L87.913 18.3926C88.9059 17.7961 90.1012 17.4922 91.5094 17.4922V16.9794ZM87.6396 17.9562C86.5806 18.6083 85.7735 19.5089 85.2198 20.6517L85.6895 20.8726C86.202 19.8147 86.9434 18.9895 87.9154 18.3911L87.6396 17.9562ZM85.2207 20.6496C84.6678 21.7649 84.3947 23.0299 84.3947 24.4385H84.9153C84.9153 23.0962 85.1753 21.9101 85.6886 20.8747L85.2207 20.6496ZM84.3947 24.4385C84.3947 25.8543 84.7218 27.1252 85.3819 28.2437L85.832 27.9859C85.2228 26.9538 84.9153 25.7737 84.9153 24.4385H84.3947ZM85.3819 28.2437C86.0402 29.359 86.9496 30.2415 88.1058 30.8887L88.3631 30.4429C87.2853 29.8397 86.4431 29.0215 85.832 27.9859L85.3819 28.2437ZM88.1058 30.8887C89.2669 31.5385 90.5943 31.86 92.0805 31.86V31.3472C90.6728 31.3472 89.4361 31.0435 88.3631 30.4429L88.1058 30.8887ZM92.0805 31.86C92.8988 31.86 93.7271 31.7169 94.5642 31.4335L94.395 30.9486C93.6074 31.2152 92.8362 31.3472 92.0805 31.3472V31.86ZM94.5686 31.4321C95.4215 31.1264 96.1194 30.7782 96.6541 30.3833L96.3417 29.973C95.8609 30.3283 95.2133 30.6554 94.3906 30.9501L94.5686 31.4321ZM96.6518 30.3849C96.9923 30.1389 97.3455 30.0224 97.7164 30.0224V29.5091C97.2243 29.5091 96.765 29.6672 96.344 29.9713L96.6518 30.3849ZM97.7308 30.0215C98.1257 30 98.4526 30.1063 98.7287 30.3363L99.065 29.9449C98.681 29.6248 98.2211 29.4811 97.7019 29.5095L97.7308 30.0215ZM98.7247 30.3329C99.1183 30.675 99.3018 31.0278 99.3224 31.3928L99.8422 31.3644C99.812 30.8291 99.5387 30.3566 99.0691 29.9484L98.7247 30.3329ZM99.3224 31.3928C99.3421 31.7416 99.1928 32.0533 98.815 32.3379L99.1311 32.7452C99.6164 32.3797 99.8734 31.9159 99.8422 31.3644L99.3224 31.3928ZM98.8112 32.3407C97.9768 32.9935 96.9264 33.531 95.6539 33.9489L95.8186 34.4354C97.1355 34.0029 98.2431 33.44 99.1349 32.7423L98.8112 32.3407ZM95.6524 33.9494C94.4061 34.3668 93.216 34.5734 92.0805 34.5734V35.0862C93.2808 35.0862 94.5263 34.8682 95.8186 34.4354L95.6524 33.9494ZM113.884 34.5734C112.075 34.5734 110.461 34.1349 109.032 33.2616L108.758 33.6973C110.275 34.6246 111.985 35.0862 113.884 35.0862V34.5734ZM109.035 33.2632C107.601 32.3617 106.463 31.1561 105.62 29.6423L105.164 29.8887C106.047 31.4761 107.245 32.7464 108.755 33.6955L109.035 33.2632ZM105.622 29.6466C104.806 28.1116 104.396 26.3775 104.396 24.4385H103.875C103.875 26.4511 104.302 28.2683 105.161 29.8844L105.622 29.6466ZM104.396 24.4385C104.396 22.5033 104.843 20.7722 105.732 19.2387L105.28 18.9844C104.342 20.602 103.875 22.4222 103.875 24.4385H104.396ZM105.73 19.2414C106.648 17.7031 107.872 16.4971 109.407 15.6194L109.145 15.1759C107.532 16.0988 106.243 17.3688 105.282 18.9817L105.73 19.2414ZM109.407 15.6194C110.963 14.7187 112.708 14.266 114.645 14.266V13.7532C112.622 13.7532 110.787 14.2258 109.145 15.1759L109.407 15.6194ZM114.645 14.266C116.582 14.266 118.313 14.7181 119.843 15.6178L120.11 15.1775C118.492 14.2265 116.669 13.7532 114.645 13.7532V14.266ZM119.846 15.6194C121.38 16.4967 122.591 17.7019 123.482 19.2387L123.934 18.9844C122.998 17.37 121.721 16.0992 120.107 15.1759L119.846 15.6194ZM123.484 19.2414C124.398 20.7744 124.857 22.5046 124.857 24.4385H125.378C125.378 22.421 124.898 20.5997 123.933 18.9817L123.484 19.2414ZM125.117 24.1821H123.632V24.695H125.117V24.1821ZM123.372 24.4385C123.372 26.3762 122.949 28.1093 122.108 29.6438L122.567 29.8873C123.452 28.2705 123.892 26.4523 123.892 24.4385H123.372ZM122.108 29.6451C121.291 31.1574 120.166 32.3622 118.732 33.2632L119.012 33.6955C120.523 32.746 121.709 31.4746 122.567 29.8859L122.108 29.6451ZM118.735 33.2616C117.307 34.1349 115.692 34.5734 113.884 34.5734V35.0862C115.782 35.0862 117.493 34.6246 119.01 33.6973L118.735 33.2616ZM114.645 31.71C115.983 31.71 117.185 31.3994 118.245 30.7732L117.977 30.3335C117.005 30.9075 115.897 31.1972 114.645 31.1972V31.71ZM118.249 30.7707C119.302 30.1219 120.133 29.2514 120.738 28.163L120.281 27.9167C119.719 28.9291 118.95 29.7342 117.973 30.3358L118.249 30.7707ZM120.739 28.1608C121.345 27.045 121.646 25.8024 121.646 24.4385H121.125C121.125 25.7256 120.842 26.884 120.28 27.9189L120.739 28.1608ZM121.646 24.4385C121.646 23.0505 121.345 21.8067 120.738 20.7139L120.281 20.9603C120.842 21.9684 121.125 23.1255 121.125 24.4385H121.646ZM120.739 20.7162C120.134 19.6019 119.302 18.729 118.245 18.1039L117.977 18.5436C118.95 19.1189 119.717 19.9216 120.28 20.958L120.739 20.7162ZM118.249 18.1063C117.188 17.4535 115.985 17.1295 114.645 17.1295V17.6423C115.895 17.6423 117.002 17.9436 117.973 18.5412L118.249 18.1063ZM114.645 17.1295C113.33 17.1295 112.128 17.454 111.044 18.1048L111.316 18.5426C112.314 17.943 113.422 17.6423 114.645 17.6423V17.1295ZM111.046 18.1039C109.989 18.7284 109.146 19.5999 108.516 20.7122L108.97 20.9622C109.559 19.9237 110.34 19.1195 111.314 18.5436L111.046 18.1039ZM108.515 20.7139C107.907 21.8067 107.607 23.0505 107.607 24.4385H108.127C108.127 23.1255 108.411 21.9684 108.971 20.9603L108.515 20.7139ZM107.607 24.4385C107.607 25.8024 107.908 27.045 108.513 28.1608L108.972 27.9189C108.41 26.884 108.127 25.7256 108.127 24.4385H107.607ZM108.517 28.167C109.147 29.2533 109.989 30.1226 111.042 30.7708L111.318 30.3358C110.34 29.7336 109.557 28.9272 108.969 27.9127L108.517 28.167ZM111.049 30.7745C112.131 31.399 113.332 31.71 114.645 31.71V31.1972C113.42 31.1972 112.31 30.908 111.312 30.332L111.049 30.7745ZM123.175 34.4609C122.677 34.4609 122.273 34.3071 121.944 34.0047L121.589 34.3796C122.021 34.7775 122.556 34.9737 123.175 34.9737V34.4609ZM121.957 34.0172C121.65 33.6931 121.493 33.2945 121.493 32.8041H120.973C120.973 33.4142 121.172 33.9411 121.576 34.3674L121.957 34.0172ZM121.493 32.8041V27.0644H120.973V32.8041H121.493ZM121.489 27.1097L122.213 23.1332L121.7 23.0428L120.977 27.0192L121.489 27.1097ZM121.853 23.3232L125.014 24.6737L125.221 24.2032L122.06 22.8528L121.853 23.3232ZM124.857 24.4385V32.8041H125.378V24.4385H124.857ZM124.857 32.8041C124.857 33.2892 124.692 33.6857 124.362 34.0108L124.73 34.3735C125.162 33.9482 125.378 33.4195 125.378 32.8041H124.857ZM124.362 34.0108C124.061 34.3074 123.673 34.4609 123.175 34.4609V34.9737C123.794 34.9737 124.32 34.7772 124.73 34.3735L124.362 34.0108ZM133.024 21.85C133.024 20.3927 133.381 19.1021 134.09 17.9707L133.647 17.7014C132.883 18.9207 132.504 20.3061 132.504 21.85H133.024ZM134.09 17.9707C134.828 16.8073 135.81 15.8882 137.042 15.2087L136.787 14.7613C135.481 15.4823 134.433 16.4627 133.648 17.7002L134.09 17.9707ZM137.042 15.2087C138.27 14.5309 139.623 14.191 141.103 14.191V13.6782C139.538 13.6782 138.098 14.0386 136.787 14.7613L137.042 15.2087ZM141.103 14.191C142.607 14.191 143.673 14.4397 144.345 14.8961L144.64 14.4738C143.84 13.9298 142.646 13.6782 141.103 13.6782V14.191ZM144.353 14.9015C144.709 15.1232 144.932 15.3544 145.05 15.5873C145.165 15.8146 145.191 16.063 145.116 16.3461L145.62 16.4749C145.724 16.0827 145.692 15.7059 145.516 15.358C145.342 15.0157 145.038 14.7217 144.632 14.4683L144.353 14.9015ZM145.114 16.3568C145.047 16.6639 144.918 16.8868 144.738 17.0442L145.084 17.4275C145.362 17.1847 145.537 16.8574 145.623 16.4642L145.114 16.3568ZM144.74 17.0429C144.574 17.1858 144.377 17.279 144.141 17.3212L144.234 17.8257C144.558 17.7678 144.842 17.636 145.083 17.4288L144.74 17.0429ZM144.141 17.3212C143.903 17.3639 143.635 17.3547 143.333 17.286L143.216 17.7858C143.573 17.8671 143.914 17.8831 144.234 17.8257L144.141 17.3212ZM143.326 17.2847C141.675 16.9542 140.177 16.9261 138.84 17.2103L138.95 17.7115C140.202 17.4455 141.624 17.4674 143.222 17.7872L143.326 17.2847ZM138.84 17.2103C137.508 17.4934 136.431 18.0253 135.626 18.8177L135.994 19.1803C136.713 18.4721 137.693 17.9787 138.95 17.7115L138.84 17.2103ZM135.623 18.8208C134.835 19.624 134.446 20.6405 134.446 21.85H134.966C134.966 20.7587 135.313 19.8746 135.997 19.1771L135.623 18.8208ZM134.706 21.5936H132.764V22.1064H134.706V21.5936ZM132.802 34.4233C132.235 34.4233 131.837 34.2841 131.57 34.0412L131.216 34.418C131.61 34.7755 132.151 34.9362 132.802 34.9362V34.4233ZM131.577 34.0483C131.311 33.7866 131.158 33.3865 131.158 32.8041H130.638C130.638 33.4723 130.815 34.0226 131.209 34.411L131.577 34.0483ZM131.158 32.8041V16.0354H130.638V32.8041H131.158ZM131.158 16.0354C131.158 15.4815 131.31 15.0923 131.577 14.8287L131.209 14.466C130.817 14.8526 130.638 15.3888 130.638 16.0354H131.158ZM131.577 14.8287C131.845 14.565 132.24 14.4161 132.802 14.4161V13.9033C132.146 13.9033 131.601 14.0795 131.209 14.466L131.577 14.8287ZM132.802 14.4161C133.395 14.4161 133.781 14.568 134.019 14.8218L134.402 14.4734C134.031 14.077 133.479 13.9033 132.802 13.9033V14.4161ZM134.034 14.8358C134.292 15.07 134.446 15.4514 134.446 16.0354H134.966C134.966 15.3689 134.79 14.8249 134.387 14.459L134.034 14.8358ZM134.446 16.0354V32.8041H134.966V16.0354H134.446ZM134.446 32.8041C134.446 33.358 134.294 33.747 134.027 34.0106L134.395 34.3735C134.787 33.9869 134.966 33.4507 134.966 32.8041H134.446ZM134.02 34.0182C133.782 34.2721 133.395 34.4233 132.802 34.4233V34.9362C133.479 34.9362 134.031 34.7625 134.402 34.3661L134.02 34.0182ZM154.368 34.4233C153.302 34.4233 152.364 34.1379 151.548 33.57L151.247 33.989C152.158 34.6215 153.2 34.9362 154.368 34.9362V34.4233ZM151.548 33.57C150.725 32.9979 150.08 32.2216 149.615 31.2333L149.143 31.4488C149.642 32.5114 150.344 33.3607 151.247 33.989L151.548 33.57ZM149.617 31.2354C149.152 30.2234 148.915 29.0599 148.915 27.7398H148.396C148.396 29.1206 148.643 30.3579 149.143 31.4467L149.617 31.2354ZM148.915 27.7398V7.2571H148.396V27.7398H148.915ZM148.915 7.2571C148.915 6.76663 149.072 6.3844 149.373 6.08791L149.004 5.72529C148.595 6.12907 148.396 6.64718 148.396 7.2571H148.915ZM149.373 6.08791C149.674 5.79142 150.062 5.63781 150.559 5.63781V5.125C149.94 5.125 149.415 5.32153 149.004 5.72529L149.373 6.08791ZM150.559 5.63781C151.057 5.63781 151.446 5.79142 151.747 6.08791L152.114 5.72529C151.705 5.32153 151.179 5.125 150.559 5.125V5.63781ZM151.747 6.08791C152.048 6.3844 152.203 6.76663 152.203 7.2571H152.724C152.724 6.64718 152.525 6.12907 152.114 5.72529L151.747 6.08791ZM152.203 7.2571V27.7398H152.724V7.2571H152.203ZM152.203 27.7398C152.203 28.6958 152.387 29.5069 152.772 30.1573L153.222 29.8988C152.895 29.3488 152.724 28.6343 152.724 27.7398H152.203ZM152.772 30.1573C153.16 30.8123 153.692 31.1848 154.368 31.1848V30.672C153.927 30.672 153.544 30.4444 153.222 29.8988L152.772 30.1573ZM154.368 31.1848H155.319V30.672H154.368V31.1848ZM155.319 31.1848C155.759 31.1848 156.09 31.3324 156.341 31.6205L156.736 31.2867C156.377 30.8746 155.896 30.672 155.319 30.672V31.1848ZM156.347 31.6281C156.626 31.9237 156.773 32.3082 156.773 32.8041H157.294C157.294 32.1996 157.11 31.6839 156.73 31.2792L156.347 31.6281ZM156.773 32.8041C156.773 33.2662 156.578 33.6423 156.156 33.9482L156.465 34.3611C157.008 33.9667 157.294 33.4425 157.294 32.8041H156.773ZM156.156 33.9482C155.729 34.258 155.166 34.4233 154.444 34.4233V34.9362C155.245 34.9362 155.926 34.7515 156.465 34.3611L156.156 33.9482ZM154.444 34.4233H154.368V34.9362H154.444V34.4233ZM169.468 34.5734C167.398 34.5734 165.563 34.144 163.955 33.2911L163.708 33.7427C165.4 34.6404 167.323 35.0862 169.468 35.0862V34.5734ZM163.96 33.2935C162.373 32.4147 161.125 31.2206 160.21 29.7091L159.763 29.9719C160.725 31.5615 162.04 32.8186 163.704 33.7404L163.96 33.2935ZM160.211 29.7133C159.323 28.1808 158.875 26.425 158.875 24.4385H158.355C158.355 26.5036 158.82 28.349 159.76 29.9678L160.211 29.7133ZM158.875 24.4385C158.875 22.4239 159.299 20.6669 160.138 19.1598L159.682 18.912C158.793 20.506 158.355 22.3516 158.355 24.4385H158.875ZM160.138 19.1598C161.003 17.624 162.188 16.434 163.695 15.5825L163.436 15.1377C161.845 16.0369 160.594 17.2966 159.682 18.912L160.138 19.1598ZM163.698 15.5809C165.202 14.7065 166.931 14.266 168.897 14.266V13.7532C166.85 13.7532 165.025 14.2131 163.433 15.1393L163.698 15.5809ZM168.897 14.266C170.836 14.266 172.487 14.6945 173.862 15.5401L174.137 15.1052C172.667 14.2001 170.916 13.7532 168.897 13.7532V14.266ZM173.865 15.5418C175.241 16.3653 176.285 17.5147 177 18.9965L177.472 18.7763C176.714 17.2071 175.6 15.9806 174.134 15.1034L173.865 15.5418ZM177.003 19.0011C177.744 20.4602 178.117 22.1579 178.117 24.1009H178.638C178.638 22.0924 178.251 20.3137 177.469 18.7717L177.003 19.0011ZM178.117 24.1009C178.117 24.5106 177.979 24.8447 177.699 25.12L178.068 25.4827C178.449 25.1077 178.638 24.6416 178.638 24.1009H178.117ZM177.706 25.1129C177.431 25.3635 177.079 25.4952 176.627 25.4952V26.008C177.19 26.008 177.675 25.8395 178.06 25.4898L177.706 25.1129ZM176.627 25.4952H161.28V26.008H176.627V25.4952ZM161.541 25.7516V22.7503H161.02V25.7516H161.541ZM161.28 23.0067H176.513V22.4939H161.28V23.0067ZM176.365 22.5386L174.804 23.589L175.098 24.0125L176.659 22.9621L176.365 22.5386ZM175.212 23.7957C175.185 22.5137 174.925 21.3633 174.423 20.3497L173.955 20.5744C174.419 21.5115 174.666 22.5869 174.691 23.8059L175.212 23.7957ZM174.425 20.3519C173.924 19.3118 173.207 18.4869 172.277 17.8844L171.991 18.3129C172.837 18.8608 173.492 19.6115 173.955 20.572L174.425 20.3519ZM172.277 17.8844C171.337 17.2767 170.207 16.9794 168.897 16.9794V17.4922C170.126 17.4922 171.152 17.7701 171.991 18.3129L172.277 17.8844ZM168.897 16.9794C167.41 16.9794 166.118 17.3007 165.028 17.9547L165.299 18.3926C166.293 17.7961 167.488 17.4922 168.897 17.4922V16.9794ZM165.027 17.9562C163.967 18.6083 163.16 19.5089 162.606 20.6517L163.076 20.8726C163.589 19.8147 164.33 18.9895 165.302 18.3911L165.027 17.9562ZM162.608 20.6496C162.055 21.7649 161.781 23.0299 161.781 24.4385H162.302C162.302 23.0962 162.563 21.9101 163.076 20.8747L162.608 20.6496ZM161.781 24.4385C161.781 25.8543 162.11 27.1252 162.769 28.2437L163.219 27.9859C162.609 26.9538 162.302 25.7737 162.302 24.4385H161.781ZM162.769 28.2437C163.427 29.359 164.336 30.2415 165.494 30.8887L165.75 30.4429C164.672 29.8397 163.83 29.0215 163.219 27.9859L162.769 28.2437ZM165.494 30.8887C166.654 31.5385 167.982 31.86 169.468 31.86V31.3472C168.06 31.3472 166.823 31.0435 165.75 30.4429L165.494 30.8887ZM169.468 31.86C170.287 31.86 171.115 31.7169 171.952 31.4335L171.781 30.9486C170.994 31.2152 170.223 31.3472 169.468 31.3472V31.86ZM171.956 31.4321C172.808 31.1264 173.507 30.7782 174.041 30.3833L173.729 29.973C173.248 30.3283 172.6 30.6554 171.778 30.9501L171.956 31.4321ZM174.039 30.3849C174.38 30.1389 174.732 30.0224 175.104 30.0224V29.5091C174.611 29.5091 174.152 29.6672 173.731 29.9713L174.039 30.3849ZM175.117 30.0215C175.513 30 175.84 30.1063 176.115 30.3363L176.453 29.9449C176.069 29.6248 175.608 29.4811 175.089 29.5095L175.117 30.0215ZM176.112 30.3329C176.505 30.675 176.689 31.0278 176.71 31.3928L177.229 31.3644C177.199 30.8291 176.925 30.3566 176.456 29.9484L176.112 30.3329ZM176.71 31.3928C176.729 31.7416 176.58 32.0533 176.203 32.3379L176.519 32.7452C177.003 32.3797 177.261 31.9159 177.229 31.3644L176.71 31.3928ZM176.198 32.3407C175.364 32.9935 174.313 33.531 173.041 33.9489L173.205 34.4354C174.523 34.0029 175.631 33.44 176.522 32.7423L176.198 32.3407ZM173.04 33.9494C171.793 34.3668 170.603 34.5734 169.468 34.5734V35.0862C170.667 35.0862 171.915 34.8678 173.207 34.4349L173.04 33.9494ZM190.91 34.5734C189.159 34.5734 187.539 34.3148 186.046 33.8001L185.874 34.2841C187.428 34.8197 189.106 35.0862 190.91 35.0862V34.5734ZM186.051 33.8018C184.577 33.2603 183.445 32.5894 182.641 31.7975L182.272 32.1602C183.144 33.0188 184.348 33.7235 185.868 34.2823L186.051 33.8018ZM182.647 31.8034C182.311 31.4518 182.177 31.0732 182.221 30.6538L181.703 30.6028C181.643 31.1838 181.84 31.7057 182.266 32.1543L182.647 31.8034ZM182.219 30.6646C182.286 30.2065 182.504 29.8413 182.882 29.5566L182.566 29.1492C182.079 29.5147 181.79 29.9995 181.703 30.592L182.219 30.6646ZM182.886 29.553C183.356 29.1823 183.779 29.0583 184.167 29.1188L184.249 28.6119C183.672 28.5222 183.106 28.7231 182.561 29.1526L182.886 29.553ZM184.182 29.1203C184.626 29.164 185 29.3472 185.313 29.6779L185.694 29.3279C185.296 28.9084 184.806 28.6663 184.234 28.61L184.182 29.1203ZM185.308 29.6739C185.775 30.1862 186.496 30.6544 187.451 31.0865L187.667 30.6204C186.745 30.2022 186.094 29.7698 185.697 29.3319L185.308 29.6739ZM187.458 31.0896C188.459 31.5046 189.559 31.71 190.758 31.71V31.1972C189.621 31.1972 188.59 31.0024 187.66 30.617L187.458 31.0896ZM190.758 31.71C192.251 31.71 193.427 31.4703 194.249 30.9575L193.97 30.5242C193.269 30.9618 192.209 31.1972 190.758 31.1972V31.71ZM194.246 30.9594C195.089 30.4502 195.558 29.7665 195.588 28.9112L195.068 28.8941C195.045 29.5393 194.703 30.0812 193.973 30.5223L194.246 30.9594ZM195.588 28.9112C195.617 28.0556 195.189 27.332 194.377 26.7452L194.069 27.1587C194.78 27.6724 195.089 28.249 195.068 28.8941L195.588 28.9112ZM194.381 26.7477C193.591 26.1576 192.179 25.6998 190.195 25.3491L190.103 25.8537C192.079 26.2033 193.383 26.6458 194.066 27.1562L194.381 26.7477ZM190.199 25.35C187.652 24.8532 185.84 24.1144 184.721 23.1571L184.38 23.544C185.599 24.5876 187.517 25.3494 190.098 25.853L190.199 25.35ZM184.724 23.1589C183.634 22.2052 183.097 21.0483 183.097 19.6742H182.578C182.578 21.2011 183.183 22.4953 184.378 23.5422L184.724 23.1589ZM183.097 19.6742C183.097 18.4527 183.46 17.4669 184.172 16.6955L183.787 16.3506C182.975 17.2299 182.578 18.3448 182.578 19.6742H183.097ZM184.175 16.6927C184.903 15.879 185.841 15.2773 186.996 14.8901L186.827 14.4046C185.596 14.8178 184.578 15.4665 183.785 16.3534L184.175 16.6927ZM187 14.8885C188.164 14.4736 189.379 14.266 190.643 14.266V13.7532C189.32 13.7532 188.045 13.9708 186.823 14.4062L187 14.8885ZM190.643 14.266C192.292 14.266 193.743 14.5243 195 15.0345L195.198 14.5603C193.866 14.0201 192.347 13.7532 190.643 13.7532V14.266ZM195 15.0345C196.261 15.546 197.252 16.2477 197.982 17.1348L198.385 16.8117C197.592 15.8482 196.526 15.0992 195.198 14.5603L195 15.0345ZM197.988 17.1421C198.307 17.5015 198.439 17.8631 198.418 18.2345L198.938 18.2638C198.968 17.7348 198.771 17.2453 198.379 16.8044L197.988 17.1421ZM198.418 18.2345C198.399 18.5708 198.232 18.8679 197.875 19.1315L198.188 19.5418C198.643 19.2052 198.908 18.7776 198.938 18.2638L198.418 18.2345ZM197.884 19.1254C197.542 19.3561 197.133 19.4368 196.63 19.3469L196.538 19.8514C197.152 19.9616 197.708 19.8673 198.179 19.548L197.884 19.1254ZM196.63 19.3469C196.117 19.2548 195.694 19.0501 195.354 18.7366L194.998 19.1114C195.418 19.4981 195.935 19.7435 196.538 19.8514L196.63 19.3469ZM195.355 18.7389C194.696 18.1151 193.976 17.6796 193.196 17.4411L193.041 17.9309C193.734 18.1426 194.386 18.5323 194.995 19.1089L195.355 18.7389ZM193.196 17.4411C192.43 17.2067 191.553 17.092 190.568 17.092V17.6048C191.512 17.6048 192.335 17.7151 193.041 17.9309L193.196 17.4411ZM190.568 17.092C189.422 17.092 188.429 17.2843 187.598 17.6803L187.825 18.1419C188.567 17.7876 189.48 17.6048 190.568 17.6048V17.092ZM187.595 17.6817C187.184 17.8839 186.86 18.1412 186.639 18.4606C186.418 18.7821 186.309 19.1524 186.309 19.5617H186.829C186.829 19.2458 186.912 18.9783 187.07 18.7495C187.229 18.5187 187.476 18.3134 187.828 18.1404L187.595 17.6817ZM186.309 19.5617C186.309 20.057 186.436 20.5154 186.689 20.9316L187.134 20.6677C186.931 20.3337 186.829 19.9668 186.829 19.5617H186.309ZM186.699 20.9487C186.996 21.3564 187.532 21.7046 188.256 22.0108L188.462 21.5394C187.765 21.2453 187.336 20.9432 187.124 20.6506L186.699 20.9487ZM188.263 22.0136C188.995 22.2969 190.053 22.5755 191.429 22.8516L191.533 22.3491C190.168 22.075 189.144 21.8033 188.455 21.5364L188.263 22.0136ZM191.429 22.8516C193.32 23.2243 194.792 23.6934 195.852 24.252L196.097 23.7997C194.974 23.208 193.449 22.7266 191.533 22.3491L191.429 22.8516ZM195.855 24.253C196.945 24.8143 197.702 25.4618 198.152 26.1856L198.596 25.9177C198.081 25.0909 197.24 24.3878 196.096 23.7987L195.855 24.253ZM198.153 26.1887C198.607 26.893 198.837 27.7195 198.837 28.6776H199.358C199.358 27.6349 199.106 26.7107 198.595 25.9144L198.153 26.1887ZM198.837 28.6776C198.837 29.7786 198.534 30.7661 197.929 31.6477L198.361 31.9348C199.025 30.9657 199.358 29.8775 199.358 28.6776H198.837ZM197.928 31.6517C197.35 32.5287 196.478 33.2376 195.295 33.7714L195.512 34.2377C196.767 33.6712 197.723 32.9043 198.364 31.9308L197.928 31.6517ZM195.293 33.7723C194.145 34.3019 192.688 34.5734 190.91 34.5734V35.0862C192.737 35.0862 194.276 34.8077 195.515 34.2368L195.293 33.7723ZM211.587 34.5734C209.836 34.5734 208.215 34.3148 206.722 33.8001L206.55 34.2841C208.104 34.8197 209.784 35.0862 211.587 35.0862V34.5734ZM206.726 33.8018C205.253 33.2603 204.121 32.5894 203.317 31.7975L202.948 32.1602C203.821 33.0188 205.024 33.7235 206.546 34.2823L206.726 33.8018ZM203.323 31.8034C202.989 31.4518 202.855 31.0732 202.897 30.6538L202.379 30.6028C202.32 31.1838 202.516 31.7057 202.943 32.1543L203.323 31.8034ZM202.895 30.6646C202.962 30.2065 203.18 29.8413 203.558 29.5566L203.242 29.1492C202.755 29.5147 202.466 29.9995 202.38 30.592L202.895 30.6646ZM203.562 29.553C204.032 29.1823 204.456 29.0583 204.843 29.1188L204.924 28.6119C204.348 28.5222 203.782 28.7231 203.237 29.1526L203.562 29.553ZM204.858 29.1203C205.302 29.164 205.676 29.3472 205.989 29.6779L206.37 29.3279C205.972 28.9084 205.483 28.6663 204.911 28.61L204.858 29.1203ZM205.986 29.6739C206.451 30.1862 207.172 30.6544 208.126 31.0865L208.345 30.6204C207.42 30.2022 206.772 29.7698 206.373 29.3319L205.986 29.6739ZM208.134 31.0896C209.135 31.5046 210.235 31.71 211.434 31.71V31.1972C210.297 31.1972 209.266 31.0024 208.337 30.617L208.134 31.0896ZM211.434 31.71C212.928 31.71 214.103 31.4703 214.924 30.9575L214.646 30.5242C213.944 30.9618 212.886 31.1972 211.434 31.1972V31.71ZM214.921 30.9594C215.764 30.4502 216.236 29.7665 216.264 28.9112L215.743 28.8941C215.722 29.5393 215.379 30.0812 214.649 30.5223L214.921 30.9594ZM216.264 28.9112C216.293 28.0556 215.865 27.332 215.054 26.7452L214.745 27.1587C215.457 27.6724 215.766 28.249 215.743 28.8941L216.264 28.9112ZM215.057 26.7477C214.267 26.1576 212.855 25.6998 210.871 25.3491L210.779 25.8537C212.755 26.2033 214.059 26.6458 214.742 27.1562L215.057 26.7477ZM210.875 25.35C208.33 24.8532 206.516 24.1144 205.399 23.1571L205.057 23.544C206.275 24.5876 208.193 25.3494 210.774 25.853L210.875 25.35ZM205.4 23.1589C204.31 22.2052 203.774 21.0483 203.774 19.6742H203.254C203.254 21.2011 203.859 22.4953 205.054 23.5422L205.4 23.1589ZM203.774 19.6742C203.774 18.4527 204.137 17.4669 204.849 16.6955L204.464 16.3506C203.652 17.2299 203.254 18.3448 203.254 19.6742H203.774ZM204.851 16.6927C205.579 15.879 206.517 15.2773 207.672 14.8901L207.505 14.4046C206.272 14.8178 205.256 15.4665 204.461 16.3534L204.851 16.6927ZM207.676 14.8885C208.841 14.4736 210.055 14.266 211.321 14.266V13.7532C209.996 13.7532 208.722 13.9708 207.5 14.4062L207.676 14.8885ZM211.321 14.266C212.968 14.266 214.419 14.5243 215.676 15.0345L215.874 14.5603C214.542 14.0201 213.023 13.7532 211.321 13.7532V14.266ZM215.676 15.0345C216.937 15.546 217.928 16.2477 218.658 17.1348L219.063 16.8117C218.269 15.8482 217.204 15.0992 215.874 14.5603L215.676 15.0345ZM218.664 17.1421C218.983 17.5015 219.115 17.8631 219.094 18.2345L219.615 18.2638C219.645 17.7348 219.448 17.2453 219.055 16.8044L218.664 17.1421ZM219.096 18.2336C219.075 18.57 218.908 18.8679 218.551 19.1315L218.864 19.5418C219.319 19.2052 219.583 18.7776 219.615 18.2638L219.096 18.2336ZM218.56 19.1254C218.22 19.3561 217.809 19.4368 217.307 19.3469L217.214 19.8514C217.828 19.9616 218.384 19.8673 218.855 19.548L218.56 19.1254ZM217.307 19.3469C216.793 19.2548 216.37 19.0501 216.029 18.7366L215.674 19.1114C216.094 19.4981 216.61 19.7435 217.214 19.8514L217.307 19.3469ZM216.032 18.7389C215.372 18.1151 214.652 17.6796 213.872 17.4411L213.719 17.9309C214.411 18.1426 215.061 18.5323 215.671 19.1089L216.032 18.7389ZM213.872 17.4411C213.106 17.2067 212.228 17.092 211.244 17.092V17.6048C212.189 17.6048 213.013 17.7151 213.719 17.9309L213.872 17.4411ZM211.244 17.092C210.098 17.092 209.105 17.2843 208.274 17.6803L208.501 18.1419C209.245 17.7876 210.156 17.6048 211.244 17.6048V17.092ZM208.271 17.6817C207.861 17.8839 207.538 18.1412 207.316 18.4606C207.094 18.7821 206.985 19.1524 206.985 19.5617H207.506C207.506 19.2458 207.587 18.9783 207.745 18.7495C207.905 18.5187 208.153 18.3134 208.504 18.1404L208.271 17.6817ZM206.985 19.5617C206.985 20.057 207.112 20.5157 207.365 20.9319L207.812 20.6677C207.608 20.3337 207.506 19.9668 207.506 19.5617H206.985ZM207.377 20.9487C207.672 21.3564 208.208 21.7046 208.933 22.0108L209.138 21.5394C208.441 21.2453 208.012 20.9432 207.8 20.6506L207.377 20.9487ZM208.941 22.0136C209.672 22.2969 210.731 22.5755 212.106 22.8516L212.21 22.3491C210.843 22.075 209.82 21.8033 209.13 21.5364L208.941 22.0136ZM212.106 22.8516C213.999 23.2243 215.468 23.6934 216.529 24.252L216.775 23.7997C215.65 23.208 214.127 22.7266 212.21 22.3491L212.106 22.8516ZM216.531 24.253C217.621 24.8143 218.378 25.4618 218.828 26.1856L219.272 25.9177C218.757 25.0909 217.916 24.3878 216.771 23.7987L216.531 24.253ZM218.831 26.1887C219.282 26.893 219.513 27.7195 219.513 28.6776H220.034C220.034 27.6349 219.782 26.7107 219.27 25.9144L218.831 26.1887ZM219.513 28.6776C219.513 29.7786 219.21 30.7661 218.606 31.6477L219.037 31.9348C219.702 30.9657 220.034 29.8775 220.034 28.6776H219.513ZM218.603 31.6517C218.025 32.5287 217.154 33.2376 215.972 33.7714L216.189 34.2377C217.443 33.6712 218.399 32.9043 219.04 31.9308L218.603 31.6517ZM215.969 33.7723C214.821 34.3019 213.363 34.5734 211.587 34.5734V35.0862C213.415 35.0862 214.953 34.8077 216.19 34.2368L215.969 33.7723Z" fill="white"/>
</g>
</g>
</g>
<defs>
<clipPath id="clip0_962_49706">
<rect width="221" height="40" fill="white"/>
</clipPath>
<clipPath id="clip1_962_49706">
<rect width="225.801" height="32.6252" fill="white" transform="translate(0.199219 3.6875)"/>
</clipPath>
</defs>
</svg>
