<svg width="150" height="40" viewBox="0 0 150 40" fill="none" xmlns="http://www.w3.org/2000/svg">
<g clip-path="url(#clip0_960_48842)">
<path d="M18.875 33.5288C20.453 33.5289 21.7686 34.8443 21.7686 36.4224C21.7685 38.0004 20.453 39.3159 18.875 39.3159C17.2969 39.3159 15.9815 38.0004 15.9814 36.4224C15.9814 34.8443 17.2969 33.5288 18.875 33.5288ZM98.042 3.28271C98.305 3.28271 98.5684 3.54607 98.5684 3.80908V16.9595C100.278 15.25 103.039 14.066 105.801 14.0659C108.694 14.0659 111.456 15.2499 113.429 17.354C115.401 19.4581 116.453 22.3513 116.321 25.5073C116.321 33.5292 110.929 37.0796 105.669 37.0796C100.409 37.0794 95.0176 33.529 95.0176 25.5073V3.80908C95.0176 3.54622 95.2801 3.28301 95.543 3.28271H98.042ZM71.3477 14.856C71.6106 14.8561 71.8739 15.1184 71.874 15.3813V36.0278C71.874 36.2908 71.6106 36.5541 71.3477 36.5542H68.8486C68.5858 36.5539 68.3232 36.2907 68.3232 36.0278V15.3813C68.3233 15.1185 68.5858 14.8563 68.8486 14.856H71.3477ZM124.344 14.856C124.607 14.8561 124.87 15.1184 124.87 15.3813V36.0278C124.87 36.2908 124.607 36.5541 124.344 36.5542H121.845C121.582 36.5539 121.319 36.2907 121.319 36.0278V15.3813C121.319 15.1185 121.582 14.8563 121.845 14.856H124.344ZM62.5371 3.41455C62.8 3.41483 63.0625 3.67804 63.0625 3.94092V6.43896C63.0625 6.70184 62.8 6.96505 62.5371 6.96533H59.6436C58.0656 6.96543 56.751 8.28056 56.751 10.1216V14.7241H62.5371C62.8 14.7244 63.0625 14.9876 63.0625 15.2505V17.7485C63.0625 18.0114 62.8 18.2746 62.5371 18.2749H56.751V35.897C56.7508 36.1598 56.4875 36.4222 56.2246 36.4224H53.7256C53.4628 36.4221 53.2004 36.1598 53.2002 35.897V18.2749H50.5693C50.3065 18.2746 50.0439 18.0114 50.0439 17.7485V15.2505C50.0439 14.9876 50.3065 14.7244 50.5693 14.7241H53.2002V9.98975C53.2003 6.43913 56.0933 3.41455 59.7754 3.41455H62.5371ZM147.491 33.0034C148.412 33.0035 149.201 33.7921 149.201 34.7124C149.201 35.6329 148.412 36.4223 147.491 36.4224C146.571 36.4221 145.782 35.6328 145.782 34.7124C145.782 33.7921 146.571 33.0037 147.491 33.0034ZM83.5781 6.30713C83.8411 6.30729 84.1045 6.57056 84.1045 6.8335V14.7241H89.3643C89.6271 14.7243 89.8904 14.9867 89.8906 15.2495V17.7485C89.8906 18.0115 89.6272 18.2748 89.3643 18.2749V18.1431H84.1045V29.7153C84.1045 31.5564 85.2876 32.7397 86.9971 32.7397H89.2324C89.4953 32.7399 89.7587 33.0032 89.7588 33.2661V35.7651C89.7586 36.028 89.4953 36.2904 89.2324 36.2905H86.6025C83.052 36.2904 80.5538 33.9238 80.5537 30.2417V18.2749H77.9229C77.66 18.2746 77.3975 18.0114 77.3975 17.7485V15.2495C77.3977 14.9867 77.6601 14.7244 77.9229 14.7241H80.5537V6.8335C80.5537 6.5706 80.8162 6.30736 81.0791 6.30713H83.5781ZM135.916 6.30713C136.179 6.30729 136.442 6.57057 136.442 6.8335V14.7241H141.702C141.965 14.7243 142.228 14.9867 142.229 15.2495V17.7485C142.228 18.0115 141.965 18.2748 141.702 18.2749V18.1431H136.311V29.7153C136.311 31.5564 137.495 32.7397 139.204 32.7397H141.57C141.833 32.7399 142.097 33.0032 142.097 33.2661V35.7651C142.097 36.028 141.833 36.2904 141.57 36.2905H138.94C135.39 36.2904 132.892 33.9238 132.892 30.2417V18.2749H130.261C129.998 18.2746 129.735 18.0114 129.735 17.7485V15.2495C129.736 14.9868 129.998 14.7244 130.261 14.7241H132.892V6.8335C132.892 6.5706 133.154 6.30736 133.417 6.30713H135.916ZM147.491 33.1343C146.571 33.1345 145.913 33.7922 145.913 34.7124C145.913 35.6328 146.571 36.2903 147.491 36.2905C148.28 36.2904 149.069 35.6329 149.069 34.7124C149.069 33.7921 148.412 33.1344 147.491 33.1343ZM147.751 33.7925C148.22 33.7927 148.45 34.5007 148.101 34.8501C147.978 34.9727 147.867 35.0246 147.78 35.0376L148.277 35.6343H148.015L147.488 34.9761H147.094V35.6343H146.831V33.7925H147.751ZM147.094 34.8452H147.62C147.872 34.8451 148.145 34.7022 148.146 34.4507C148.146 34.3192 148.119 34.2916 148.015 34.187C147.883 34.0556 147.751 34.0562 147.62 34.0562H147.094V34.8452ZM105.801 17.6167C101.461 17.6168 98.5684 20.7735 98.5684 25.6392C98.5685 29.5842 100.541 33.7924 105.801 33.7925C111.061 33.7925 112.903 29.5843 113.034 25.6392C113.034 20.9049 110.141 17.6167 105.801 17.6167ZM26.8965 24.7183C28.7375 24.7183 30.3163 26.2962 30.3164 28.1372C30.3164 29.9783 28.7376 31.5562 26.8965 31.5562C25.0555 31.556 23.4775 29.9782 23.4775 28.1372C23.4776 26.2963 25.0556 24.7185 26.8965 24.7183ZM18.875 25.1128C20.5845 25.1128 21.8993 26.5592 21.8994 28.1372C21.8994 29.8468 20.5846 31.1616 18.875 31.1616C17.1654 31.1616 15.8506 29.8468 15.8506 28.1372C15.8507 26.4277 17.1655 25.1128 18.875 25.1128ZM10.7217 25.5073C12.1681 25.5074 13.3515 26.6908 13.3516 28.1372C13.3516 29.5837 12.1682 30.767 10.7217 30.7671C9.27511 30.7671 8.0918 29.5838 8.0918 28.1372C8.0919 26.6907 9.27517 25.5073 10.7217 25.5073ZM35.1816 16.0386C37.2857 16.0386 38.9954 17.7483 39.127 19.9839C39.127 22.2195 37.4173 23.9292 35.1816 23.9292C32.9461 23.9291 31.2363 22.088 31.2363 19.9839C31.2364 17.7484 33.0776 16.0386 35.1816 16.0386ZM26.8965 16.4331C28.8691 16.4331 30.4472 18.0113 30.4473 19.9839C30.4473 21.9565 28.8691 23.5347 26.8965 23.5347C24.924 23.5345 23.3457 21.9564 23.3457 19.9839C23.3458 18.0114 24.9241 16.4333 26.8965 16.4331ZM18.875 16.8276C20.5845 16.8277 22.0312 18.2744 22.0312 19.9839C22.0312 21.6934 20.5846 23.1401 18.875 23.1401C17.1654 23.1401 15.7188 21.6935 15.7188 19.9839C15.7188 18.2743 17.1654 16.8276 18.875 16.8276ZM10.7217 17.2222C12.2996 17.2223 13.4833 18.4059 13.4834 19.9839C13.4834 21.5619 12.2997 22.7455 10.7217 22.7456C9.1436 22.7456 7.95996 21.562 7.95996 19.9839C7.96001 18.4059 9.14363 17.2222 10.7217 17.2222ZM2.56836 17.6167C3.88327 17.6168 4.93549 18.669 4.93555 19.9839C4.93555 21.2989 3.8833 22.3509 2.56836 22.3511C1.25329 22.3511 0.201172 21.299 0.201172 19.9839C0.201224 18.6689 1.25333 17.6167 2.56836 17.6167ZM26.8965 8.27979C28.7375 8.27979 30.3162 9.85778 30.3164 11.6987C30.3164 13.5398 28.7376 15.1187 26.8965 15.1187C25.0555 15.1185 23.4775 13.5397 23.4775 11.6987C23.4777 9.8579 25.0557 8.27998 26.8965 8.27979ZM18.875 8.67432C20.5844 8.67435 21.8992 9.98933 21.8994 11.6987C21.8994 13.4083 20.5846 14.7241 18.875 14.7241C17.1654 14.7241 15.8506 13.4083 15.8506 11.6987C15.8508 9.98931 17.1655 8.67432 18.875 8.67432ZM10.7217 9.06885C12.1681 9.06894 13.3514 10.2524 13.3516 11.6987C13.3516 13.1452 12.1682 14.3295 10.7217 14.3296C9.27511 14.3296 8.0918 13.1453 8.0918 11.6987C8.09198 10.2523 9.27522 9.06885 10.7217 9.06885ZM70.165 6.17627C71.4799 6.17651 72.5322 7.22854 72.5322 8.54346C72.5322 9.85834 71.4799 10.9104 70.165 10.9106C68.85 10.9106 67.7979 9.85849 67.7979 8.54346C67.7979 7.22839 68.85 6.17627 70.165 6.17627ZM123.028 6.17627C124.343 6.17651 125.396 7.22854 125.396 8.54346C125.395 9.85834 124.343 10.9104 123.028 10.9106C121.713 10.9106 120.661 9.85849 120.661 8.54346C120.661 7.22839 121.713 6.17627 123.028 6.17627ZM18.875 0.520996C20.453 0.521038 21.7686 1.8365 21.7686 3.41455C21.7683 4.99242 20.4529 6.30709 18.875 6.30713C17.2971 6.30713 15.9817 4.99245 15.9814 3.41455C15.9814 1.83647 17.2969 0.520996 18.875 0.520996Z" fill="white"/>
</g>
<defs>
<clipPath id="clip0_960_48842">
<rect width="150" height="40" fill="white"/>
</clipPath>
</defs>
</svg>
