<svg width="81" height="40" viewBox="0 0 81 40" fill="none" xmlns="http://www.w3.org/2000/svg">
<path fill-rule="evenodd" clip-rule="evenodd" d="M19.9328 0.331299C9.02223 0.331299 0.199219 9.17905 0.199219 20.0649C0.199219 30.9503 9.02223 39.7733 19.9328 39.7733C30.8186 39.7733 39.6409 30.9507 39.6409 20.0649C39.6409 9.17905 30.8186 0.331299 19.9328 0.331299ZM12.6757 10.4714C13.9681 10.4714 15.0368 11.5401 15.0368 12.8322C15.0368 14.1493 13.9681 15.2183 12.6757 15.2183C12.043 15.218 11.4362 14.9665 10.9888 14.5191C10.5415 14.0717 10.2901 13.4649 10.2899 12.8322C10.2899 11.5401 11.3586 10.4714 12.6757 10.4714ZM21.9708 29.5586H19.1875V10.9687H21.0266V27.6948H24.7542V29.559L21.9708 29.5586ZM21.9708 35.4488C28.9544 34.5292 34.4721 28.937 35.3167 21.9287H24.7542V19.9899H37.0067C37.0067 28.7133 30.4458 35.9955 21.9708 37.0394C21.2997 37.1143 20.6039 37.1387 19.9328 37.1387C17.3233 37.1387 14.8625 36.5669 12.6757 35.5484C6.86012 32.8145 2.80908 26.8993 2.80908 20.0649C2.80908 13.2301 6.86012 7.31521 12.6757 4.5813C14.7632 3.61192 17.0996 3.04047 19.5599 2.9659V4.55656C17.1566 4.60441 14.7982 5.21737 12.6757 6.34583C7.75493 8.95535 4.39974 14.1249 4.39974 20.0649C4.39974 26.0048 7.75493 31.1744 12.6757 33.7835C14.8381 34.9268 17.2985 35.5728 19.9328 35.5728C20.6039 35.5728 21.2997 35.523 21.9708 35.4488Z" fill="white"/>
<path d="M45.5703 11.7087V29.6559H59.5588V25.4658H51.476V11.7087H45.5703Z" fill="white"/>
<path d="M75.1735 29.7216H79L78.9995 19.8238H70.9167V23.6841H73.5231C73.2262 24.9381 71.6758 25.7628 70.488 25.7628C67.5185 25.7628 66.7271 23.42 66.7271 20.8798C66.7271 17.7457 67.8159 15.6342 70.1249 15.6342C71.6758 15.6342 72.7308 16.426 73.16 17.9108H78.7683C78.043 13.4899 74.5786 11.2466 70.2567 11.2466C64.4181 11.2466 60.8219 15.1721 60.8219 20.9122C60.8219 27.1809 64.9459 30.1494 69.5315 30.1494C72.3682 30.1494 73.9852 29.0944 74.9746 27.9399L75.1735 29.7216Z" fill="white"/>
</svg>
