<svg width="241" height="40" viewBox="0 0 241 40" fill="none" xmlns="http://www.w3.org/2000/svg">
<path d="M9.71777 6.77783C11.0627 6.77783 12.319 6.95579 13.4863 7.31104C14.6791 7.66634 15.7201 8.14824 16.6084 8.75732L16.3418 13.478H15.2383L13.8291 10.6226C13.4231 9.78525 13.03 9.18878 12.6494 8.8335C12.2941 8.45282 11.8494 8.21138 11.3164 8.10986C11.0121 8.05916 10.7458 8.02097 10.5176 7.99561C10.3145 7.97023 10.035 7.95752 9.67969 7.95752C8.43626 7.95756 7.3579 8.32612 6.44434 9.06201C5.55619 9.77253 5.11143 10.762 5.11133 12.0308C5.11133 13.2489 5.45443 14.2391 6.13965 15.0005C6.8248 15.7618 7.8143 16.4344 9.1084 17.0181L10.8223 17.7417C13.2837 18.8075 15.0474 19.9494 16.1133 21.1675C17.1792 22.3603 17.7119 23.8959 17.7119 25.7739C17.7119 28.007 16.8622 29.8215 15.1621 31.2173C13.4871 32.5877 11.1138 33.2729 8.04297 33.2729C6.64715 33.2729 5.22588 33.095 3.7793 32.7397C2.35822 32.4098 1.1655 31.966 0.201172 31.4077L0.429688 26.1167H1.5332L2.71387 28.7427C3.06909 29.4785 3.43679 30.0877 3.81738 30.5698C4.19801 31.052 4.70549 31.4205 5.33984 31.6743C5.77128 31.852 6.17791 31.979 6.55859 32.0552C6.96455 32.1059 7.40858 32.1313 7.89062 32.1313C9.43871 32.1313 10.6567 31.7374 11.5449 30.9507C12.4585 30.1386 12.916 29.073 12.916 27.7534C12.916 26.5606 12.5983 25.6213 11.9639 24.936C11.3548 24.2509 10.3653 23.5909 8.99512 22.9565L7.43359 22.272C5.30187 21.333 3.61463 20.2411 2.37109 18.9976C1.15292 17.754 0.543945 16.104 0.543945 14.0483C0.544023 12.5258 0.924266 11.2313 1.68555 10.1655C2.47227 9.07434 3.55151 8.23748 4.92188 7.65381C6.29222 7.07019 7.8907 6.77785 9.71777 6.77783ZM53.4053 6.77783C54.801 6.77785 56.1081 6.94304 57.3262 7.27295C58.5442 7.57748 59.7116 8.03405 60.8281 8.64307L60.9805 13.6304H59.9531L58.3535 10.6226C58.0998 10.1152 57.821 9.65838 57.5166 9.25244C57.2374 8.84638 56.8689 8.55411 56.4121 8.37646C55.7777 8.07203 55.0287 7.91943 54.166 7.91943C52.6688 7.91951 51.2981 8.30072 50.0547 9.06201C48.8367 9.82339 47.8599 11.0923 47.124 12.8687C46.3881 14.6197 46.0196 17.0178 46.0195 20.063C46.0195 23.083 46.3626 25.4818 47.0479 27.2583C47.7585 29.0348 48.7105 30.3036 49.9033 31.0649C51.096 31.8008 52.4413 32.1694 53.9385 32.1694C54.6235 32.1694 55.1819 32.1186 55.6133 32.0171C56.0446 31.9156 56.4759 31.7757 56.9072 31.5981C57.4148 31.3951 57.8087 31.1028 58.0879 30.7222C58.3669 30.3162 58.6076 29.8594 58.8105 29.3521L60.2568 25.8882H61.2852L61.1328 31.3696C60.0416 31.9787 58.8362 32.4479 57.5166 32.7778C56.1969 33.1077 54.7629 33.2729 53.2148 33.2729C50.7531 33.2729 48.5323 32.7656 46.5527 31.7505C44.5732 30.7353 42.9994 29.2378 41.832 27.2583C40.6901 25.2788 40.1191 22.8672 40.1191 20.0249C40.1192 17.8933 40.4623 16.0025 41.1475 14.353C41.858 12.7036 42.822 11.3202 44.04 10.2036C45.2836 9.0616 46.7049 8.21116 48.3037 7.65283C49.9026 7.06912 51.6034 6.77783 53.4053 6.77783ZM225.943 8.26221L224.878 8.49072C223.914 8.71912 223.431 9.35357 223.431 10.394C223.405 11.8152 223.393 13.2492 223.393 14.6958V23.8325C223.393 26.294 223.888 28.0704 224.878 29.1616C225.893 30.2527 227.326 30.7982 229.179 30.7983C231.133 30.7983 232.656 30.2147 233.747 29.0474C234.864 27.8546 235.422 26.091 235.422 23.7563V10.5083C235.422 10.0009 235.321 9.55685 235.118 9.17627C234.915 8.79559 234.559 8.55415 234.052 8.45264L233.139 8.26221V7.46338H239.001V8.26221L237.935 8.49072C237.453 8.59226 237.123 8.82103 236.945 9.17627C236.768 9.53153 236.679 9.96274 236.679 10.4702V23.5278C236.679 26.6746 235.854 29.0853 234.204 30.7603C232.554 32.4352 230.372 33.2729 227.656 33.2729C225.753 33.2729 224.066 32.9307 222.594 32.2456C221.147 31.5604 220.004 30.4812 219.167 29.0093C218.355 27.512 217.949 25.5451 217.949 23.1089V14.6958C217.949 13.2492 217.937 11.7898 217.911 10.3179C217.911 9.32829 217.442 8.70647 216.503 8.45264L215.665 8.26221V7.46338H225.943V8.26221ZM210.583 24.7456V10.6226C210.583 10.115 210.494 9.67118 210.316 9.29053C210.164 8.90987 209.835 8.65571 209.327 8.52881L208.185 8.26221V7.46338H213.857V8.26221L212.905 8.52881C212.423 8.68109 212.119 8.94798 211.992 9.32861C211.891 9.68386 211.84 10.1151 211.84 10.6226V32.7778H209.708L195.204 12.8306V29.4663C195.204 29.9992 195.28 30.4431 195.433 30.7983C195.585 31.1536 195.902 31.3951 196.384 31.522L197.412 31.8267V32.6255H191.55V31.8267L192.653 31.522C193.136 31.3951 193.466 31.1536 193.644 30.7983C193.846 30.4431 193.947 30.0117 193.947 29.5044V11.0796C193.719 10.5974 193.517 10.2416 193.339 10.0132C193.187 9.75954 193.021 9.54429 192.844 9.3667C192.666 9.18905 192.425 8.98573 192.12 8.75732L191.436 8.26221V7.46338H197.944L210.583 24.7456ZM37.8789 13.5542H36.8125L35.29 10.1274C35.087 9.64533 34.8582 9.27768 34.6045 9.02393C34.3507 8.74479 33.9704 8.60501 33.4629 8.60498H26.9912C26.9658 10.1784 26.9531 11.8031 26.9531 13.478V19.0737H30.7217C31.2293 19.0737 31.6105 18.9467 31.8643 18.6929C32.1432 18.4138 32.3967 18.0459 32.625 17.5894L33.2725 16.1421H34.1104V23.1851H33.2725L32.5869 21.7388C32.3839 21.282 32.1561 20.9134 31.9023 20.6343C31.6486 20.3551 31.2673 20.2153 30.7598 20.2153H26.9531V28.4761C26.9785 29.4912 26.9912 30.4941 26.9912 31.4839H34.2998C34.8074 31.4839 35.2013 31.3568 35.4805 31.103C35.7596 30.8239 35.9884 30.4435 36.166 29.9614L37.5742 26.5347H38.6396L38.373 32.6255H19.4922V31.8267L20.2529 31.5601C20.7097 31.4332 21.0274 31.2171 21.2051 30.9126C21.3826 30.5827 21.4844 30.1387 21.5098 29.5806V10.4321C21.4844 9.89943 21.3953 9.4935 21.2432 9.21436C21.0909 8.90981 20.7732 8.68108 20.291 8.52881L19.4922 8.26221V7.46338H37.6123L37.8789 13.5542ZM73.793 7.46338C76.7621 7.46341 79.0457 8.03433 80.6445 9.17627C82.2687 10.2929 83.081 11.8659 83.0811 13.896C83.0811 15.0127 82.6373 16.1426 81.749 17.2847C80.8862 18.4266 79.5536 19.3016 77.752 19.9106L82.9287 29.9995C83.3601 30.8368 84.0329 31.4079 84.9463 31.7124L85.6699 31.8647V32.6255H78.9316L73.2598 20.7485H70.5186V25.6216C70.5186 27.0681 70.5313 28.426 70.5566 29.6948C70.5567 30.2022 70.633 30.6081 70.7852 30.9126C70.9628 31.2171 71.2932 31.4332 71.7754 31.5601L72.6885 31.8267V32.6255H63.1338V31.8267L63.9336 31.5981C64.441 31.4459 64.7579 31.2298 64.8848 30.9507C65.037 30.6462 65.1133 30.2276 65.1133 29.6948C65.1387 28.2229 65.1514 26.7507 65.1514 25.2788V14.8481C65.1514 13.3762 65.1387 11.9041 65.1133 10.4321C65.1133 9.89937 65.0497 9.4935 64.9229 9.21436C64.796 8.9099 64.479 8.68108 63.9717 8.52881L63.1338 8.26221V7.46338H73.793ZM105.314 13.5542H104.249L102.726 10.1274C102.523 9.64558 102.295 9.27765 102.041 9.02393C101.787 8.74476 101.406 8.60498 100.898 8.60498H94.4268C94.4014 10.1784 94.3887 11.8031 94.3887 13.478V19.0737H98.1582C98.6655 19.0737 99.0461 18.9466 99.2998 18.6929C99.5789 18.4137 99.8331 18.0461 100.062 17.5894L100.708 16.1421H101.546V23.1851H100.708L100.023 21.7388C99.8204 21.282 99.5917 20.9134 99.3379 20.6343C99.0842 20.3552 98.7036 20.2154 98.1963 20.2153H94.3887V28.4761C94.4141 29.4912 94.4268 30.4941 94.4268 31.4839H101.736C102.244 31.4839 102.637 31.3567 102.916 31.103C103.195 30.8239 103.424 30.4435 103.602 29.9614L105.01 26.5347H106.076L105.81 32.6255H86.9277V31.8267L87.6895 31.5601C88.1461 31.4332 88.463 31.2171 88.6406 30.9126C88.8182 30.5827 88.9199 30.1388 88.9453 29.5806V10.4321C88.9199 9.89935 88.8309 9.4935 88.6787 9.21436C88.5265 8.90989 88.2095 8.68108 87.7275 8.52881L86.9277 8.26221V7.46338H105.048L105.314 13.5542ZM130.124 13.896H129.058L127.726 11.0796C127.345 10.2929 126.964 9.68388 126.583 9.25244C126.202 8.82103 125.606 8.60498 124.794 8.60498H121.749V29.6567C121.749 30.6971 122.282 31.319 123.348 31.522L124.908 31.8267V32.6255H113.146V31.8267L114.668 31.522C115.734 31.2936 116.267 30.6718 116.267 29.6567V13.9341C116.267 12.1577 116.254 10.3813 116.229 8.60498H113.222C112.41 8.60498 111.813 8.821 111.433 9.25244C111.052 9.68387 110.671 10.2929 110.29 11.0796L108.958 13.896H107.893L108.082 7.46338H129.934L130.124 13.896ZM154.106 26.0786L160.845 7.46338H168.268V8.30029L167.659 8.49072C167.177 8.64299 166.847 8.88443 166.669 9.21436C166.491 9.51885 166.402 9.92477 166.402 10.4321C166.377 11.9041 166.364 13.3762 166.364 14.8481V25.2407C166.364 26.7127 166.377 28.1721 166.402 29.6187C166.402 30.1513 166.466 30.5573 166.593 30.8364C166.72 31.1156 167.025 31.3443 167.507 31.522L168.268 31.7886V32.6255H159.018V31.7886L159.854 31.522C160.337 31.3443 160.629 31.1156 160.73 30.8364C160.857 30.5319 160.921 30.126 160.921 29.6187V21.3579L160.997 11.1558L153.231 32.6255H151.1L142.915 11.3843L143.067 20.063V29.5044C143.067 30.0625 143.143 30.5066 143.295 30.8364C143.447 31.1663 143.765 31.3951 144.247 31.522L145.009 31.7886V32.6255H139.679V31.7886L140.44 31.5601C140.923 31.4078 141.252 31.1663 141.43 30.8364C141.607 30.4812 141.696 30.0246 141.696 29.4663V10.6226C141.696 10.1151 141.633 9.7093 141.506 9.40479C141.379 9.0749 141.062 8.82071 140.555 8.64307L139.679 8.30029V7.46338H146.95L154.106 26.0786ZM188.401 13.5542H187.335L185.812 10.1274C185.609 9.64533 185.381 9.27768 185.127 9.02393C184.873 8.74479 184.493 8.60501 183.985 8.60498H177.514C177.488 10.1784 177.476 11.8031 177.476 13.478V19.0737H181.244C181.752 19.0737 182.133 18.9467 182.387 18.6929C182.666 18.4138 182.919 18.0459 183.147 17.5894L183.795 16.1421H184.633V23.1851H183.795L183.109 21.7388C182.906 21.282 182.679 20.9134 182.425 20.6343C182.171 20.3551 181.79 20.2153 181.282 20.2153H177.476V28.4761C177.501 29.4912 177.514 30.4941 177.514 31.4839H184.822C185.33 31.4839 185.724 31.3568 186.003 31.103C186.282 30.8239 186.511 30.4435 186.688 29.9614L188.097 26.5347H189.162L188.896 32.6255H170.015V31.8267L170.775 31.5601C171.232 31.4332 171.55 31.2171 171.728 30.9126C171.905 30.5827 172.007 30.1387 172.032 29.5806V10.4321C172.007 9.89943 171.918 9.4935 171.766 9.21436C171.613 8.90981 171.296 8.68108 170.813 8.52881L170.015 8.26221V7.46338H188.135L188.401 13.5542ZM70.5566 8.56689C70.5566 9.55665 70.5439 10.5723 70.5186 11.6128V19.645H72.5742C74.3761 19.645 75.6957 19.1875 76.5332 18.2739C77.3707 17.3603 77.79 15.9644 77.79 14.0864C77.79 12.2086 77.3834 10.8252 76.5713 9.93701C75.7845 9.02363 74.5028 8.56689 72.7266 8.56689H70.5566Z" fill="white"/>
</svg>
