<svg width="137" height="40" viewBox="0 0 137 40" fill="none" xmlns="http://www.w3.org/2000/svg">
<g clip-path="url(#clip0_963_49769)">
<path d="M23.094 18.313H12.4502C11.3587 18.313 10.3275 18.6816 9.52677 19.3314L9.54188 11.226H23.0223C25.6209 11.226 27.8645 9.50843 28.4726 7.04985C28.7068 6.10746 28.6803 5.16127 28.397 4.23787C27.7021 1.97689 25.5227 0.399902 23.094 0.399902H12.4502C11.1245 0.399902 9.88937 0.931898 9.05086 1.86669C7.81198 3.24608 7.57403 5.19167 7.55892 8.52804C7.55892 8.58884 7.55892 8.64964 7.56269 8.71424C7.56269 8.73704 7.56269 8.75984 7.56269 8.78264V9.25384C6.96969 9.25384 6.45223 9.24624 5.9801 9.23484C4.33329 9.19684 3.24927 9.17404 2.14637 9.91123C0.926371 10.732 0.201172 12.1418 0.201172 13.6922V34.9036C0.201172 37.0924 1.67045 38.9696 3.77429 39.4674L3.90648 39.4978C4.22376 39.5662 4.54481 39.5966 4.86208 39.5966C5.90078 39.5966 6.91681 39.2394 7.74777 38.563C8.85068 37.6624 9.489 36.3324 9.49278 34.9036L9.50411 29.1467H23.0147C25.6133 29.1467 27.8569 27.4291 28.465 24.9705C28.6992 24.0281 28.6728 23.0819 28.3857 22.1585C27.6907 19.8976 25.5114 18.3206 23.0827 18.3206L23.094 18.313ZM10.5201 3.19668C10.9847 2.67989 11.691 2.38349 12.4578 2.38349H23.1016C24.6691 2.38349 26.0741 3.39048 26.5161 4.82687C26.6936 5.40827 26.7087 5.97826 26.5614 6.57106C26.1686 8.14425 24.7144 9.24244 23.026 9.24244H9.54566V8.78264C9.54566 8.72184 9.54566 8.66104 9.54188 8.60024C9.54188 8.57744 9.54188 8.55464 9.54188 8.53184C9.55321 5.70086 9.70807 4.09728 10.5201 3.19668ZM6.51644 37.0088C5.89323 37.5142 5.09626 37.708 4.33329 37.5446L4.23887 37.5218C3.03398 37.2368 2.19169 36.1576 2.19169 34.8922V13.6846C2.19169 12.803 2.59206 12.005 3.25683 11.5604C3.69119 11.2716 4.1671 11.2032 5.05472 11.2032C5.31533 11.2032 5.60995 11.207 5.94988 11.2184C6.40691 11.2298 6.95081 11.245 7.57025 11.2374L7.5287 34.8922C7.5287 35.7206 7.15855 36.492 6.51644 37.0126V37.0088ZM26.5576 24.4803C26.1648 26.0535 24.7106 27.1517 23.0223 27.1517H9.51544V26.6311C9.52677 23.8229 9.69674 22.0217 10.5164 21.1097C10.9809 20.593 11.6835 20.2966 12.4502 20.2966H23.094C24.6615 20.2966 26.0666 21.3035 26.5123 22.7399C26.6898 23.3175 26.7049 23.8875 26.5576 24.4841V24.4803Z" fill="white"/>
<path d="M58.4883 14.167C59.7007 14.167 60.7626 14.4516 61.6729 15.0254C62.5869 15.5992 63.3231 16.3408 63.8896 17.249L63.7988 14.6006H66.3867V30.0811H63.8027L63.6934 27.4668C63.2099 28.3636 62.5453 29.0936 61.6992 29.6484C60.8532 30.2069 59.8447 30.4843 58.6777 30.4844C57.5107 30.4844 56.4908 30.2711 55.5088 29.8418C54.523 29.4124 53.6539 28.8196 52.8984 28.0596C52.1431 27.2996 51.5578 26.4253 51.1348 25.4336C50.7156 24.4419 50.5039 23.3742 50.5039 22.2305C50.5039 21.0869 50.7076 20.0837 51.1191 19.1035C51.5308 18.1231 52.1012 17.2636 52.834 16.5264C53.5667 15.7892 54.4168 15.2119 55.3799 14.7939C56.3429 14.376 57.3817 14.167 58.4883 14.167ZM117.608 8.06738C118.745 8.06738 119.852 8.24633 120.925 8.60352C121.997 8.96071 122.942 9.47703 123.766 10.1572C124.585 10.8374 125.174 11.67 125.533 12.6504L123.085 13.5469C122.881 12.9581 122.5 12.4489 121.938 12.0234C121.379 11.5941 120.721 11.263 119.97 11.0312C119.214 10.7995 118.428 10.6816 117.608 10.6816C116.695 10.6703 115.845 10.8222 115.056 11.1299C114.266 11.4376 113.624 11.867 113.133 12.4141C112.642 12.9613 112.393 13.5964 112.393 14.3184C112.393 15.1847 112.619 15.8498 113.076 16.3096C113.533 16.7694 114.157 17.1109 114.946 17.3389C115.736 17.5668 116.623 17.7686 117.608 17.9434C119.002 18.1789 120.298 18.5553 121.487 19.0645C122.677 19.5736 123.633 20.2542 124.358 21.1016C125.083 21.9489 125.442 22.9899 125.442 24.2285C125.442 25.4673 125.08 26.5888 124.358 27.5273C123.633 28.4659 122.677 29.195 121.487 29.708C120.298 30.2247 119.006 30.4834 117.608 30.4834L117.602 30.4795C116.442 30.4795 115.324 30.2973 114.247 29.9287C113.171 29.5639 112.23 29.0395 111.422 28.3594C110.614 27.6793 110.043 26.8699 109.707 25.9277L112.124 25.0156C112.328 25.593 112.71 26.0979 113.272 26.5234C113.831 26.9528 114.489 27.284 115.252 27.5234C116.011 27.759 116.796 27.8808 117.604 27.8809C118.526 27.8809 119.388 27.7287 120.181 27.4248C120.974 27.1208 121.62 26.6947 122.111 26.1475C122.602 25.6003 122.852 24.9618 122.852 24.2285C122.852 23.4952 122.595 22.8567 122.081 22.3779C121.567 21.8992 120.91 21.5156 120.113 21.2344C119.313 20.9494 118.477 20.7329 117.604 20.5771C116.116 20.3302 114.787 19.9764 113.612 19.5166C112.438 19.0568 111.509 18.4144 110.829 17.5898C110.145 16.7653 109.806 15.675 109.806 14.3223C109.806 13.0645 110.168 11.962 110.89 11.0234C111.615 10.0851 112.57 9.3557 113.76 8.84277C114.949 8.32601 116.234 8.06742 117.608 8.06738ZM96.1504 8C97.6083 8 98.9912 8.29165 100.275 8.87305C101.556 9.45442 102.685 10.2643 103.659 11.2979C104.634 12.3313 105.397 13.5244 105.944 14.8809C106.492 16.2374 106.768 17.6898 106.768 19.2402C106.768 20.7905 106.492 22.2422 105.944 23.5986C105.397 24.9551 104.634 26.1519 103.659 27.1816C102.685 28.2114 101.556 29.0213 100.275 29.6064C98.9912 30.1878 97.6159 30.4805 96.1504 30.4805C94.6925 30.4804 93.3252 30.1878 92.041 29.6064C90.7569 29.0251 89.6317 28.2152 88.6572 27.1816C87.6828 26.1481 86.9195 24.9551 86.3643 23.5986C85.8091 22.2422 85.5333 20.7905 85.5332 19.2402C85.5332 17.6898 85.809 16.2374 86.3643 14.8809C86.9195 13.5244 87.6828 12.3275 88.6572 11.2979C89.6317 10.2644 90.7607 9.4582 92.041 8.87305C93.3214 8.2917 94.6925 8.00002 96.1504 8ZM50.7148 11.0059H40.667V17.165H49.2373V19.7646H40.667V30.0732H38.084L38.0801 30.0811V8.40625H50.7148V11.0059ZM76.8262 14.167C77.9743 14.167 79.0246 14.4484 79.9727 15.0107C80.9207 15.5731 81.6763 16.3293 82.2354 17.2793C82.7943 18.2293 83.0742 19.2856 83.0742 20.4521H83.0703V30.0811H80.4863V21.0264C80.4863 20.2436 80.2975 19.529 79.916 18.8906C79.5383 18.2523 79.029 17.7424 78.3945 17.3662C77.76 16.99 77.0495 16.8008 76.2715 16.8008C75.4935 16.8008 74.7983 16.9901 74.1562 17.3662C73.5141 17.7424 73.0047 18.2522 72.627 18.8906C72.2492 19.529 72.0566 20.2436 72.0566 21.0264V30.0811H69.4727V14.6006H72.0566V16.5342C72.6004 15.8125 73.2875 15.2351 74.1182 14.8096C74.949 14.3802 75.8519 14.1671 76.8262 14.167ZM58.6318 16.6982C57.6273 16.6983 56.6941 16.9527 55.8633 17.458C55.0326 17.9633 54.3719 18.6433 53.8848 19.4941C53.3975 20.3453 53.1514 21.2919 53.1514 22.3369C53.1514 23.3819 53.4049 24.3247 53.9072 25.1797C54.4096 26.0307 55.0783 26.7075 55.9092 27.209C56.7399 27.7104 57.6463 27.9609 58.6318 27.9609C59.6478 27.9609 60.5284 27.7105 61.2725 27.209C62.0165 26.7074 62.591 26.0307 62.9951 25.1719C63.3993 24.3169 63.6025 23.3705 63.6025 22.3369C63.6025 21.3034 63.3989 20.3306 62.9873 19.4795C62.5756 18.6283 62.0009 17.9518 61.2568 17.4502C60.5128 16.9487 59.6364 16.6982 58.6318 16.6982ZM96.1504 10.6064C95.0439 10.6065 93.9901 10.834 93.0195 11.2861C92.0489 11.7421 91.1985 12.3691 90.4658 13.167C89.7331 13.965 89.1596 14.8855 88.7441 15.9229C88.3288 16.9601 88.1202 18.0654 88.1201 19.2432C88.1201 20.4212 88.3317 21.5467 88.751 22.5879C89.1702 23.629 89.7487 24.5486 90.4814 25.3428C91.2141 26.1367 92.0675 26.7597 93.0342 27.208C94.0048 27.6564 95.0438 27.8808 96.1504 27.8809C97.2684 27.8809 98.3115 27.6534 99.2822 27.2012C100.253 26.749 101.102 26.1211 101.835 25.3193C102.568 24.5214 103.142 23.6018 103.558 22.5645C103.973 21.5272 104.181 20.421 104.181 19.2432C104.181 18.0653 103.969 16.9559 103.55 15.9072C103.131 14.8585 102.553 13.9427 101.82 13.1523C101.088 12.3619 100.234 11.7421 99.2666 11.2861C98.2959 10.834 97.257 10.6064 96.1504 10.6064ZM131.994 11.2148L134.325 8H136.183L132.916 12.5146L136.198 17.0439H134.34L131.99 13.7949L129.63 17.0439H127.779L131.062 12.5146L127.794 8H129.652L131.994 11.2148Z" fill="white"/>
</g>
<defs>
<clipPath id="clip0_963_49769">
<rect width="137" height="40" fill="white"/>
</clipPath>
</defs>
</svg>
