<svg width="211" height="40" viewBox="0 0 211 40" fill="none" xmlns="http://www.w3.org/2000/svg">
<path d="M56.5 0.790771V39.8523H0.201172V0.790771H56.5ZM113.542 4.52612C118.133 4.52613 121.669 5.29376 123.765 6.75562C126.326 8.47981 127.624 11.4848 127.623 15.6863V25.28C127.623 29.5612 126.297 32.6395 123.753 34.2214C121.789 35.5925 118.351 36.2888 113.542 36.2888C108.661 36.2888 105.319 35.6106 103.266 34.1853C100.735 32.6963 99.4542 29.7064 99.4541 25.281V15.6873C99.4541 11.2753 100.688 8.45337 103.295 6.76636C105.796 5.1503 109.054 4.52612 113.542 4.52612ZM207.086 29.7654C208.659 29.7654 210.001 30.9831 210.001 32.6394C210.001 34.3164 208.659 35.532 207.086 35.532C205.502 35.532 204.155 34.3164 204.155 32.6394C204.155 30.9824 205.502 29.7654 207.086 29.7654ZM195.793 18.8308L203.396 5.05835H209.936C208.612 7.39869 199.288 24.3124 199.248 24.3855C199.248 24.3855 199.25 33.9945 199.245 35.5134H191.854V24.3376C191.854 24.3376 182.838 7.38706 181.562 5.05737H188.447L195.793 18.8308ZM82.9619 5.05737C91.6751 5.05737 95.0671 8.3237 95.0664 16.7087V23.4021C95.0664 32.2339 92.0746 35.5125 84.0283 35.5125H67.708V5.05737H82.9619ZM139.543 30.447H152.233V35.5125H132.669V5.05737H139.543V30.447ZM170.253 5.05737C173.489 5.0574 175.032 5.60936 176.336 6.42847C177.891 7.38847 179.314 9.09658 179.314 12.449C179.314 16.2598 178.141 18.9033 172.736 19.4001C179.526 19.2429 180.948 23.344 180.947 27.4373C180.947 30.8989 179.043 33.0744 177.576 34.0544C176.72 34.6442 174.874 35.5125 170.438 35.5125H156.009V5.05737H170.253ZM207.086 30.2302C205.748 30.2302 204.714 31.2633 204.714 32.6394C204.714 34.0498 205.748 35.0662 207.086 35.0662C208.406 35.0662 209.442 34.0498 209.442 32.6394C209.442 31.2633 208.406 30.2302 207.086 30.2302ZM6.8418 5.84839V34.7898H13.2607C19.9222 34.7896 25.4917 28.3003 25.4912 20.2615C25.4912 12.4619 19.9216 5.84855 13.2607 5.84839H6.8418ZM43.4346 5.84937C36.7667 5.84954 31.2081 12.462 31.208 20.2615C31.208 28.3005 36.7673 34.7896 43.4346 34.7898H49.873V5.84937H43.4346ZM207.236 30.9822C208.029 30.9822 208.415 31.2782 208.415 31.9333C208.415 32.5295 208.042 32.7871 207.545 32.8464L208.494 34.3152H207.934L207.05 32.8669H206.475V34.3152H205.964V30.9822H207.236ZM206.474 32.4441H207.077C207.7 32.4441 207.902 32.2637 207.902 31.8992C207.902 31.5813 207.748 31.4051 207.161 31.405H206.474V32.4441ZM113.542 9.32202C108.239 9.32202 106.356 10.4608 106.356 15.7292V24.8523C106.356 30.2565 108.239 31.491 113.542 31.491C118.838 31.491 120.728 30.2572 120.728 24.8523V15.7292C120.728 10.4609 118.838 9.32203 113.542 9.32202ZM162.881 31.0886H169.09C173.163 31.0886 174.729 28.3914 174.729 25.9431C174.729 21.0672 170.954 21.3471 166.247 21.365V17.8376C171.514 17.6475 173.365 17.5503 173.365 13.7273C173.365 11.2426 171.937 9.42456 169.646 9.42456H162.881V31.0886ZM74.584 30.8132H83.0146C85.4029 30.8132 88.25 29.4656 88.25 24.1335V15.8347C88.25 10.8765 85.4029 9.53101 83.0146 9.53101H74.584V30.8132Z" fill="white"/>
</svg>
