<svg width="134" height="40" viewBox="0 0 134 40" fill="none" xmlns="http://www.w3.org/2000/svg">
<path d="M132.314 8.87824C131.844 8.34857 131.216 8.08343 130.366 8.08343C129.517 8.08343 128.87 8.3661 128.416 8.94826C127.966 9.51121 127.731 10.3561 127.731 11.4669V19.5016C126.686 18.3735 125.602 17.5629 124.503 17.0162C123.815 16.683 123.005 16.4372 122.103 16.312C121.578 16.242 121.038 16.2058 120.444 16.2058C117.682 16.2058 115.447 17.1576 113.731 19.0601C112.035 20.964 111.188 23.607 111.188 27.0054C111.188 28.611 111.405 30.1076 111.835 31.483C112.27 32.8571 112.879 34.054 113.713 35.0772C114.543 36.0991 115.534 36.8721 116.671 37.439C117.808 37.9836 119.034 38.2637 120.37 38.2637C120.985 38.2637 121.559 38.2132 122.103 38.1082C122.463 38.0524 122.806 37.9654 123.149 37.8592C123.992 37.5797 124.788 37.1767 125.512 36.6634C126.252 36.133 126.993 35.447 127.731 34.6181V35.1474C127.731 36.1523 127.984 36.9083 128.47 37.4545C128.976 37.9836 129.608 38.2637 130.366 38.2637C131.142 38.2637 131.774 38.0017 132.26 37.4908C132.746 36.9617 133 36.1874 133 35.1474V11.1855C133 10.1804 132.764 9.40483 132.314 8.87834M126.703 31.0426C126.214 32.0646 125.567 32.822 124.774 33.3148C123.961 33.8089 123.076 34.054 122.103 34.054H122.086C121.111 34.054 120.226 33.7908 119.413 33.2798C118.602 32.752 117.951 31.9751 117.483 30.9539C117.015 29.9137 116.78 28.6635 116.78 27.1832C116.78 25.7915 116.996 24.5582 117.447 23.5188C117.881 22.4619 118.512 21.65 119.307 21.0866C120.118 20.5042 121.021 20.241 122.05 20.241H122.103C123.059 20.241 123.942 20.523 124.755 21.0683C125.567 21.6143 126.214 22.4094 126.703 23.4481C127.19 24.4875 127.424 25.7384 127.424 27.1831C127.424 28.7329 127.19 30.0207 126.703 31.0426ZM109.471 31.2715C109.131 30.9719 108.661 30.8132 108.082 30.8132C107.56 30.8132 107.163 30.9364 106.874 31.1651C106.171 31.8001 105.612 32.3085 105.177 32.6806C104.745 33.0334 104.258 33.3861 103.734 33.7194C103.231 34.0359 102.689 34.2849 102.15 34.4263C101.589 34.5831 100.992 34.6532 100.326 34.6532C100.18 34.6532 100.035 34.6532 99.9105 34.635C99.0806 34.5832 98.305 34.3523 97.6021 33.9296C96.7695 33.4536 96.121 32.752 95.6153 31.835C95.1277 30.8831 94.8774 29.7918 94.8592 28.5591H105.737C107.198 28.5591 108.334 28.3458 109.131 27.9573C109.942 27.5352 110.339 26.6545 110.339 25.2982C110.339 23.8177 109.942 22.3723 109.166 20.9471C108.39 19.5361 107.235 18.3735 105.666 17.4753C104.111 16.578 102.254 16.1362 100.073 16.1362H99.9105C98.305 16.1532 96.8239 16.419 95.5077 16.9118C94.1369 17.4404 92.9812 18.1977 92.0242 19.1665C91.106 20.1528 90.3838 21.3336 89.8974 22.7077C89.4111 24.0835 89.1569 25.5801 89.1569 27.1825C89.1569 30.6024 90.1502 33.2798 92.1345 35.2704C94.0085 37.1562 96.6087 38.143 99.9105 38.2469C100.091 38.2637 100.288 38.2637 100.488 38.2637C102.039 38.2637 103.429 38.0717 104.636 37.6671C105.846 37.2612 106.837 36.7658 107.635 36.1693C108.425 35.5519 109.021 34.9191 109.415 34.2654C109.815 33.6144 110.013 33.0333 110.013 32.5562C110.013 32.0113 109.834 31.5705 109.471 31.2715ZM96.4831 21.3161C97.3649 20.3823 98.5035 19.9245 99.8912 19.9245H99.9106C101.353 19.9245 102.526 20.3823 103.41 21.298C104.297 22.2148 104.817 23.607 104.945 25.4739H94.8592C95.0382 23.642 95.5803 22.2485 96.483 21.3161M85.8187 30.8132C85.2778 30.8132 84.8797 30.9364 84.5931 31.1651C83.9058 31.8001 83.33 32.3096 82.8955 32.6806C82.4636 33.0334 81.9941 33.3861 81.4702 33.7194C80.9489 34.0359 80.4236 34.2849 79.8647 34.4263C79.3226 34.5831 78.7092 34.6532 78.0426 34.6532C77.8985 34.6532 77.7546 34.6532 77.6288 34.635C76.7976 34.5832 76.0208 34.3523 75.3179 33.9296C74.5072 33.4536 73.838 32.752 73.3531 31.835C72.8459 30.8831 72.5931 29.7918 72.5755 28.5591H83.4726C84.9174 28.5591 86.0533 28.3458 86.8653 27.9573C87.6602 27.5352 88.0558 26.6545 88.0558 25.2982C88.0558 23.8177 87.6771 22.3723 86.9015 20.9471C86.1247 19.5361 84.9524 18.3735 83.4039 17.4753C81.8463 16.578 79.9736 16.1362 77.8104 16.1362H77.6288C76.0208 16.1532 74.5591 16.419 73.226 16.9118C71.8532 17.4404 70.6989 18.1977 69.7607 19.1665C68.8225 20.1528 68.1001 21.3336 67.615 22.7077C67.1261 24.0835 66.8746 25.5801 66.8746 27.1832C66.8746 30.6024 67.8847 33.2798 69.8716 35.2704C71.7448 37.1562 74.3271 38.143 77.6288 38.2469C77.8259 38.2637 78.0063 38.2637 78.206 38.2637C79.7738 38.2637 81.1472 38.0717 82.3521 37.6671C83.5621 37.2612 84.5554 36.7658 85.3479 36.1693C86.1597 35.5519 86.7369 34.9191 87.135 34.2654C87.5331 33.6144 87.7302 33.0333 87.7302 32.5562C87.7302 32.0113 87.5513 31.5705 87.209 31.2715C86.8484 30.9719 86.3776 30.8132 85.8187 30.8132ZM74.2006 21.3161C75.0824 20.3823 76.2179 19.9245 77.6095 19.9245H77.6288C79.0709 19.9245 80.2434 20.3823 81.1291 21.298C82.0292 22.2148 82.5349 23.607 82.6802 25.4739H72.5755C72.7753 23.642 73.3167 22.2485 74.2006 21.3161ZM11.7901 34.6532V21.6869C12.1688 21.7199 12.53 21.7375 12.9087 21.7375C14.7126 21.7375 16.4108 21.2622 17.8524 20.4166V34.6531C17.8524 35.8683 17.5632 36.767 17.0048 37.3674C16.4473 37.9653 15.7054 38.2636 14.8035 38.2636C13.919 38.2636 13.2154 37.9653 12.6369 37.3492C12.0794 36.7501 11.7901 35.8501 11.7901 34.653M64.2036 8.87824C63.7328 8.34857 63.0856 8.08343 62.2724 8.08343C61.4249 8.08343 60.7739 8.3661 60.3233 8.94826C59.8571 9.51121 59.6378 10.3561 59.6378 11.4669V19.5016C58.5914 18.3735 57.509 17.5629 56.408 17.0162C55.7064 16.683 54.9108 16.4372 54.01 16.312C53.4875 16.242 52.9453 16.2058 52.3506 16.2058C49.5884 16.2058 47.3338 17.1576 45.6387 19.0601C43.9425 20.964 43.0929 23.607 43.0929 27.0054C43.0929 28.611 43.3115 30.1076 43.7238 31.483C44.1583 32.8571 44.7893 34.054 45.6212 35.0772C46.4493 36.0991 47.4419 36.8721 48.5808 37.439C49.7167 37.9836 50.9417 38.2637 52.2768 38.2637C52.872 38.2637 53.4505 38.2132 54.01 38.1082C54.3699 38.0524 54.7136 37.9654 55.0566 37.8592C55.8992 37.58 56.6955 37.177 57.4195 36.6634C58.1588 36.133 58.8818 35.447 59.6378 34.6181V35.1474C59.6378 36.1523 59.892 36.9083 60.3784 37.4545C60.866 37.9836 61.5151 38.2637 62.2724 38.2637C63.0105 38.2637 63.6621 38.0017 64.1511 37.4908C64.6373 36.9617 64.8708 36.1874 64.8708 35.1474V11.1855C64.8708 10.1804 64.6561 9.40483 64.2035 8.87834M58.6087 31.0426C58.1231 32.0646 57.4728 32.822 56.6628 33.3148C55.8679 33.8089 54.9659 34.054 54.01 34.054H53.9907C53.0193 34.054 52.1329 33.7908 51.3216 33.2798C50.4916 32.752 49.86 31.9751 49.3899 30.9539C48.9218 29.9137 48.6869 28.6635 48.6869 27.1832C48.6869 25.7915 48.9056 24.5582 49.3367 23.5188C49.788 22.4619 50.4009 21.65 51.2127 21.0866C52.0076 20.5042 52.9258 20.241 53.9381 20.241H54.01C54.9659 20.241 55.8497 20.523 56.6428 21.0683C57.4728 21.6143 58.1231 22.4094 58.6087 23.4481C59.0771 24.4875 59.3325 25.7384 59.3325 27.1831C59.3325 28.7329 59.0771 30.0207 58.6087 31.0426ZM26.7471 19.1665V19.837C27.7392 18.568 28.8046 17.6518 29.9595 17.052C31.1325 16.4716 32.467 16.17 33.9823 16.17C35.444 16.17 36.761 16.4877 37.9164 17.105C39.0713 17.7211 39.9188 18.603 40.4966 19.7488C40.8759 20.4167 41.1107 21.141 41.2176 21.9151C41.3267 22.6719 41.3797 23.6576 41.3797 24.8571V34.9541C41.3797 36.046 41.1107 36.8721 40.6036 37.4194C40.0997 37.9836 39.4299 38.2637 38.618 38.2637C37.79 38.2637 37.1227 37.9836 36.5981 37.4012C36.0742 36.8371 35.8239 36.0111 35.8239 34.954V25.9129C35.8239 24.1173 35.5703 22.7426 35.0646 21.7913C34.5595 20.8408 33.5304 20.3641 32.0169 20.3641C31.0242 20.3641 30.1209 20.6651 29.3085 21.2272C28.4985 21.8095 27.8838 22.6006 27.5038 23.6232C27.2339 24.4344 27.1064 25.9309 27.1064 28.1707V34.9541C27.1064 36.0629 26.8392 36.8721 26.3153 37.439C25.7912 37.9836 25.1247 38.2637 24.2934 38.2637C23.4834 38.2637 22.8311 37.9836 22.3086 37.4012C21.7858 36.8371 21.5317 36.0111 21.5317 34.954V19.254C21.5317 18.2159 21.7664 17.4403 22.2365 16.9469C22.6877 16.4372 23.3181 16.17 24.1319 16.17C24.6189 16.17 25.0508 16.2751 25.4469 16.5071C25.8463 16.7341 26.1693 17.0701 26.404 17.5278C26.6381 17.9843 26.7471 18.5322 26.7471 19.1665ZM11.8252 3.57462C15.5783 2.25183 19.8548 2.32264 23.0659 5.03566C23.6631 5.58177 24.3472 6.26911 24.6182 7.07966C24.9437 8.10156 23.4827 6.97269 23.2825 6.83385C22.2365 6.16344 21.1892 5.6 20.0182 5.21155C13.7037 3.30948 7.72894 6.7457 4.01464 12.0843C2.46356 14.4452 1.45142 16.9281 0.622046 19.6587C0.532505 19.9595 0.459896 20.3479 0.295854 20.6093C0.133804 20.9114 0.22454 19.8019 0.22454 19.7651C0.349638 18.6386 0.585692 17.5461 0.874931 16.4534C2.58806 10.6382 6.37626 5.79362 11.8252 3.57462Z" fill="white"/>
<path d="M16.7151 18.0033C14.4605 19.131 11.6982 18.2517 10.5615 16.0489C9.4066 13.8455 10.3099 11.1506 12.5644 10.0404C14.8204 8.91285 17.5828 9.79282 18.7181 11.9962C19.8731 14.1988 18.9711 16.8937 16.7152 18.0033" fill="white"/>
</svg>
