<svg width="155" height="40" viewBox="0 0 155 40" fill="none" xmlns="http://www.w3.org/2000/svg">
<path d="M39.6982 3.5022C48.6891 3.5022 55.9448 9.975 55.9785 19.7825C56.0106 29.337 48.6892 36.0627 39.6982 36.0627C30.7074 36.0626 23.4508 29.5899 23.418 19.7825C23.3852 10.2281 30.7066 3.50231 39.6982 3.5022ZM9.30664 4.08228V13.8479L16.7158 4.08228H27.8281L16.3789 19.0676L29.1738 35.3997H17.6416L9.30664 24.4553V35.3997H0.298828V4.08228H9.30664ZM66.0479 15.6995H74.4658V3.74536H83.4736V35.3997H74.4658V23.4446H66.0479V35.3997H57.04V3.74536H66.0479V15.6995ZM94.502 27.9905H103.51V35.3997H85.4932V3.74536H94.502V27.9905ZM122.535 11.4905H114.286V16.0364H121.863V23.4446H114.286V27.9905H122.535V35.3997H105.278V3.74536H122.535V11.4905ZM136.595 4.08228C140.551 4.08229 145.603 6.18742 146.276 12.6692C146.948 19.1506 142.152 22.2663 141.141 22.8557L150.065 35.3997H139.963L133.312 25.3821V35.3997H124.304V4.08228H136.595ZM152.368 31.884C152.583 31.8805 152.796 31.9214 152.994 32.0032C153.192 32.085 153.372 32.2068 153.521 32.3606C153.839 32.6768 154 33.0599 154 33.509C154 33.9601 153.839 34.3457 153.521 34.6653C153.204 34.9856 152.818 35.1448 152.368 35.1448C151.918 35.1447 151.533 34.9856 151.217 34.6653C150.901 34.3482 150.743 33.9617 150.743 33.509C150.74 33.2951 150.781 33.0826 150.863 32.885C150.946 32.6874 151.068 32.5091 151.222 32.3606C151.537 32.0435 151.919 31.8841 152.368 31.884ZM152.368 32.1047C151.981 32.1048 151.652 32.2428 151.379 32.5178C151.106 32.7913 150.97 33.1224 150.97 33.51C150.967 33.6952 151.001 33.8794 151.07 34.051C151.14 34.2226 151.244 34.3784 151.375 34.509C151.648 34.7842 151.978 34.9221 152.368 34.9221C152.553 34.9251 152.737 34.8906 152.907 34.8196C153.078 34.7485 153.232 34.6424 153.36 34.509C153.633 34.2339 153.77 33.9001 153.77 33.51C153.769 33.1224 153.633 32.7913 153.36 32.5178C153.088 32.2426 152.755 32.1047 152.368 32.1047ZM152.334 32.6116C152.557 32.6116 152.719 32.6335 152.823 32.677C153.008 32.7534 153.102 32.905 153.102 33.1292C153.102 33.2893 153.042 33.4071 152.925 33.4827C152.846 33.5288 152.758 33.5579 152.667 33.5686C152.728 33.5747 152.786 33.5942 152.839 33.6243C152.892 33.6543 152.938 33.6945 152.975 33.7434C153.034 33.8241 153.068 33.9215 153.072 34.0217V34.1526C153.072 34.1937 153.075 34.2379 153.076 34.2864C153.077 34.3178 153.082 34.3493 153.092 34.3792L153.103 34.4006H152.808C152.804 34.3886 152.802 34.376 152.8 34.3635L152.792 34.3059V34.1633C152.792 33.9565 152.735 33.8199 152.623 33.7542C152.557 33.7156 152.44 33.6966 152.273 33.6965H152.024V34.4006H151.708V32.6116H152.334ZM152.025 33.4749H152.31C152.411 33.4792 152.513 33.4658 152.609 33.4348C152.732 33.3863 152.792 33.2925 152.792 33.1545C152.792 33.0249 152.753 32.9381 152.673 32.8938C152.594 32.8487 152.468 32.8274 152.293 32.8274H152.025V33.4749ZM39.6982 11.9846C35.6876 11.9847 32.4588 14.8583 32.4365 19.7825C32.416 24.2023 35.6876 27.5802 39.6982 27.5803C43.7082 27.5803 46.9831 24.7076 46.9609 19.7825C46.9379 14.8582 43.709 11.9846 39.6982 11.9846ZM133.311 11.4915V17.1311H135.331C137.437 17.1311 138.026 15.8681 138.025 14.1848C138.025 12.501 136.931 11.4917 135.5 11.4915H133.311Z" fill="white"/>
</svg>
