<svg width="149" height="40" viewBox="0 0 149 40" fill="none" xmlns="http://www.w3.org/2000/svg">
<path d="M20.3365 37.3941C18.1117 37.7848 15.8477 37.9019 13.5057 38.2139L6.36239 17.292V39.1118C4.13755 39.346 2.10785 39.6582 0 39.9705V0H5.93328L14.0521 22.6789V0H20.3365V37.3941ZM32.6322 14.6376C35.0524 14.6376 38.7606 14.5205 40.9854 14.5205V20.7658C38.2139 20.7658 34.9743 20.7658 32.6322 20.8829V30.1731C36.3015 29.9389 39.9706 29.6264 43.6786 29.5093V35.5201L26.3866 36.8866V0H43.6786V6.2454H32.6322V14.6376ZM66.9036 6.24554H60.4241V34.9743C58.3163 34.9743 56.2084 34.9743 54.179 35.0521V6.24554H47.6995V0H66.9039L66.9036 6.24554ZM77.0523 14.2084H85.6008V20.4536H77.0523V34.623H70.9236V0H88.3722V6.2454H77.0523V14.2084ZM98.5209 29.1581C102.073 29.236 105.664 29.5097 109.138 29.7045V35.8719C103.556 35.5204 97.9745 35.1696 92.2756 35.0521V0H98.5209V29.1581ZM114.408 36.3013C116.398 36.4186 118.506 36.5357 120.536 36.7696V0H114.408V36.3013ZM147.899 0L139.975 19.0095L147.899 39.9705C145.556 39.6582 143.214 39.2288 140.872 38.8384L136.384 27.2847L131.817 37.9019C129.553 37.5112 127.367 37.3941 125.103 37.0818L133.144 18.775L125.884 0H132.597L136.696 10.5001L141.068 0H147.899Z" fill="white"/>
</svg>
