<svg width="227" height="40" viewBox="0 0 227 40" fill="none" xmlns="http://www.w3.org/2000/svg">
<g clip-path="url(#clip0_434_21528)">
<path d="M26.3553 12.5552L18.4679 34.9604H16.3518L7.95147 12.5552L5.83535 29.8245C5.77123 30.1455 5.77123 30.6591 5.77123 30.8517C5.77123 32.906 6.66898 33.3554 9.74697 33.4838V34.9604H0V33.4838C2.37262 33.3554 3.14212 32.906 3.46274 31.0443L6.09185 10.244C6.41248 7.99709 5.25823 7.29091 2.56499 7.16251V5.75015H11.9272C11.9913 6.64893 12.2478 7.35511 12.5043 8.31808L19.3016 26.422L25.5858 8.18969C25.9705 7.29091 26.1629 6.58473 26.227 5.68595H35.461V7.09831C32.7678 7.22671 31.7418 7.93289 31.9983 10.1798L34.5633 30.9801C34.7556 32.9702 35.6534 33.3554 38.026 33.4196V34.8962H24.5598V33.4196C27.4454 33.2912 28.4714 32.8418 28.4714 30.7875C28.4714 30.5949 28.4714 30.1455 28.4073 29.7603L26.3553 12.5552ZM59.5078 32.1357C58.9948 32.3283 58.4177 32.5851 57.8406 32.5851C56.8146 32.5851 56.4298 31.6221 56.4298 30.2097V19.1676C56.4298 14.2243 53.5442 12.3626 48.286 12.3626C43.6049 12.3626 40.0139 14.0959 40.0139 17.6268C40.0139 19.4886 41.1681 20.6442 42.9636 20.6442C44.8873 20.6442 46.1057 19.4886 46.1057 17.691C46.1057 16.3429 45.4004 15.3157 44.0537 15.0589C44.6309 14.1601 45.7851 13.6465 47.773 13.6465C49.8891 13.6465 50.7227 15.3157 50.7227 17.7552V21.2861L44.4385 23.5331C41.3605 24.6245 38.7955 26.1652 38.7955 29.6961C38.7955 32.9702 40.9757 35.0246 44.3744 35.0246C47.3882 35.0246 49.5685 33.1628 50.9151 31.4295C51.364 33.6764 52.8388 35.0888 55.0832 35.0888C57.0069 35.0888 58.6101 34.2542 59.7643 32.906L59.5078 32.1357ZM50.7227 30.5949C49.5685 31.4937 48.7348 31.9431 47.5165 31.9431C45.3362 31.9431 44.3102 30.4665 44.3102 28.2838C44.3102 25.9084 45.4003 25.0738 47.1958 24.3035L50.7868 22.8911V30.5949H50.7227ZM60.3414 33.227L60.0208 27.5134H61.5598C62.5217 31.1085 64.5737 33.8048 67.7799 33.8048C70.0243 33.8048 71.7556 32.7776 71.7556 30.4023C71.7556 28.1554 70.2166 27.2566 67.0104 26.101C62.5858 24.5603 60.2773 22.8269 60.2773 18.975C60.2773 14.8021 63.4194 12.3626 67.9723 12.3626C70.6655 12.3626 72.974 13.0046 74.7695 14.0959V19.1676H73.3588C72.6534 16.2145 70.922 13.7107 68.0364 13.7107C65.9203 13.7107 64.6378 14.9305 64.6378 16.7923C64.6378 18.654 65.9844 19.5528 69.1906 20.7726C73.6794 22.3133 76.3085 23.9825 76.3085 28.0912C76.3085 32.5209 73.0381 35.153 67.9081 35.153C64.7019 35.2814 62.0728 34.511 60.3414 33.227ZM85.2218 12.7478H90.6724V14.6737H85.2218V28.5406C85.2218 31.0443 86.1837 32.1357 88.1716 32.1357C89.2617 32.1357 90.2236 31.7505 91.2496 31.0443L91.8267 31.7505C90.4801 33.8048 88.364 35.3456 85.3501 35.3456C81.9515 35.3456 79.5147 33.6122 79.5147 28.8615V14.6737H76.9497V13.9033C79.8353 12.5552 82.208 10.3082 84.0676 7.5477H85.4142L85.2218 12.7478ZM110.038 27.9628C108.499 30.0813 106.64 31.3653 103.818 31.3653C99.714 31.3653 96.7643 27.8344 96.9567 22.0565H110.551V21.0936C110.551 16.0861 107.601 12.4268 101.958 12.4268C96.3154 12.4268 91.6984 17.37 91.6984 24.4961C91.6984 30.8517 95.8024 35.3456 101.83 35.3456C106.575 35.3456 109.653 32.4567 110.679 28.348L110.038 27.9628ZM101.51 13.9675C104.203 13.9675 105.229 16.5997 105.229 20.58H96.9567C97.3414 16.7281 98.688 13.9675 101.51 13.9675ZM152.36 7.7403L152.425 14.4169H150.821C149.86 9.66625 147.423 7.03412 143.319 7.03412C137.612 7.03412 134.983 12.7478 134.983 19.8738C134.983 27.6418 138.061 33.548 143.704 33.548C147.679 33.548 150.308 31.0443 151.719 25.0096H153.386L152.745 32.8418C150.308 34.3826 147.102 35.3456 143.127 35.3456C134.021 35.3456 128.442 29.6961 128.442 21.0294C128.442 11.3354 134.919 5.17236 143.127 5.17236C146.974 5.23656 150.052 6.07114 152.36 7.7403ZM162.941 31.6863C162.941 33.1628 163.518 33.3554 165.506 33.548V34.9604H154.477V33.548C156.4 33.4196 157.042 33.1628 157.042 31.6863V9.47365L154.605 8.12549V7.22671L161.979 5.23656H162.941V31.6863ZM186.988 32.1357C186.475 32.3283 185.898 32.5851 185.321 32.5851C184.231 32.5851 183.91 31.6221 183.91 30.2097L183.974 19.1676C183.974 14.2243 181.024 12.3626 175.766 12.3626C171.085 12.3626 167.494 14.0959 167.494 17.6268C167.494 19.4886 168.648 20.6442 170.444 20.6442C172.367 20.6442 173.586 19.4886 173.586 17.691C173.586 16.3429 172.88 15.3157 171.534 15.0589C172.111 14.1601 173.265 13.6465 175.253 13.6465C177.369 13.6465 178.203 15.3157 178.203 17.7552V21.2861L171.919 23.5331C168.841 24.6245 166.276 26.1652 166.276 29.6961C166.276 32.9702 168.456 35.0246 171.854 35.0246C174.868 35.0246 177.049 33.1628 178.395 31.4295C178.844 33.6764 180.319 35.0888 182.563 35.0888C184.487 35.0888 186.09 34.2542 187.244 32.906L186.988 32.1357ZM178.203 30.5949C177.049 31.4937 176.215 31.9431 174.997 31.9431C172.816 31.9431 171.79 30.4665 171.79 28.2838C171.79 25.9084 172.945 25.0096 174.676 24.3035L178.267 22.8911V30.5949H178.203ZM187.95 33.227L187.757 27.5134H189.296C190.194 31.1085 192.31 33.8048 195.516 33.8048C197.761 33.8048 199.492 32.7776 199.492 30.4023C199.492 28.1554 197.953 27.2566 194.683 26.101C190.258 24.5603 187.95 22.8269 187.95 18.975C187.95 14.8021 191.092 12.3626 195.709 12.3626C198.338 12.3626 200.711 13.0046 202.442 14.0959V19.1676H201.031C200.39 16.2145 198.594 13.7107 195.709 13.7107C193.529 13.7107 192.246 14.9305 192.246 16.7923C192.246 18.654 193.593 19.5528 196.799 20.7726C201.352 22.3133 203.981 23.9825 203.981 28.0912C203.981 32.5209 200.582 35.153 195.452 35.153C192.182 35.2814 189.617 34.511 187.95 33.227ZM205.969 33.227L205.776 27.5134H207.315C208.213 31.1085 210.329 33.8048 213.536 33.8048C215.78 33.8048 217.511 32.7776 217.511 30.4023C217.511 28.1554 215.908 27.2566 212.766 26.101C208.277 24.5603 206.033 22.8269 206.033 18.975C206.033 14.8021 209.175 12.3626 213.792 12.3626C216.421 12.3626 218.794 13.0046 220.525 14.0959V19.1676H219.114C218.473 16.2145 216.678 13.7107 213.792 13.7107C211.612 13.7107 210.393 14.9305 210.393 16.7923C210.393 18.654 211.612 19.5528 214.882 20.7726C219.435 22.3133 222 23.9825 222 28.0912C222 32.5209 218.73 35.153 213.6 35.153C210.329 35.2814 207.764 34.511 205.969 33.227ZM124.979 12.491C122.735 12.491 121.26 14.0959 119.657 18.654L119.785 12.491H118.823L111.321 14.7379V15.5725L113.821 17.1133V31.8147C113.821 33.2912 113.18 33.4838 111.257 33.6764V35.0888H123.12V33.6764C120.555 33.4838 119.593 33.227 119.593 31.5579V20.8368C120.17 19.3602 120.875 18.1404 121.837 17.0491C122.35 18.012 123.248 18.654 124.466 18.654C126.454 18.654 127.737 17.3058 127.737 15.5083C127.737 13.5181 126.646 12.491 124.979 12.491Z" fill="white"/>
</g>
<defs>
<clipPath id="clip0_434_21528">
<rect width="227" height="40" fill="white"/>
</clipPath>
</defs>
</svg>
