<svg width="101" height="40" viewBox="0 0 101 40" fill="none" xmlns="http://www.w3.org/2000/svg">
<path fill-rule="evenodd" clip-rule="evenodd" d="M73.3071 8.92261C72.2788 8.92261 71.4453 9.7738 71.4453 10.8238V29.9375C71.4453 30.9875 72.2788 31.8387 73.3071 31.8387C74.3353 31.8387 75.1688 30.9875 75.1688 29.9375V10.8238C75.1688 9.7738 74.3353 8.92261 73.3071 8.92261Z" fill="white"/>
<path fill-rule="evenodd" clip-rule="evenodd" d="M40.9646 19.1955C41.3212 17.8788 42.0478 16.6699 43.0918 15.6854C44.6267 14.2382 46.6668 13.4411 48.8364 13.4411C52.5555 13.4411 55.7978 15.8374 56.708 19.1955H40.9646ZM56.3306 12.2274C54.2247 10.5581 51.5632 9.63867 48.8364 9.63867C45.7335 9.63867 42.8011 10.7924 40.5793 12.8872C38.326 15.0118 37.0561 17.8582 37.0036 20.902C37.0025 20.9639 37.002 21.0258 37.002 21.0876C37.002 21.0907 37.002 21.0936 37.002 21.0967C37.002 21.0998 37.002 21.1029 37.002 21.106C37.0032 22.5882 37.298 24.0342 37.879 25.4069C38.4604 26.7804 39.3013 28.0189 40.3782 29.088C42.5741 31.2678 45.5004 32.4984 48.618 32.5529C48.691 32.5541 48.7634 32.5548 48.8363 32.5548C51.8166 32.5548 54.655 31.4851 56.8493 29.5301C57.6226 28.8411 57.7044 27.6402 57.0321 26.8479C56.3598 26.0554 55.1879 25.9715 54.4147 26.6605C52.8596 28.0461 50.8235 28.7882 48.6814 28.751C46.5089 28.713 44.4769 27.8627 42.9599 26.3568C41.9892 25.3932 41.3121 24.2408 40.9698 22.998H56.9739C58.0701 22.998 59.0862 22.5064 59.7616 21.6492C60.3989 20.8404 60.6434 19.8015 60.4325 18.7988C59.8922 16.2297 58.4354 13.896 56.3306 12.2274Z" fill="white"/>
<path fill-rule="evenodd" clip-rule="evenodd" d="M65.395 2C64.3668 2 63.5332 2.84698 63.5332 3.89182V29.9469C63.5332 30.9917 64.3668 31.8387 65.395 31.8387C66.4231 31.8387 67.2567 30.9917 67.2567 29.9469V3.89182C67.2567 2.84698 66.4231 2 65.395 2Z" fill="white"/>
<path fill-rule="evenodd" clip-rule="evenodd" d="M24.3845 9.63867C21.3113 9.63867 18.5796 11.1711 16.8721 13.5322C15.1647 11.1711 12.4329 9.63867 9.35972 9.63867C4.19877 9.63867 0 13.9599 0 19.2716V30.6536C0 31.7036 0.827054 32.5548 1.84731 32.5548C2.86757 32.5548 3.69462 31.7036 3.69462 30.6536V19.2716C3.69462 16.0567 6.23599 13.4411 9.35972 13.4411C12.4834 13.4411 15.0248 16.0567 15.0248 19.2716V30.6536C15.0248 31.7036 15.8519 32.5548 16.8721 32.5548C17.8924 32.5548 18.7194 31.7036 18.7194 30.6536V19.2716C18.7194 16.0567 21.2608 13.4411 24.3845 13.4411C27.5083 13.4411 30.0496 16.0567 30.0496 19.2716V30.6536C30.0496 31.7036 30.8767 32.5548 31.8969 32.5548C32.9172 32.5548 33.7442 31.7036 33.7442 30.6536V19.2716C33.7442 13.9599 29.5455 9.63867 24.3845 9.63867Z" fill="white"/>
<path fill-rule="evenodd" clip-rule="evenodd" d="M89.8287 28.0363C85.7133 28.0363 82.3652 24.602 82.3652 20.3807C82.3652 16.1593 85.7133 12.7251 89.8287 12.7251C93.9441 12.7251 97.2922 16.1593 97.2922 20.3807C97.2922 24.602 93.9441 28.0363 89.8287 28.0363ZM97.7275 12.2786C95.6176 10.1144 92.8125 8.92261 89.8287 8.92261C86.845 8.92261 84.0398 10.1144 81.93 12.2786C79.8201 14.4428 78.6582 17.3201 78.6582 20.3807C78.6582 23.4412 79.8201 26.3186 81.93 28.4827C84.0398 30.6469 86.845 31.8387 89.8287 31.8387C92.8125 31.8387 95.6176 30.6469 97.7275 28.4827C99.8373 26.3186 100.999 23.4412 100.999 20.3807C100.999 17.3201 99.8373 14.4428 97.7275 12.2786Z" fill="white"/>
<path fill-rule="evenodd" clip-rule="evenodd" d="M74.2454 2.45483C73.663 1.84839 72.7187 1.84839 72.1363 2.45483L70.1982 4.47299C69.3827 5.32218 69.9602 6.77419 71.1135 6.77419H75.2681C76.4214 6.77419 76.999 5.32218 76.1835 4.47299L74.2454 2.45483Z" fill="white"/>
<path fill-rule="evenodd" clip-rule="evenodd" d="M92.024 34.2258H87.8694C86.7161 34.2258 86.1385 35.6524 86.954 36.4868L89.0313 38.6121C89.5368 39.1293 90.3565 39.1293 90.8621 38.6121L92.9394 36.4868C93.7549 35.6524 93.1773 34.2258 92.024 34.2258Z" fill="white"/>
</svg>
