<svg width="196" height="40" viewBox="0 0 196 40" fill="none" xmlns="http://www.w3.org/2000/svg">
<g clip-path="url(#clip0_600_24278)">
<path fill-rule="evenodd" clip-rule="evenodd" d="M0 7.74034V11.3008H5.84001L17.2687 32.734H31.3324L42.7611 11.2652L48.6001 11.2284L48.6128 7.74034H31.1417V11.2406H35.7944L27.7241 26.4779L18.9962 11.2937L25.3622 11.2652L25.351 7.74034H0ZM112.711 7.74034V11.3008H118.55L129.978 32.734H144.043L155.471 11.2652L161.311 11.2284L161.322 7.74034H143.854V11.2406H148.504L140.434 26.4779L131.705 11.2937L138.073 11.2652L138.061 7.74034H112.711ZM83.9755 7.74034V11.3008H89.8146L89.8243 28.7991H83.6684V32.6994L89.8285 32.7342H118.984V21.1H115.186C114.978 27.2598 109.634 28.8074 107.384 28.8074C105.321 28.8074 101.325 28.7994 101.325 28.7994V11.2937L107.076 11.265L107.069 7.7401L83.9755 7.74034ZM64.0595 29.5333C60.5604 29.5333 57.7254 25.342 57.7254 20.1692C57.7254 14.9951 60.5604 10.8006 64.0595 10.8006C67.5575 10.8006 70.3935 14.9951 70.3935 20.1692C70.3935 25.342 67.5575 29.5333 64.0595 29.5333ZM64.3169 7.02226C54.3914 7.02226 46.3454 12.9325 46.3454 20.2201C46.3454 27.5082 54.3911 33.4177 64.3169 33.4177C74.2416 33.4177 82.2888 27.5082 82.2888 20.2201C82.2888 12.9325 74.2416 7.02226 64.3169 7.02226ZM176.771 29.4668C173.273 29.4668 170.439 25.206 170.439 19.9476C170.439 14.6911 173.274 10.4294 176.771 10.4294C180.269 10.4294 183.104 14.6911 183.104 19.9476C183.104 25.2058 180.269 29.4668 176.771 29.4668ZM177.03 6.58911C167.102 6.58911 159.059 12.5956 159.059 20.0022C159.059 27.4085 167.102 33.4138 177.03 33.4138C186.954 33.4138 195 27.4085 195 20.0022C195 12.5956 186.954 6.58911 177.03 6.58911Z" fill="white"/>
</g>
<defs>
<clipPath id="clip0_600_24278">
<rect width="196" height="40" fill="white"/>
</clipPath>
</defs>
</svg>
