<svg width="102" height="40" viewBox="0 0 102 40" fill="none" xmlns="http://www.w3.org/2000/svg">
<path d="M96.2856 1.48169L96.4703 1.48359C99.0304 1.53684 100.54 2.70835 101 4.9981V5.95712L100.957 6.13466C100.126 9.40059 96.9599 13.2612 91.4574 17.7165C89.2862 19.117 87.2669 20.1293 85.3993 20.7534C88.2386 27.6036 92.0723 31.668 96.9006 32.9467C98.5859 33.4947 99.4285 34.1036 99.4285 34.7734V35.2529L99.4262 35.3726C99.3579 37.1124 97.7873 38.1609 94.7142 38.5181C90.9488 38.5181 87.0012 34.2101 82.8714 25.5942C82.6284 25.1984 82.507 24.9168 82.507 24.7493H82.3931L82.321 25.0578C81.5644 28.3178 81.186 30.5973 81.186 31.8963V32.7412L81.189 32.8957C81.2224 33.7559 81.5403 34.3514 82.1426 34.682V34.819L82.0332 34.9986C81.003 36.6447 79.7109 37.4678 78.157 37.4678C76.3046 37.1024 75.3785 35.7704 75.3785 33.4718C75.3785 31.8126 77.0714 22.7628 80.4572 6.32245L80.2067 6.20829H79.979L79.7267 6.27067C74.9755 7.47392 72.6 9.71367 72.6 12.9899C72.6 14.6035 73.5261 15.5701 75.3785 15.8898C75.9403 16.1638 76.2211 16.4911 76.2211 16.8717C75.8719 17.1913 75.4316 17.3512 74.9002 17.3512C72.8353 17.3512 71.4233 16.179 70.6641 13.8348C70.3301 13.028 70.1631 11.9776 70.1631 10.6837C70.1631 6.80197 72.7442 3.89447 77.9065 1.96121C78.9237 1.71765 79.8119 1.59585 80.5711 1.59585H81.4138L81.6176 1.59783C84.447 1.6528 86.277 2.86234 87.1074 5.22643C87.1074 5.30254 87.1454 5.62983 87.2213 6.20829C87.2213 7.73054 86.4166 11.247 84.8072 16.7575C88.9674 14.2153 92.0268 10.5315 93.9854 5.70595C94.0765 5.00571 94.1221 4.6023 94.1221 4.49574C94.1221 4.25218 93.9626 3.48345 93.6438 2.18953C94.0993 1.71763 94.8584 1.48169 95.9213 1.48169H96.2856ZM26.3218 1.48169L26.5064 1.48359C29.0665 1.53684 30.5764 2.70835 31.0362 4.9981V5.95712L30.9932 6.13466C30.1626 9.40059 26.9961 13.2612 21.4936 17.7165C19.3224 19.117 17.303 20.1293 15.4355 20.7534C18.2747 27.6036 22.1085 31.668 26.9367 32.9467C28.622 33.4947 29.4647 34.1036 29.4647 34.7734V35.2529L29.4624 35.3726C29.3941 37.1124 27.8234 38.1609 24.7503 38.5181C20.9849 38.5181 17.0373 34.2101 12.9075 25.5942C12.6646 25.1984 12.5431 24.9168 12.5431 24.7493H12.4292L12.3572 25.0578C11.6005 28.3178 11.2222 30.5973 11.2222 31.8963V32.7412L11.2251 32.8957C11.2586 33.7559 11.5764 34.3514 12.1787 34.682V34.819L12.0693 34.9986C11.0391 36.6447 9.74705 37.4678 8.19313 37.4678C6.34079 37.1024 5.41462 35.7704 5.41462 33.4718C5.41462 31.8126 7.10754 22.7628 10.4934 6.32245L10.2429 6.20829H10.0151L9.76286 6.27067C5.01169 7.47392 2.63611 9.71367 2.63611 12.9899C2.63611 14.6035 3.56228 15.5701 5.41462 15.8898C5.9764 16.1638 6.25728 16.4911 6.25728 16.8717C5.90807 17.1913 5.46776 17.3512 4.93635 17.3512C2.87145 17.3512 1.45942 16.179 0.70026 13.8348C0.366232 13.028 0.199219 11.9776 0.199219 10.6837C0.199219 6.80197 2.78035 3.89447 7.94261 1.96121C8.95988 1.71765 9.8481 1.59585 10.6073 1.59585H11.4499L11.6537 1.59783C14.4832 1.6528 16.3131 2.86234 17.1436 5.22643C17.1436 5.30254 17.1815 5.62983 17.2575 6.20829C17.2575 7.73054 16.4528 11.247 14.8433 16.7575C19.0035 14.2153 22.0629 10.5315 24.0216 5.70595C24.1126 5.00571 24.1582 4.6023 24.1582 4.49574C24.1582 4.25218 23.9988 3.48345 23.6799 2.18953C24.1354 1.71763 24.8946 1.48169 25.9574 1.48169H26.3218ZM61.7213 16.3643C63.4066 16.5774 64.2492 17.1863 64.2492 18.191V19.15L64.2485 19.191C64.2313 19.7045 63.9127 21.4338 63.2927 24.3789V24.4931H63.4066L63.519 24.2356C65.5534 19.6426 68.1806 17.3461 71.4005 17.3461C72.7366 17.3461 73.5034 18.5944 73.7007 21.0909V22.5522L72.7214 32.4849L72.7237 32.5995C72.7572 33.4212 73.1588 33.8321 73.9285 33.8321V33.9463L73.9256 34.017C73.8532 34.9179 72.4041 36.0285 69.5785 37.3485L68.622 37.5769C66.8456 37.5769 65.9573 36.047 65.9573 32.9873V32.4849L65.9583 32.3187C65.975 30.7942 66.2176 28.5053 66.6861 25.4521V25.0868L66.6278 25.0822C66.5452 25.07 66.4432 25.0335 66.3217 24.9726C63.8165 26.16 62.5639 28.626 62.5639 32.3707C62.5639 32.934 62.8448 33.2156 63.4066 33.2156V33.3298L63.4036 33.4219C63.3317 34.5219 61.9662 35.4274 59.3071 36.1383H58.6922L58.5812 36.1361C57.0458 36.0735 56.2781 34.6966 56.2781 32.0054C56.3237 28.1998 56.931 23.9984 58.1001 19.4012C58.7833 17.3766 59.9904 16.3643 61.7213 16.3643ZM49.0813 16.7753L49.1873 16.7779C50.1946 16.8294 50.6983 17.6277 50.6983 19.1728C51.2753 18.5791 51.7383 18.2823 52.0876 18.2823H52.3381L52.4119 18.2856C53.1004 18.3469 53.7818 19.2668 54.4561 21.0452C54.8812 20.8016 55.2153 20.6798 55.4582 20.6798H55.5949L55.6531 20.7025C55.8572 20.799 55.9593 21.0427 55.9593 21.4334C55.8833 22.0727 55.5493 22.4457 54.9572 22.5522C55.1242 22.9176 55.2077 23.5873 55.2077 24.5616V25.2009L55.2054 25.481C55.1409 29.3842 53.722 32.5104 50.9488 34.8596C49.6127 35.773 48.0716 36.2297 46.3256 36.2297H45.8245L45.6326 36.2275C42.8397 36.164 40.983 34.7034 40.0625 31.8456C39.8955 30.9474 39.774 29.9808 39.6981 28.9457C39.6981 23.4808 41.9528 19.5534 46.4622 17.1634C47.2365 16.9047 47.9426 16.7753 48.5803 16.7753H49.0813ZM40.9735 4.01117C43.585 4.01117 45.1565 5.62475 45.6879 8.85193V9.81095L45.6854 9.99088C45.6139 12.5605 44.0053 14.723 40.8596 16.4784C39.8727 16.7981 39.4021 16.9655 39.4476 16.9808C38.2026 23.8157 37.5801 28.9837 37.5801 32.4849C37.5801 32.6676 37.8686 32.9111 38.4455 33.2156C37.823 35.1641 36.6919 36.1383 35.0521 36.1383H33.4806L33.3612 36.1359C31.9073 36.0758 31.1804 34.9045 31.1804 32.6219V31.1606L31.1812 30.9699C31.2086 27.8819 31.8915 22.9753 33.2301 16.2501C32.0155 16.0674 31.3436 15.3976 31.2145 14.2407C31.0855 13.0838 31.56 12.4216 32.638 12.2542H33.1162L33.2 12.2587C33.431 12.2827 33.7219 12.403 34.0728 12.6195C35.5304 6.88062 37.8306 4.01117 40.9735 4.01117ZM49.9467 20.4287L49.7605 20.6278C47.8046 22.7655 46.8266 25.3326 46.8266 28.3292V29.6992L46.8459 29.905C47.0755 32.2034 47.6992 33.3526 48.7169 33.3526H48.9674C49.8632 33.3526 50.8577 32.013 51.9509 29.3338C52.5431 27.5224 52.8391 25.8936 52.8391 24.4474V23.1916L52.6612 23.1686C50.8516 22.9156 49.9467 22.1698 49.9467 20.931V20.4287ZM42.2944 9.69678H42.1806L42.1181 9.69936C41.2052 9.77477 40.4593 11.5093 39.8803 14.9029C41.4594 14.9029 42.5905 14.058 43.2738 12.3683L43.3876 11.6377V11.1581L43.3856 11.0338C43.3552 10.1425 42.9915 9.69678 42.2944 9.69678Z" fill="white"/>
</svg>
