<svg width="133" height="40" viewBox="0 0 133 40" fill="none" xmlns="http://www.w3.org/2000/svg">
<path d="M48.4951 21.7852C49.7484 21.7852 50.9627 21.9418 52.1768 22.1768V24.6055C51.1584 24.2138 50.0614 23.9004 49.0039 23.9004C48.3381 23.9004 47.3595 24.1747 47.3594 24.9971C47.3594 26.9554 53.1162 27.1909 53.1162 31.3818C53.1161 32.6745 52.4501 35.2588 47.9854 35.2588C46.3798 35.2588 45.0092 35.102 44.1084 34.9453V32.3604L44.5879 32.5176C45.5369 32.8737 46.5607 33.1435 47.5547 33.1436C48.4163 33.1436 49.6306 32.9091 49.6309 31.7344C49.6309 29.6585 44.0684 29.4229 44.0684 25.3887C44.0685 22.8038 46.3018 21.7852 48.4951 21.7852ZM61.7725 22.0596C64.0833 22.0596 65.4932 22.9609 65.4932 25.5068C65.493 28.0916 63.927 29.9715 61.1465 29.9717H59.3047V34.9463H56.1719V22.0596H61.7725ZM76.5381 24.1748H71.3682V27.3086H75.5986V29.2666H71.3682V32.792H76.5381V34.9463H68.0391V22.0596H76.5381V24.1748ZM83.5107 32.792H89.1113V34.9463H80.1807V22.0596H83.5107V32.792ZM60.2842 24.1748C59.9709 24.1748 59.618 24.2137 59.3047 24.292V28.0127C60.4797 28.0127 62.1641 27.8563 62.1641 25.7412C62.1639 24.5664 61.3025 24.1748 60.2842 24.1748ZM48.5342 4.59082C49.7875 4.59084 51.0017 4.74743 52.2158 4.98242V7.41113C51.1975 7.01946 50.1006 6.70605 49.0039 6.70605C48.3772 6.70607 47.3984 6.98023 47.3984 7.80273C47.3986 9.76098 53.1549 9.99608 53.1553 14.1865C53.1553 15.4791 52.4895 18.0645 48.0244 18.0645C46.4188 18.0644 45.0483 17.9076 44.1475 17.751L44.1865 15.166C45.244 15.5968 46.4189 15.9492 47.5547 15.9492C48.4164 15.9492 49.6309 15.7141 49.6309 14.5391C49.6301 12.4636 44.0684 12.2283 44.0684 8.19434C44.0684 5.60928 46.3408 4.59082 48.5342 4.59082ZM99.0605 4.59082C100.314 4.59086 101.528 4.74745 102.742 4.98242V7.41113C101.724 7.01948 100.627 6.70609 99.5303 6.70605C98.9036 6.70605 97.9238 6.98022 97.9238 7.80273C97.924 9.76098 103.681 9.99608 103.682 14.1865C103.682 15.4791 103.016 18.0645 98.5508 18.0645C96.945 18.0644 95.5737 17.9076 94.6729 17.751V15.166L95.1143 15.3232C96.0632 15.6794 97.0871 15.9492 98.0811 15.9492C98.9427 15.9492 100.157 15.714 100.157 14.5391C100.156 12.4636 94.5947 12.2283 94.5947 8.19434C94.5947 5.60928 96.8672 4.59082 99.0605 4.59082ZM61.1855 14.2656H61.2246L64.4365 4.86523H66.6299L62.2432 17.751H58.9141L54.3701 4.86523H57.9346L61.1855 14.2656ZM77.4785 7.01953H72.2695V10.1523H76.5391V12.0723H72.2695V15.5967H77.4395V17.751H68.9404V4.86523H77.4785V7.01953ZM88.916 12.6201H88.9551V4.86523H91.4619V17.751H88.6807L83.3936 9.99609H83.3545V17.751H80.8477V4.86523H83.6279L88.916 12.6201ZM109.988 11.0537L114.414 4.86523H116.999L112.965 10.4658L117.979 17.751H113.983L109.988 11.6016V17.751H106.659V4.86523H109.988V11.0537ZM132 17.751H128.632L127.417 14.4609H122.521L121.308 17.751H119.075L123.893 4.86523H127.222L132 17.751ZM123.305 12.4248H126.712L125.028 7.8418L123.305 12.4248Z" fill="white"/>
<path d="M36.627 39.125H27.4873C30.3122 36.0202 32.3713 31.3551 32.6709 24.8643C32.7043 24.4304 32.5038 24.43 32.3369 24.7637C23.8573 44.0265 3.05865 32.6761 11.5381 13.5469C11.8385 12.8792 11.7724 12.7793 11.0381 13.3467C5.00197 17.9488 1.66474 30.745 7.64746 39.125H0.201172V0.21582H36.627V39.125ZM20.085 23.1611C17.6479 23.1611 15.6777 25.1313 15.6777 27.5684C15.6444 30.0388 17.6479 31.9746 20.085 31.9746C22.5219 31.9745 24.4912 30.0054 24.4912 27.5684C24.4912 25.1313 22.522 23.1612 20.085 23.1611Z" fill="white"/>
</svg>
