<svg width="154" height="40" viewBox="0 0 154 40" fill="none" xmlns="http://www.w3.org/2000/svg">
<g clip-path="url(#clip0_960_48791)">
<path d="M61.2693 17L59.8488 13.6287H53.1819L51.7804 17H50.3599L55.8525 3.742H57.0836L62.7087 17H61.2693ZM56.4775 5.59812L53.6744 12.3976H59.3374L56.4775 5.59812ZM71.9125 17.2083C67.973 17.2083 65.132 14.3484 65.132 10.3899C65.132 6.41254 67.973 3.5526 71.9125 3.5526C74.924 3.5526 77.3294 5.29508 78.1438 8.07926H76.7801C76.0225 6.05268 74.2232 4.84052 71.9125 4.84052C68.7685 4.84052 66.4768 7.1512 66.4768 10.3899C66.4768 13.6287 68.7496 15.9015 71.9125 15.9015C74.28 15.9015 76.1172 14.6325 76.8559 12.4733H78.2196C77.4051 15.3901 74.9998 17.2083 71.9125 17.2083ZM91.3965 17L89.976 13.6287H83.3091L81.9075 17H80.487L85.9796 3.742H87.2107L92.8359 17H91.3965ZM86.6047 5.59812L83.8015 12.3976H89.4646L86.6047 5.59812ZM100.893 3.742C104.794 3.742 107.616 6.52618 107.616 10.371C107.616 14.2158 104.775 17 100.893 17H96.6312V3.742H100.893ZM100.855 15.7689C103.999 15.7689 106.253 13.4961 106.253 10.371C106.253 7.26484 103.999 4.99204 100.855 4.99204H97.957V15.7689H100.855ZM113.307 15.731H119.576V17H111.981V3.742H119.368V5.01098H113.307V9.53764H118.876V10.7687H113.307V15.731ZM139.157 17H137.793L135.937 6.1095L131.221 16.5833H130.842L126.107 6.1095L124.232 17H122.888L125.16 3.742H126.41L131.013 14.0454L135.615 3.742H136.922L139.157 17ZM152.552 3.742L147.57 11.7347V17H146.207V11.7347L141.282 3.742H142.741L146.907 10.4846L151.093 3.742H152.552ZM67.1407 38H65.777L63.9209 27.1095L59.2048 37.5833H58.826L54.091 27.1095L52.216 38H50.8712L53.144 24.742H54.3941L58.9965 35.0454L63.5989 24.742H64.9058L67.1407 38ZM76.3862 38.2083C73.4316 38.2083 71.2535 36.0871 71.2535 33.0945V24.742H72.5982V32.9998C72.5982 35.3105 74.1703 36.9204 76.3862 36.9204C78.6022 36.9204 80.1742 35.3105 80.1742 32.9998V24.742H81.519V33.0945C81.519 36.0871 79.3409 38.2083 76.3862 38.2083ZM90.4711 38.1705C87.5922 38.1705 85.6603 36.5416 85.6603 33.9847H87.0051C87.0051 35.7651 88.4256 36.8636 90.4521 36.8636C92.2893 36.8636 93.6719 35.8598 93.6719 34.3256C93.6719 32.5832 92.0242 32.2233 90.2059 31.8066C88.1604 31.3331 85.9065 30.8028 85.9065 28.208C85.9065 25.9731 87.649 24.5905 90.3385 24.5905C93.009 24.5905 94.6758 26.0867 94.6758 28.4353H93.3689C93.3689 26.8254 92.0999 25.8595 90.3196 25.8595C88.5203 25.8595 87.2513 26.7496 87.2513 28.1512C87.2513 29.799 88.8801 30.1778 90.6605 30.5755C92.7439 31.068 95.0546 31.6172 95.0546 34.3067C95.0546 36.731 93.0848 38.1705 90.4711 38.1705ZM100.676 36.731H106.945V38H99.3501V24.742H106.737V26.011H100.676V30.5376H106.244V31.7687H100.676V36.731ZM116.222 38.2083C113.268 38.2083 111.09 36.0871 111.09 33.0945V24.742H112.434V32.9998C112.434 35.3105 114.006 36.9204 116.222 36.9204C118.438 36.9204 120.01 35.3105 120.01 32.9998V24.742H121.355V33.0945C121.355 36.0871 119.177 38.2083 116.222 38.2083ZM141.728 38H140.364L138.508 27.1095L133.792 37.5833H133.413L128.678 27.1095L126.803 38H125.459L127.731 24.742H128.981L133.584 35.0454L138.186 24.742H139.493L141.728 38Z" fill="white"/>
<path d="M40 40H31.6201L29.918 36.999H26.3867C25.6956 36.2351 25.7649 36.0854 24.582 35.9805C21.9354 35.8786 21.584 35.6295 21.584 34.1514C21.5842 32.8259 22.3679 30.3366 22.4336 29.374C22.5051 28.1487 22.2979 27.6943 22.2979 26.8271C22.2979 25.9643 23.0653 24.9974 23.2051 22.96C23.3434 20.938 22.703 19.4734 22.6963 19.458C23.2613 19.4005 23.9516 19.1002 24.1631 18.7412C24.4375 18.2344 25.3446 15.4858 25.3447 14.3701C25.3447 13.9107 25.2785 13.5068 25.1406 13.2012C24.5071 12.0728 22.6517 12.271 21.8174 11.5479C21.554 11.3227 21.3854 11.3372 21.3711 10.5273C21.8068 10.0776 21.9355 9.40484 21.9355 8.43457C21.9353 7.62381 21.097 7 19.9805 7C18.8633 7.00001 18.0266 7.62382 18.0264 8.43457C18.0264 9.4049 18.1554 10.0776 18.5957 10.5273C18.5723 11.3371 18.4053 11.3228 18.1465 11.5479C17.3108 12.2706 15.458 12.0731 14.8154 13.2012C14.6782 13.5073 14.6133 13.9107 14.6133 14.3701C14.6134 15.4856 15.5194 18.234 15.7939 18.7412C16.0072 19.1003 16.6956 19.4004 17.2627 19.458C17.2554 19.4747 16.6159 20.9389 16.7568 22.96C16.8967 24.9973 17.663 25.9638 17.6631 26.8271C17.6631 27.6941 17.4539 28.1485 17.5234 29.374C17.5898 30.3366 18.3768 32.8259 18.377 34.1514C18.377 35.6295 18.0261 35.8786 15.376 35.9795C14.1906 36.0849 14.2603 36.2355 13.5723 36.999H10.0381L8.34082 40H0V0H40V40Z" fill="white"/>
</g>
<defs>
<clipPath id="clip0_960_48791">
<rect width="154" height="40" fill="white"/>
</clipPath>
</defs>
</svg>
