<svg width="242" height="40" viewBox="0 0 242 40" fill="none" xmlns="http://www.w3.org/2000/svg">
<path d="M237.64 9.77997C235.82 9.77997 234.28 8.37997 234.28 6.41996C234.28 4.45996 235.82 3.19995 237.64 3.19995C239.46 3.19995 241 4.59996 241 6.41996C241 8.23997 239.46 9.77997 237.64 9.77997ZM237.64 9.21997C239.04 9.21997 240.3 8.09997 240.3 6.41996C240.3 4.73996 239.18 3.75995 237.64 3.75995C236.1 3.75995 234.98 4.87996 234.98 6.41996C234.98 7.95997 236.1 9.21997 237.64 9.21997ZM238.76 7.25996C238.76 6.97996 238.62 6.69996 238.34 6.55996C238.62 6.55996 238.9 6.13996 238.9 5.71996C238.9 5.29996 238.48 4.87996 237.78 4.87996H236.66V7.95997H237.22V6.83996H237.64C237.92 6.83996 238.06 6.97996 238.2 7.25996C238.2 7.53997 238.2 7.81997 238.48 7.95997H239.04C239.04 7.67997 238.9 7.53997 238.76 7.25996ZM237.78 6.41996H237.22V5.43996H237.78C238.2 5.43996 238.34 5.57996 238.34 5.85996C238.34 6.13996 238.2 6.41996 237.78 6.41996ZM17.9793 17.2L11.8193 16.08C9.15925 15.66 7.75924 14.4 7.75924 12.58C7.75924 10.76 10.4193 8.37997 13.9193 8.37997C17.4193 8.37997 20.2193 10.2 21.0593 13C21.0593 13.14 21.0593 13.28 21.0593 13.42L27.0793 11.74V11.46C25.6793 6.27996 20.7793 3.19995 14.1993 3.19995C7.61924 3.19995 1.59922 7.11996 1.59922 12.86C1.59922 17.48 4.81923 20.56 10.5593 21.68L16.8593 22.8C20.2193 23.5 21.8993 24.76 21.8993 26.86C21.8993 30.08 18.2593 31.48 14.8993 31.48C11.5393 31.48 7.33924 29.1 6.07924 24.76V24.48L0.199219 26.16V26.44C1.87922 32.88 7.47924 36.8001 15.0393 36.8001C22.5993 36.8001 28.0593 32.74 28.0593 26.58C28.0593 20.42 24.6993 18.46 17.9793 17.34V17.2ZM55.4994 23.92C54.7994 28.54 51.2994 31.48 46.3994 31.48C41.4994 31.48 35.6193 26.72 35.6193 20C35.6193 13.28 40.0993 8.37997 46.2594 8.37997C52.4194 8.37997 53.8194 10.9 54.7994 14.82V15.1L60.8194 13.42C59.2794 7.11996 53.6794 3.19995 46.3994 3.19995C39.1193 3.19995 29.5993 10.34 29.5993 20C29.5993 29.66 36.5993 36.8001 46.5394 36.8001C56.4794 36.8001 60.2594 32.46 61.5194 25.32L55.6394 23.64V24.06L55.4994 23.92ZM79.7195 3.19995C69.9194 3.19995 63.0594 10.06 63.0594 20C63.0594 29.8 69.9194 36.8001 79.7195 36.8001C89.5195 36.8001 96.3795 29.94 96.3795 20C96.3795 10.06 89.5195 3.19995 79.7195 3.19995ZM79.7195 31.48C73.5595 31.48 69.0794 26.58 69.0794 20C69.0794 13.28 73.5595 8.37997 79.7195 8.37997C85.8795 8.37997 90.3595 13.28 90.3595 20C90.3595 26.72 85.8795 31.48 79.7195 31.48ZM143.14 3.61995H128.72V36.2401H134.88V24.34H143.14C150.42 24.34 155.18 20.28 155.18 14.12C155.18 7.95997 150.42 3.61995 143.14 3.61995ZM143 19.02H134.88V8.79997H143C146.78 8.79997 149.02 10.76 149.02 13.98C149.02 17.2 146.78 19.02 143 19.02ZM163.72 3.75995H157.56V36.3801H163.72V3.75995ZM182.9 3.19995C173.1 3.19995 166.24 10.06 166.24 20C166.24 29.8 173.1 36.8001 182.9 36.8001C192.7 36.8001 199.56 29.94 199.56 20C199.56 10.06 192.7 3.19995 182.9 3.19995ZM182.9 31.62C176.74 31.62 172.26 26.72 172.26 20.14C172.26 13.42 176.74 8.51997 182.9 8.51997C189.06 8.51997 193.54 13.42 193.54 20.14C193.54 26.86 189.06 31.62 182.9 31.62ZM224.62 3.61995V26.44L209.5 3.75995C209.5 3.61995 202.22 3.61995 202.22 3.61995V36.2401H208.38V12.02L224.48 36.2401C224.48 36.3801 230.78 36.3801 230.78 36.3801V3.61995H224.62ZM124.24 27.7C123.54 24.76 122 22.8 119.9 21.54C123.54 20.14 125.64 16.92 125.64 13C125.64 7.25996 121.16 3.61995 114.02 3.61995H99.1795V11.6L105.34 16.08V8.93997H113.88C117.38 8.93997 119.48 10.62 119.48 13.42C119.48 16.22 117.38 18.32 113.88 18.32H99.1795V36.3801H105.34V23.5H111.08C115.14 23.5 117.52 25.18 118.36 29.1L120.04 36.3801H126.48L124.38 27.84L124.24 27.7Z" fill="white"/>
</svg>
