<svg width="106" height="40" viewBox="0 0 106 40" fill="none" xmlns="http://www.w3.org/2000/svg">
<g clip-path="url(#clip0_963_49742)">
<g clip-path="url(#clip1_963_49742)">
<path d="M17.2838 22.437C17.2838 23.9844 15.9946 25.2457 14.4087 25.2457H5.77552V14.027H14.4087C15.9946 14.027 17.2838 15.2792 17.2838 16.8326V22.437ZM14.4087 8.41455H0.0253906V40.812H5.77552V30.854H14.4087C19.1768 30.854 23.0378 27.0813 23.0378 22.437V16.8333C23.0378 12.1858 19.1771 8.41455 14.4087 8.41455Z" fill="white"/>
<path d="M61.8689 0H56.1152V30.8539H61.8689V0Z" fill="white"/>
<path d="M96.3853 8.41455H92.0599C89.8508 8.41455 87.8429 9.23106 86.3165 10.5737C84.7872 9.23106 82.7702 8.41455 80.5684 8.41455H76.2522C71.4733 8.41455 67.6172 12.1858 67.6172 16.8326V30.854H73.3673V16.8326C73.3673 15.2785 74.6639 14.027 76.2522 14.027H80.5681C82.1459 14.027 83.4417 15.2792 83.4417 16.8326V30.854H89.18V16.8326C89.18 15.2785 90.4744 14.027 92.0592 14.027H96.3853C97.9652 14.027 99.2597 15.2792 99.2597 16.8326V30.854H105.014V16.8326C105.016 12.1858 101.142 8.41455 96.3853 8.41455Z" fill="white"/>
<path d="M44.6042 25.2457H35.9821C34.3945 25.2457 33.1088 23.9844 33.1088 22.437V16.8333C33.1088 15.2792 34.3945 14.0277 35.9821 14.0277H44.6042V25.2457ZM35.9825 8.41455C31.2096 8.41455 27.3496 12.1858 27.3496 16.8326V22.4363C27.3496 27.0813 31.2096 30.854 35.9825 30.854H44.6045H50.3662V8.41455H44.6045H35.9825Z" fill="white"/>
</g>
</g>
<defs>
<clipPath id="clip0_963_49742">
<rect width="106" height="40" fill="white"/>
</clipPath>
<clipPath id="clip1_963_49742">
<rect width="104.815" height="40.812" fill="white" transform="translate(0.199219)"/>
</clipPath>
</defs>
</svg>
