<svg width="220" height="40" viewBox="0 0 220 40" fill="none" xmlns="http://www.w3.org/2000/svg">
<g clip-path="url(#clip0_962_49630)">
<path fill-rule="evenodd" clip-rule="evenodd" d="M172.838 27.5651C170.873 27.5651 169.392 25.8849 169.392 23.3222C169.392 20.7306 170.873 19.022 172.838 19.022C174.69 19.022 176.028 20.6452 176.028 23.3222C176.028 26.1411 174.803 27.5651 172.838 27.5651ZM173.607 15.3769C171.443 15.3769 169.848 16.3166 168.851 17.9685L168.054 15.7758H165.405V36.8484H169.62V29.5016C170.617 30.6122 171.984 31.2673 173.636 31.2673C177.737 31.2673 180.271 28.3909 180.271 23.3222C180.271 18.253 177.765 15.3769 173.607 15.3769ZM182.139 30.8685H186.354V15.7758H182.139V30.8685ZM156.199 27.5651C154.234 27.5651 152.753 25.8849 152.753 23.3222C152.753 20.7306 154.234 19.022 156.199 19.022C158.05 19.022 159.389 20.6452 159.389 23.3222C159.389 26.1411 158.164 27.5651 156.199 27.5651ZM156.968 15.3769C154.804 15.3769 153.209 16.3166 152.212 17.9685L151.415 15.7758H148.766V36.8484H152.981V29.5016C153.978 30.6122 155.345 31.2673 156.997 31.2673C161.098 31.2673 163.632 28.3909 163.632 23.3222C163.632 18.253 161.126 15.3769 156.968 15.3769ZM143.803 9.08363C142.351 9.08363 141.183 10.2512 141.183 11.7035C141.183 13.1557 142.351 14.3518 143.803 14.3518C145.256 14.3518 146.452 13.1557 146.452 11.7035C146.452 10.2512 145.256 9.08363 143.803 9.08363ZM210.781 22.8381C209.414 22.8381 208.559 21.9836 208.559 20.6167C208.559 19.2498 209.442 18.3953 210.838 18.3953C212.205 18.3953 213.002 19.2214 213.002 20.6167C213.002 21.9836 212.176 22.8381 210.781 22.8381ZM208.531 30.783H212.119C213.6 30.783 214.255 31.2673 214.255 32.3208C214.255 33.4883 213.088 34.1147 210.866 34.1147C208.844 34.1147 207.733 33.4883 207.733 32.3492C207.733 31.7229 208.018 31.153 208.531 30.783ZM219.154 15.3769H218.726C217.246 15.3769 216.277 15.7471 215.224 16.8578C214.17 15.9181 212.632 15.3769 210.781 15.3769C207.107 15.3769 204.686 17.4557 204.686 20.6452C204.686 22.3538 205.398 23.7777 206.623 24.689C205.227 25.2869 204.515 26.2836 204.515 27.6222C204.515 28.6757 204.943 29.5299 205.768 30.0711C204.43 30.6974 203.632 31.7513 203.632 33.061C203.632 35.738 206.139 37.2473 210.638 37.2473C215.537 37.2473 218.556 35.2537 218.556 32.0644C218.556 29.1882 216.505 27.5367 212.888 27.508H209.385C208.389 27.508 207.961 27.2233 207.961 26.5968C207.961 26.1698 208.218 25.8564 208.759 25.6855C209.357 25.8281 210.04 25.9133 210.781 25.9133C214.455 25.9133 216.875 23.8062 216.875 20.6452C216.875 20.0756 216.79 19.5631 216.647 19.0504H219.154V15.3769ZM184.247 9.08363C182.794 9.08363 181.627 10.2512 181.627 11.7035C181.627 13.1557 182.794 14.3518 184.247 14.3518C185.699 14.3518 186.895 13.1557 186.895 11.7035C186.895 10.2512 185.699 9.08363 184.247 9.08363ZM197.241 15.3769C195.048 15.3769 193.482 16.2314 192.542 17.6551L191.858 15.7758H189.21V30.8685H193.425V22.0691C193.425 20.3605 194.364 19.1643 196.073 19.1643C197.497 19.1643 198.152 19.9049 198.152 21.3286V30.8685H202.367V20.218C202.367 17.1426 200.26 15.3769 197.241 15.3769ZM59.6765 21.7274L48.0286 8.96973H46.5762V30.8685H50.6771V18.3953L62.2966 31.1246H63.7775V9.22595H59.6765V21.7274ZM86.153 17.4273L85.4409 15.7758H82.593V30.8685H86.8078V19.4493H91.2507V15.3769H90.9089C88.9723 15.3769 87.5484 16.0889 86.153 17.4273ZM141.696 30.8685H145.911V15.7758H141.696V30.8685ZM100.501 21.9552L97.9092 21.044C96.8554 20.7022 96.3998 20.275 96.3998 19.6199C96.3998 18.8226 97.0263 18.3102 98.0232 18.3102C99.2763 18.3102 100.017 18.9365 100.358 20.3035L103.69 19.2498C103.007 16.6584 101.127 15.3769 98.0515 15.3769C94.691 15.3769 92.4981 17.2279 92.4981 20.0187C92.4981 22.0121 93.6943 23.5215 95.8588 24.3186L98.3933 25.2586C99.2763 25.5432 99.988 25.9704 99.988 26.7961C99.988 27.679 99.2477 28.334 98.1372 28.334C96.827 28.334 95.7449 27.4228 95.3745 25.9704L92.0424 27.0524C92.783 29.8149 94.8904 31.2673 98.1372 31.2673C101.725 31.2673 104.118 29.2169 104.118 26.1127C104.118 24.2334 102.836 22.7525 100.501 21.9552ZM73.2792 27.5651C71.6558 27.5651 70.1179 26.5968 70.1179 23.3222C70.1179 20.0471 71.6558 19.022 73.2792 19.022C74.9025 19.022 76.4973 20.275 76.4973 23.3222C76.4973 26.6538 74.9025 27.5651 73.2792 27.5651ZM73.2792 15.3769C69.1497 15.3769 65.8748 18.2246 65.8748 23.3222C65.8748 28.4192 69.1497 31.2673 73.2792 31.2673C77.3516 31.2673 80.7123 28.4192 80.7123 23.3222C80.7123 18.2246 77.3802 15.3769 73.2792 15.3769ZM124.508 13.3266H130.232V30.8685H134.646V13.3266H139.91V9.22595H124.508V13.3266ZM120.238 15.7758H115.226L110.043 22.5532V9.22595H105.828V30.8685H110.043V23.8345L115.368 30.8685H120.523L114.371 23.1795L120.238 15.7758Z" fill="white"/>
<path fill-rule="evenodd" clip-rule="evenodd" d="M7.42133 1.76465L0 9.18524L10.736 19.9192L0 30.6514L7.42133 38.072L25.5768 19.9192L7.42133 1.76465Z" fill="white"/>
<path fill-rule="evenodd" clip-rule="evenodd" d="M10.736 19.9186H25.5768L0 9.18457L10.736 19.9186Z" fill="white" fill-opacity="0.933333"/>
<path fill-rule="evenodd" clip-rule="evenodd" d="M7.42133 1.76465L0 9.18524L25.5768 19.9192L7.42133 1.76465Z" fill="white"/>
<path fill-rule="evenodd" clip-rule="evenodd" d="M10.7385 19.9189L7.42383 38.0717L25.5793 19.9189H10.7385Z" fill="white"/>
<path fill-rule="evenodd" clip-rule="evenodd" d="M28.8871 1.76465L19.8359 10.8146L27.2591 18.2352L36.3084 9.18524L28.8871 1.76465Z" fill="white"/>
<path fill-rule="evenodd" clip-rule="evenodd" d="M28.8858 1.76465L27.2578 18.2352L36.3071 9.18524L28.8858 1.76465Z" fill="white"/>
<path fill-rule="evenodd" clip-rule="evenodd" d="M36.3084 30.6511L27.2591 21.6011L19.8359 29.0217L36.3084 30.6511Z" fill="white"/>
<path fill-rule="evenodd" clip-rule="evenodd" d="M28.8871 38.0725L36.3084 30.6519L19.8359 29.0225L28.8871 38.0725Z" fill="white"/>
</g>
<defs>
<clipPath id="clip0_962_49630">
<rect width="220" height="40" fill="white"/>
</clipPath>
</defs>
</svg>
