<svg width="175" height="40" viewBox="0 0 175 40" fill="none" xmlns="http://www.w3.org/2000/svg">
<path d="M40.4421 34.2482C37.8094 33.695 35.8559 32.6886 34.3182 31.0935C33.2722 30.0083 32.922 29.2481 32.5277 27.2062C32.2702 19.4959 32.357 15.8229 32.3243 6.32987H38.5861C38.5996 12.681 38.085 19.8735 38.9327 26.2509C39.3886 28.026 40.3024 29.1015 41.8429 29.6762C43.439 30.2716 46.4169 30.3669 48.3999 29.886C49.9981 29.4985 51.1653 28.5046 51.7121 27.0656C52.4191 19.9903 52.2115 16.6102 52.2647 6.32987H58.6046C58.6046 6.32987 58.7088 22.0823 58.4443 26.5471C58.1448 28.7629 57.6539 29.9602 56.5854 31.0811C55.4206 32.303 53.8299 33.2678 52.0475 33.8334C50.239 34.4074 50.3174 34.4001 45.6642 34.4268C41.4888 34.4508 41.3904 34.4474 40.4421 34.2482ZM0.199219 6.32987H6.53913V17.7832H20.7165C20.7314 14.0053 20.7016 10.1078 20.7165 6.32987C22.8153 6.31467 24.9365 6.34506 27.0353 6.32987V34.3712H20.6954V22.7336H6.53913V34.3712H0.199219V6.32987ZM59.9499 34.2952C64.4035 24.4522 67.8392 16.9056 72.674 6.32987C74.9242 6.34422 77.1745 6.31551 79.4247 6.32987L92.2213 34.2952C89.868 34.6219 88.5584 34.2952 85.246 34.2952C84.2585 31.9095 83.3529 29.895 82.4878 27.771C78.0875 27.7709 73.6872 27.7709 69.2869 27.7708L66.6103 34.2952C64.4997 34.1294 62.0125 34.5985 59.9499 34.2952ZM80.36 22.687C78.862 18.9985 77.5032 16.148 75.9144 12.2249L75.83 12.0078L71.4147 22.6823C74.3593 22.6855 78.3248 22.9315 80.36 22.687ZM88.4369 6.32987C90.8188 6.23413 92.6376 6.32987 95.2057 6.32987L102.236 27.8094C102.261 27.7847 103.597 22.9687 105.205 17.107L108.128 6.32987C110.623 6.31478 112.537 6.34495 115.612 6.32987L122.395 27.7654L128.858 6.32987H135.563L126.153 34.3608C123.542 34.3759 120.931 34.3457 118.32 34.3608C116.03 27.5492 114.288 20.443 111.894 13.6792C109.807 20.761 108.17 27.4228 106.217 34.3608H98.4672L88.4369 6.32987ZM147.808 34.2759C142.785 33.7461 139.155 30.9847 137.682 26.5731C137.129 24.9164 136.9 23.2443 136.899 20.8597C136.898 18.9156 137.002 17.7135 137.299 16.22C138.303 11.1736 140.995 7.91946 145.845 7.02422C152.369 5.81982 154.142 6.37634 161.65 6.32987V11.2696C157.799 11.453 153.704 10.9991 149.882 11.3592C147.456 11.633 145.745 12.6819 144.892 14.4178C144.49 15.235 144.213 16.2375 144.135 17.1536L144.081 17.7832H161.65V22.6467H143.994L144.05 23.512C144.267 26.8238 145.524 28.5328 148.277 29.2615C153.367 29.6393 155.1 29.4847 161.65 29.5151V34.3712C157.106 34.1603 151.551 34.2583 147.808 34.2759ZM167.295 6.32987H173.809V34.3712H167.295V6.32987Z" fill="white"/>
</svg>
