<svg width="162" height="40" viewBox="0 0 162 40" fill="none" xmlns="http://www.w3.org/2000/svg">
<path d="M138.667 34.665C141.345 33.5857 145.754 32.8705 151.515 34.3389L152.129 34.4619L151.515 34.707C148.935 35.8124 145.619 36.0584 143.776 35.4443C143.162 35.1987 142.671 34.8301 142.18 34.3389C141.269 34.4064 140.377 34.6682 139.523 35.0586C140.189 35.4532 142.654 36.852 144.27 39.0059L144.393 39.1289L144.27 39.252C144.147 39.3748 143.901 39.6204 143.655 39.7432H143.532L143.409 39.6201C142.232 38.2081 140.555 36.5963 138.632 35.5195C136.75 36.6014 135.108 38.2318 133.951 39.6201L133.828 39.7432H133.706C133.583 39.6204 133.215 39.3749 133.092 39.252L132.969 39.1289L133.092 39.0059C134.642 36.9394 136.975 35.483 137.749 35.0723C136.922 34.6989 136.06 34.4366 135.181 34.3389C134.689 34.8301 134.321 35.1987 133.584 35.4443C131.619 36.0584 128.426 35.8124 125.847 34.707L125.232 34.4619L125.847 34.3389C131.494 32.8705 135.895 33.5856 138.667 34.665ZM4.5 27.2324C4.5 31.1625 5.35953 34.1102 9.53516 34.1104C11.2546 34.1104 13.7116 33.2503 14.5713 30.7939C15.4307 28.7065 15.4307 26.0055 15.4307 25.3906V13.7227H19.8525V36.5664H15.6768V33.251H15.5537C13.8343 36.0756 10.8865 37.3037 7.69336 37.3037C2.90357 37.3037 0.201336 33.6193 0.201172 29.0752V13.7227H4.5V27.2324ZM87.2812 13.1084C94.0362 13.2312 97.2295 17.5302 97.2295 23.7939V25.8818H81.2627C80.8944 29.812 82.6145 33.9873 86.9131 33.9873C90.229 33.9872 91.9482 32.6363 92.4395 29.3203H96.9834C96.2465 34.4786 92.3169 37.0575 86.9131 37.0576C79.6668 37.0576 76.7188 31.8998 76.7188 25.2676C76.7188 18.6354 80.0349 13.1084 87.2812 13.1084ZM66.0312 12.9854C70.8211 12.9854 74.3832 16.0561 74.6289 20.9688H70.4531C70.2075 18.1439 68.8556 16.1787 65.7852 16.1787C61.7325 16.1789 60.1358 19.7406 60.1357 25.0215C60.1357 30.3025 61.7324 33.865 65.7852 33.8652C68.61 33.8652 70.3296 32.0222 70.5752 28.7061H74.874C74.5056 33.8643 70.6985 36.9354 65.6631 36.9355C58.4168 36.9355 55.4688 31.7768 55.4688 25.1445C55.4688 18.5124 58.785 12.9854 66.0312 12.9854ZM35.4502 12.9854C37.0477 12.9854 44.0469 13.3552 44.0469 20.7236V36.4443H39.748V22.0742C39.748 18.2668 38.1514 16.3018 34.4668 16.3018C34.4327 16.3001 32.1197 16.1928 30.291 18.0215C29.6768 18.6356 28.4492 19.6186 28.4492 24.1621V36.5664H24.1504V13.7227H28.4492V17.0391C30.0459 14.2142 33.1166 12.9854 35.4502 12.9854ZM52.3994 36.5664H48.1006V13.7227H52.3994V36.5664ZM109.265 2.5459C110.247 2.5459 111.352 2.79149 112.335 3.03711V6.59961C111.598 6.59959 110.861 6.47656 110.124 6.47656C107.668 6.47662 106.317 7.09061 106.439 9.54688V13.7227H111.721V16.6699H106.439V36.3213H102.142V16.6699H98.2109V13.7227H102.142V8.80957C102.265 3.8971 106.071 2.5459 109.265 2.5459ZM120.196 28.9346C121.916 29.1802 126.828 32.0049 127.565 33.1104L127.812 33.3564H127.442C123.39 34.0931 121.179 31.2685 119.951 29.1807L119.828 28.9346L119.705 28.8115L120.196 28.9346ZM157.409 28.8115L157.286 29.0576C156.058 31.1455 153.847 33.9703 149.794 33.2334H149.426L149.672 32.9873C150.41 31.8816 155.322 29.0571 157.041 28.8115L157.532 28.6895L157.409 28.8115ZM126.214 27.584C127.565 28.4437 131.373 31.6368 131.618 32.7422L131.741 32.9873H131.495C127.319 33.3556 126.337 30.1624 125.969 27.7061V27.4609L125.846 27.3379L126.214 27.584ZM151.146 27.3379V27.584C150.654 30.0402 149.672 33.2334 145.619 32.8652H145.373L145.496 32.6191C145.865 31.5136 149.548 28.3209 150.899 27.4609L151.269 27.2158L151.146 27.3379ZM138.62 1.17773C146.972 1.17773 153.85 7.93272 153.85 16.4072C153.85 24.8816 146.972 31.6367 138.62 31.6367C130.146 31.6367 123.391 24.7588 123.391 16.4072C123.391 7.93274 130.268 1.17776 138.62 1.17773ZM123.512 22.6709C124.494 23.8992 125.723 28.0753 125.723 29.6719V30.04L125.6 30.4082L125.354 30.2861C123.634 29.1808 122.651 27.5833 122.651 25.6182C122.529 24.6359 122.775 23.7763 123.021 22.7939L123.144 22.5479L123.266 22.3027L123.512 22.6709ZM154.091 22.5479L154.214 22.7939C154.459 23.7763 154.582 24.7586 154.582 25.6182C154.459 27.5833 153.599 29.1808 151.88 30.2861L151.635 30.4082L151.512 30.04V29.6719C151.512 28.0752 152.74 23.8991 153.723 22.6709L153.968 22.3027L154.091 22.5479ZM117.247 22.0566C119.212 23.2848 122.283 27.0928 122.897 28.6895L123.02 29.1807L122.528 29.0576C119.335 27.9522 117.37 24.5134 116.879 22.3027V21.8115L117.247 22.0566ZM160.234 22.0566V22.3027C159.866 24.5135 157.778 28.0751 154.585 29.0576L154.094 29.1807L154.217 28.6895C154.831 27.0928 157.901 23.2848 159.866 22.0566L160.357 21.8115L160.234 22.0566ZM133.216 3.01953C127.812 5.10747 124.251 10.266 124.128 16.1611C124.865 15.5471 125.97 14.8101 126.461 14.5645C127.075 14.3188 127.566 13.7047 127.443 12.9678C127.32 12.2303 126.461 9.5285 128.181 7.68652C129.9 5.84447 132.603 5.59893 135.182 7.80957C137.883 10.1431 136.286 12.3544 135.918 12.8457C135.672 13.0914 135.427 13.5822 135.55 14.0732C135.795 14.8102 135.304 14.5651 135.059 14.9336C135.059 15.0565 135.181 15.3021 135.059 15.4248C134.936 15.5474 134.813 15.4248 134.812 15.5469C134.812 15.6697 134.935 15.7932 134.812 15.916C134.69 16.0384 134.567 15.9157 134.321 16.1611C134.076 16.4067 133.953 16.7753 133.094 16.7754C132.357 16.7754 131.128 16.0385 130.637 16.7754C130.391 17.021 130.514 17.2668 130.514 17.3896C130.759 18.1262 131.25 22.1756 131.251 22.4248C131.865 23.4073 133.707 22.9167 134.321 23.2852C134.444 23.2852 134.567 23.2848 134.812 23.1621C134.935 23.0393 135.55 22.5479 136.041 22.5479C136.164 22.5479 136.532 22.5477 136.286 22.916C136.163 23.0388 136.409 23.1619 136.532 23.0391C136.778 22.9162 137.883 22.4252 137.392 24.1445C136.9 25.7412 135.672 25.7415 134.812 25.373C134.69 25.2503 134.567 25.2502 134.198 25.373C133.828 25.496 131.619 25.8643 131.128 25.8643C130.637 25.8643 129.9 25.9868 129.286 25.373C128.918 25.8643 128.549 26.6008 128.795 27.2148C129.286 27.7061 129.777 28.0749 130.269 28.4434C131.251 28.689 132.479 28.5657 133.462 28.1973C133.709 28.0737 136.656 26.8464 138.375 26.7236C139.725 26.7233 139.725 25.4959 139.479 24.8818C139.357 24.3906 139.234 23.5303 139.234 23.0391C139.234 22.5478 139.111 21.811 138.129 21.0742C137.146 20.3373 136.532 19.8455 136.532 19.2314C136.532 18.8631 136.655 18.3719 136.9 18.249C137.146 18.1262 137.146 17.8806 137.146 17.7578C137.024 17.5122 136.901 17.0216 137.515 17.0215C137.515 17.0215 137.761 16.7752 137.761 16.6523C137.76 16.5285 137.515 15.7935 138.006 15.916C138.129 15.916 138.375 15.7925 138.375 15.5469C138.374 15.3004 137.393 14.1963 138.866 14.1963C139.726 14.1962 140.831 13.8278 141.322 13.2139C143.533 10.3891 146.972 9.89754 150.165 12.9678C153.236 15.7926 152.621 20.2146 150.656 22.1797C148.937 24.0216 147.586 24.3906 146.235 24.3906C145.99 24.3906 145.621 24.1447 145.498 24.7588C145.375 25.2501 145.498 26.8468 147.463 27.9521C150.902 25.2502 153.236 21.0743 152.99 16.4072C152.99 13.5824 152.253 10.7574 150.656 8.42383C149.797 9.03788 148.937 9.52902 148.077 9.89746C148.2 10.0203 148.445 10.6348 148.445 10.6348L148.568 10.8799L147.709 10.5117C147.709 10.5117 147.586 10.2665 147.586 10.1436C147.466 10.1436 147.229 10.2601 147.218 10.2656C147.218 10.2656 146.726 10.1433 146.112 10.0205C146.124 10.0166 146.853 9.77289 147.34 9.5293C146.849 8.54678 146.235 7.56381 145.498 6.7041C144.638 7.07256 143.778 7.56393 142.796 7.80957C143.04 8.54054 143.646 10.3594 143.655 10.3887L143.042 10.6348C143.042 10.6348 142.427 8.79271 142.182 8.05566C141.076 8.42401 139.848 8.54686 138.743 8.54688V11.3711H139.111C139.848 11.3711 140.708 11.2488 141.69 11.126H142.182L141.322 11.8623C140.463 11.9851 139.726 12.1084 138.743 12.1084V13.2139H138.129V8.66992H136.655C136.532 8.5471 136.532 8.4236 136.409 8.30078L136.286 8.05566H136.532C136.901 8.17846 137.76 8.17773 138.129 8.17773V5.72168C137.515 5.72168 136.9 5.59915 136.286 5.35352C136.041 5.84275 135.311 7.18266 135.304 7.19531C135.296 7.1952 135.177 7.19195 135.059 7.07324C134.936 7.07324 134.812 6.9502 134.812 6.9502C134.812 6.9502 135.549 5.72183 135.795 5.23047C135.304 4.98492 134.813 4.73937 134.444 4.37109C133.83 4.73961 132.725 5.72168 132.725 5.72168C132.716 5.71733 132.477 5.59866 132.356 5.59863C132.118 5.47958 131.995 5.47667 131.988 5.47656C131.988 5.47656 133.339 4.37121 133.953 3.87988C133.707 3.63424 133.461 3.26517 133.216 3.01953ZM122.283 18.127C122.406 18.4954 122.529 19.1091 122.529 19.8457C122.529 21.9336 122.16 24.5133 121.792 25.373L121.67 25.7412L121.424 25.373C120.81 24.3905 120.441 23.4074 120.441 22.4248C120.441 20.9512 120.933 19.4775 121.915 18.0039L122.038 17.7578L122.161 17.6357L122.283 18.127ZM155.2 17.6357L155.323 17.8809C156.306 19.3547 156.797 20.9517 156.797 22.3027C156.797 23.2698 156.515 24.1429 156.033 24.9219L155.568 25.6191L155.446 25.25C154.955 24.3902 154.709 21.8115 154.709 19.7236C154.709 18.9867 154.832 18.3724 154.955 18.0039L155.077 17.5127L155.2 17.6357ZM160.97 15.4248V15.6699C161.093 17.2666 160.97 21.074 157.899 23.0391L157.531 23.2852V22.7939C157.531 21.3203 159.25 17.1448 160.479 15.5479L160.848 15.0566L160.97 15.4248ZM116.879 15.4248C118.107 16.8991 119.826 21.1972 119.826 22.6709V23.1621L119.458 22.916C116.388 20.8281 116.264 17.0207 116.387 15.5469V15.3018L116.51 14.9336L116.879 15.4248ZM87.0352 16.1787C83.4737 16.1789 81.3859 19.2493 81.3857 22.9336H92.8076C92.9303 19.1264 91.2109 16.1787 87.0352 16.1787ZM122.038 13.582C122.161 15.1787 120.932 18.6177 119.949 19.9688L119.704 20.3369L119.581 19.9688C119.458 19.6003 119.336 19.1087 119.336 18.7402C119.213 16.1611 121.178 14.0731 121.792 13.459L121.915 13.2139L122.038 13.0908V13.582ZM155.32 13.3369L155.443 13.459C156.058 14.0732 158.022 16.1613 157.899 18.7402C157.899 19.1087 157.776 19.4775 157.653 19.9688L157.531 20.3369L157.285 19.9688C156.425 18.7406 155.074 15.1787 155.197 13.582V13.0908L155.32 13.3369ZM118.106 9.5293C118.72 11.1261 119.088 14.6878 118.843 16.4072L118.598 17.3896L118.475 17.1436L118.352 16.8984C117.123 15.3019 117.001 13.091 117.246 11.6172C117.369 10.6346 117.615 9.77471 117.738 9.40625L117.86 9.16113V9.03809L118.106 9.5293ZM159.254 9.16113L159.376 9.40625C159.499 9.77469 159.744 10.5119 159.867 11.6172C160.113 13.2137 160.113 15.3018 158.763 16.8984L158.64 17.1445L158.517 17.2666L158.271 16.2842C158.148 14.5646 158.394 11.0028 159.008 9.40625L159.254 8.91504V9.16113ZM123.265 9.03809C122.896 10.5119 121.176 13.214 119.948 14.3193L119.58 14.5645V14.0732C119.58 11.8628 120.685 10.1436 123.019 8.66992L123.36 8.55566L123.265 9.03809ZM154.094 8.54688L154.339 8.66992C156.672 10.1437 157.778 11.8627 157.655 14.0732V14.5645L157.286 14.3193C155.935 13.2139 154.462 10.5116 153.971 8.91504L153.848 8.30078L154.094 8.54688ZM122.161 5.72168C121.793 7.93242 120.809 9.89756 119.581 11.0029L119.336 11.249L119.213 10.7578V10.6348C118.844 8.30155 120.932 6.21376 121.792 5.47656L122.038 5.23047L122.283 5.10742L122.161 5.72168ZM155.199 5.1084L155.444 5.35352C156.304 6.09041 158.392 8.17824 158.023 10.5117V10.6348L157.9 11.126L157.655 10.8809C156.427 9.77556 155.445 7.81017 155.076 5.59961L154.953 4.98535L155.199 5.1084ZM147.832 5.35352C147.341 5.72191 146.726 6.21262 146.112 6.58105C146.849 7.44073 147.463 8.42377 147.954 9.40625C148.814 8.91497 149.674 8.42389 150.411 7.93262C149.797 6.95019 148.937 5.96763 147.832 5.35352ZM123.388 8.54688L123.36 8.55566L123.388 8.42383V8.54688ZM52.7676 8.31836H47.6094V3.65137H52.7676V8.31836ZM140.831 5.10742C140.217 5.35301 139.48 5.47651 138.866 5.47656V8.05566C139.971 7.93286 141.077 7.81006 142.06 7.56445C141.691 6.70472 141.322 5.84434 140.831 5.10742ZM142.796 4.125C142.427 4.49344 141.937 4.73972 141.445 4.98535C141.936 5.72216 142.304 6.58186 142.673 7.44141C143.532 7.073 144.392 6.82708 145.252 6.33594C144.515 5.47628 143.656 4.73905 142.796 4.125ZM144.024 2.89648C143.779 3.14212 143.533 3.38838 143.287 3.75684C144.147 4.49375 145.007 5.23011 145.744 6.08984C146.358 5.72155 146.972 5.35332 147.463 4.8623C146.358 4.00259 145.253 3.38775 144.024 2.89648ZM138.252 2.40527C137.761 3.14211 137.269 3.87937 136.655 4.61621C137.269 4.73902 137.761 4.8623 138.252 4.8623V2.40527ZM138.866 4.8623C139.48 4.86225 139.972 4.739 140.463 4.61621C139.972 3.75648 139.48 3.01937 138.866 2.40527V4.8623ZM137.638 2.40527C136.778 2.77372 135.918 3.26557 135.059 3.75684C135.304 4.00242 135.796 4.2483 136.164 4.37109C136.533 3.63418 137.024 3.01937 137.638 2.40527ZM139.726 2.2832C140.217 3.02 140.708 3.63427 141.199 4.37109C141.568 4.24829 141.936 4.00245 142.305 3.75684C141.445 3.14278 140.585 2.65165 139.726 2.2832ZM140.217 2.03711C141.199 2.40557 141.936 2.8974 142.796 3.38867C142.919 3.14303 143.165 2.89701 143.41 2.65137C142.428 2.28291 141.322 2.03711 140.217 2.03711ZM137.023 1.91406C135.918 2.03688 134.813 2.28269 133.83 2.52832C133.953 2.77396 134.199 3.01999 134.444 3.26562C135.304 2.77435 136.164 2.28252 137.023 1.91406Z" fill="white"/>
</svg>
