<svg width="161" height="40" viewBox="0 0 161 40" fill="none" xmlns="http://www.w3.org/2000/svg">
<path d="M83.7529 22.6924C83.7529 25.0331 84.3693 26.8711 85.6025 28.2051C86.8359 29.5391 88.5982 30.206 90.8887 30.2061C93.1792 30.2061 94.9414 29.5391 96.1748 28.2051C97.408 26.8711 98.0244 25.0331 98.0244 22.6924V7.36426H101.158V22.7305C101.158 25.9271 100.278 28.4448 98.5156 30.2822C96.7789 32.0944 94.2363 33 90.8887 33C87.5413 33 84.9865 32.0942 83.2246 30.2822C81.4879 28.4448 80.6192 25.94 80.6191 22.7686V7.36426H83.7529V22.6924ZM74.6133 32.5469H71.0264L68.7988 26.959H56.2637L54.0361 32.5469H50.4492L60.5674 7.36328H64.457L74.6133 32.5469ZM120.882 7.36426C123.223 7.36426 125.123 8.05621 126.583 9.44043C128.043 10.8248 128.773 12.6626 128.773 14.9531C128.773 17.1175 128.144 18.8414 126.886 20.125C125.627 21.4087 124.079 22.1263 122.241 22.2773L129.037 32.5469H125.338L118.919 22.542H113.897V32.5469H110.764V7.36426H120.882ZM159 32.5469H155.413L153.186 26.959H140.65L138.423 32.5469H134.836L144.954 7.36426H148.844L159 32.5469ZM57.1699 24.165H67.8545L62.5312 10.6104L57.1699 24.165ZM141.557 24.165H152.241L146.918 10.6113L141.557 24.165ZM113.897 19.7861H120.505C121.99 19.7861 123.198 19.3326 124.129 18.4268C125.06 17.5207 125.526 16.3626 125.526 14.9531C125.526 13.5436 125.06 12.3985 124.129 11.5176C123.198 10.6115 121.99 10.1582 120.505 10.1582H113.897V19.7861Z" fill="white"/>
<rect x="2.5" y="1.5" width="37" height="37" rx="18.5" stroke="white" stroke-width="3"/>
</svg>
