<svg width="229" height="40" viewBox="0 0 229 40" fill="none" xmlns="http://www.w3.org/2000/svg">
<path d="M18.0508 1C18.1209 1.96421 18.2091 2.78819 18.2441 3.55957C28.0105 4.66427 34.4631 12.0118 34.5332 21.3574C34.533 31.5796 26.8705 39.4697 16.5781 39.4697C10.9848 39.4697 5.81196 37.1196 2.49805 33.0518L2.5332 32.9648C3.63778 33.4207 4.83027 33.6484 6.04004 33.6484C9.77457 33.6484 11.1425 31.1238 11.8965 28.7393C12.931 25.4253 13.685 24.513 16.1572 22.3213C19.3835 19.4983 20.3828 17.6221 20.3828 14.9043C20.3828 12.3093 19.4709 10.1531 17.998 8.52246C18.5942 10.6264 18.875 12.345 18.875 14.3789C18.8748 17.7977 17.0515 19.323 15.0527 21.1113C13.2818 22.6543 11.3708 24.4081 10.459 27.8799C9.98558 29.7033 9.49435 30.1064 8.4248 30.1064C7.14494 30.1064 6.79453 29.633 6.26855 27.4766C5.42692 23.9698 4.11135 22.8648 2.9541 21.9004C1.48132 20.6731 0.201172 19.5857 0.201172 14.168C0.201178 11.7833 0.447175 7.11929 0.797852 2.92871H0.833008L4.33984 7.66309C5.65478 6.87419 7.53046 6.34774 9.44141 6.34766C10.7914 6.34766 12.1244 6.59318 13.3867 7.10156L14.2637 5.94434C12.8785 5.41835 11.423 5.15527 9.9502 5.15527C8.40736 5.15529 6.88199 5.4184 5.44434 5.94434L5.40918 5.85645C8.47758 4.10317 12.1777 3.38477 15.6143 3.38477H16.1748L18.0156 1H18.0508ZM65.9648 8.43164C67.9918 8.43167 69.6083 10.0737 69.6084 12.1006V24.5967C69.6084 29.1896 66.4523 33.167 60.7305 33.167C57.3436 33.167 55.0598 32.2171 53.7256 30.8828C53.033 30.2158 52.6739 29.2922 52.6738 28.3174C52.6739 26.47 54.1879 24.8271 56.1123 24.8271C56.8049 24.8016 57.4979 25.0068 58.0879 25.3916C59.0885 25.9304 59.6016 26.2128 60.5508 26.2129C61.5 26.2129 62.1932 25.6231 62.1934 24.4688V12.1006C62.2192 10.048 63.8868 8.40598 65.9395 8.43164H65.9648ZM138.502 8.45703C143.454 8.45716 147.662 11.4339 147.662 16.5654C147.662 19.7213 145.968 21.9793 143.454 23.2109L146.276 27.0859C148.021 29.4722 146.507 32.9101 143.3 32.9102C142.068 32.9101 140.888 32.2947 140.195 31.2686L135.474 24.4424V29.2158C135.473 31.2426 133.832 32.91 131.779 32.9102C129.727 32.9102 128.059 31.2683 128.059 29.2158V12.1006C128.059 10.0738 129.701 8.45713 131.728 8.45703H138.502ZM158.978 8.45703C161.133 8.45706 162.468 9.68887 163.237 11.4336L170.139 27.7275C171.114 29.9854 169.652 32.91 166.804 32.9102C165.29 32.9358 163.904 32.0121 163.365 30.5752L162.852 29.1123H155.026L154.564 30.5244C154.077 31.9611 152.716 32.9358 151.177 32.9102C148.201 32.9099 146.738 29.9848 147.79 27.5986L154.718 11.4336C155.488 9.68887 156.771 8.45703 158.978 8.45703ZM81.1553 8.45703C83.3105 8.45709 84.6709 9.68889 85.415 11.4336L92.291 27.7012C93.266 29.9591 91.8032 32.8847 88.9551 32.8848C87.4415 32.9102 86.0565 31.9863 85.5176 30.5498L85.0039 29.0869H77.1777L76.7158 30.498C76.2283 31.9349 74.8686 32.9104 73.3291 32.8848C70.3527 32.8847 68.8904 29.9592 69.9424 27.5986L76.8955 11.4336C77.6653 9.68887 78.9487 8.45703 81.1553 8.45703ZM96.9863 8.40625C99.0389 8.40628 100.707 10.048 100.707 12.1006V25.8799H106.43C108.302 25.9058 109.79 27.4192 109.842 29.292C109.893 31.2419 108.354 32.8332 106.43 32.8848H96.9355C94.9085 32.8591 93.292 31.2165 93.292 29.1895V12.1006C93.2921 10.0738 94.9339 8.40647 96.9863 8.40625ZM114.204 8.40625C116.257 8.4064 117.925 10.0481 117.925 12.1006V25.8799H123.801C125.725 25.9315 127.264 27.5476 127.213 29.4717C127.163 31.3361 125.644 32.8395 123.8 32.8848H114.152C112.125 32.859 110.483 31.2164 110.509 29.1895V12.1006C110.509 10.0737 112.151 8.40625 114.204 8.40625ZM185.278 8.43164C188.023 8.43195 189.666 11.2033 188.562 13.8203L182.045 29.8564C181.326 31.6012 179.992 32.8847 177.657 32.8848C175.271 32.8848 173.911 31.6013 173.218 29.8564L166.675 13.8203C165.623 11.1519 167.24 8.45722 169.934 8.45703C171.601 8.45705 172.911 9.32997 173.424 10.8438L177.632 21.749L181.788 10.8184C182.301 9.30458 183.585 8.43164 185.278 8.43164ZM56.4453 8.37988C58.3183 8.40557 59.807 9.91995 59.8584 11.793C59.9096 13.7429 58.3696 15.3334 56.4453 15.3848H50.2109V17.7197H55.5215C57.2918 17.7198 58.7029 19.1568 58.7031 20.9014C58.7031 22.6718 57.2663 24.083 55.5215 24.083H50.2109V29.2412C50.1594 31.2937 48.4908 32.884 46.4639 32.8584C46.4639 32.8841 46.4641 32.8843 46.4385 32.833C44.4116 32.8073 42.7952 31.1655 42.7949 29.1387V12.0234C42.7952 9.99673 44.4372 8.38011 46.4639 8.37988H56.4453ZM203.444 8.43164C205.369 8.48298 206.908 10.0993 206.857 12.0234C206.806 13.9478 205.189 15.4878 203.265 15.4365V15.4111H197.056V17.4639H202.29C203.958 17.4897 205.292 18.9262 205.267 20.5938C205.241 22.2616 203.829 23.6216 202.136 23.5703H197.056V25.8545H203.444C205.369 25.9058 206.909 27.522 206.857 29.4463C206.808 31.3105 205.289 32.8139 203.444 32.8594H193.283C191.256 32.8592 189.64 31.2164 189.64 29.1895V12.0752C189.64 10.0482 191.283 8.43164 193.31 8.43164H203.444ZM224.356 8.40625C226.383 8.40628 228 10.0482 228 12.0752V29.2412C228 31.2169 226.383 32.833 224.382 32.833C222.996 32.8329 221.816 32.0119 221.123 30.96L214.889 21.5176V29.1641C214.889 31.1911 213.246 32.833 211.219 32.833C209.192 32.8328 207.55 31.191 207.55 29.1641V12.0498C207.55 10.0229 209.192 8.40644 211.219 8.40625C212.733 8.40627 213.734 9.22733 214.427 10.2793L220.661 19.5674V12.1006C220.661 10.0737 222.304 8.43164 224.331 8.43164C224.334 8.43154 224.356 8.43003 224.356 8.40625ZM157.104 23.2109H160.799L158.926 18.0791L157.104 23.2109ZM79.2822 23.1855H82.9766L81.1035 18.0537L79.2822 23.1855ZM4.32227 17.6748C3.95413 18.0955 3.70876 18.604 3.60352 19.1475L3.6377 19.1826C4.70719 19.1826 5.79466 19.3054 6.8291 19.5859V19.5156C6.21548 18.6392 5.339 17.9904 4.32227 17.6748ZM135.448 18.6436H138.297C139.579 18.6433 140.272 17.8229 140.272 16.8994C140.272 15.9759 139.579 15.1545 138.297 15.1543H135.448V18.6436ZM164.571 7.27734C165.418 7.27745 166.085 7.99535 166.085 8.8418C166.085 9.68853 165.366 10.3821 164.52 10.3564C163.673 10.3563 162.98 9.63759 163.006 8.79102C163.006 7.9701 163.673 7.30316 164.52 7.27734H164.571ZM153.358 7.27734C154.179 7.30313 154.846 7.97009 154.872 8.79102C154.872 9.63761 154.205 10.3046 153.358 10.3047C152.512 10.3047 151.845 9.63769 151.845 8.79102C151.845 7.94435 152.512 7.27734 153.358 7.27734ZM75.5098 7.22559C76.3563 7.22561 77.0495 7.91817 77.0498 8.76465C77.0498 9.58563 76.3571 10.2535 75.5361 10.2793C74.6894 10.305 73.9964 9.61139 73.9707 8.76465C73.971 7.9183 74.6634 7.22582 75.5098 7.22559ZM86.7236 7.22559C87.57 7.22587 88.2624 7.91833 88.2627 8.76465C88.2627 9.61138 87.544 10.2793 86.6973 10.2793C85.8506 10.2792 85.1836 9.61132 85.1836 8.76465C85.1839 7.91815 85.8771 7.22559 86.7236 7.22559Z" fill="white"/>
</svg>
