<svg width="147" height="40" viewBox="0 0 147 40" fill="none" xmlns="http://www.w3.org/2000/svg">
<path d="M34.6424 30.8646C28.4819 30.8646 23.837 26.2031 23.837 20.0218C23.837 13.8401 28.4819 9.17894 34.642 9.17894C40.8021 9.17894 45.4469 13.808 45.4469 19.947C45.4469 26.1706 40.8017 30.8642 34.642 30.8642L34.6424 30.8646ZM34.6055 14.4558C31.7529 14.4558 29.4321 16.9527 29.4321 20.0218C29.4321 23.0904 31.7688 25.5873 34.642 25.5873C37.5635 25.5873 39.8519 23.1426 39.8519 20.0218C39.8519 16.9527 37.4983 14.4558 34.6055 14.4558ZM53.1231 0.5H47.528V30.2221H53.1231V0.5ZM80.7715 30.2201V9.77379H86.362V12.4209C86.6755 11.8552 87.7662 9.13788 92.4271 9.13788V14.2202H92.3181C88.8139 14.2202 86.3665 16.554 86.3665 19.8945V30.2201H80.7715ZM103.195 30.8202C97.0351 30.8202 92.3898 26.1587 92.3898 19.9774C92.3898 13.7961 97.0351 9.1346 103.195 9.1346C109.355 9.1346 114 13.7641 114 19.9027C114 26.1263 109.355 30.8202 103.195 30.8202ZM103.158 14.4115C100.306 14.4115 97.9848 16.9087 97.9848 19.9774C97.9848 23.0461 100.322 25.5421 103.195 25.5421C106.116 25.5421 108.405 23.0978 108.405 19.977C108.405 16.9083 106.051 14.4115 103.158 14.4115ZM121.846 9.77379H116.088V30.2201H121.846V9.77379ZM118.97 0.5C117.1 0.5 115.58 2.04727 115.58 3.94965C115.58 5.85244 117.1 7.40054 118.97 7.40054C120.84 7.40054 122.362 5.85203 122.362 3.94965C122.362 2.04727 120.84 0.5 118.97 0.5ZM71.862 9.782V12.604C71.823 12.5219 70.2422 9.12762 65.2356 9.12762C59.6131 9.12762 55.2087 13.8359 55.2087 19.8461L55.2108 19.9438L55.2087 19.9988L55.2108 20.0534L55.2087 20.1519C55.2087 26.162 59.6131 30.8699 65.2356 30.8699C70.2422 30.8699 71.823 27.4749 71.862 27.3932V30.2283H77.4558V9.782H71.862ZM71.7845 20.1486C71.7845 23.1713 69.1609 25.6308 66.1251 25.6308C63.143 25.6308 60.8054 23.1918 60.8034 20.0661C60.8034 20.0435 60.8062 20.0213 60.8062 19.9988C60.8062 19.9758 60.8034 19.9544 60.8034 19.9314C60.8054 16.8057 63.143 14.3663 66.1251 14.3663C69.1609 14.3663 71.7845 16.8262 71.7845 19.8493L71.7829 19.9224L71.7845 19.9988L71.7829 20.0747L71.7845 20.1486ZM11.1242 9.17853C4.96414 9.17853 0.199219 13.2772 0.199219 22.3072V39.5H5.79388V29.0693C7.26486 30.1441 9.12715 30.8646 11.1242 30.8646C17.2835 30.8646 21.9292 26.1706 21.9292 19.947C21.9292 13.808 17.2835 9.17894 11.1242 9.17894V9.17853ZM11.1242 25.5873C8.25112 25.5873 6.0344 23.0904 6.0344 20.0218C6.0344 16.9527 8.23473 14.5782 11.0874 14.5782C13.9802 14.5782 16.3337 16.9531 16.3337 20.0218C16.3337 23.1426 14.0461 25.5873 11.1242 25.5873ZM134.734 30.8215C140.894 30.8215 145.659 26.7228 145.659 17.6928V0.5H140.064V10.9307C138.593 9.85548 136.731 9.13542 134.734 9.13542C128.574 9.13542 123.929 13.8294 123.929 20.053C123.929 26.192 128.574 30.8215 134.734 30.8215ZM134.734 14.4127C137.607 14.4127 139.823 16.9096 139.823 19.9782C139.823 23.0473 137.623 25.4218 134.771 25.4218C131.877 25.4218 129.524 23.0469 129.524 19.9782C129.524 16.8574 131.812 14.4127 134.734 14.4127Z" fill="white"/>
</svg>
