<svg width="115" height="40" viewBox="0 0 115 40" fill="none" xmlns="http://www.w3.org/2000/svg">
<path d="M6.42695 39.1379C3.83806 38.7028 1.70604 37.0711 1.16215 35.1349C0.835821 33.9819 0.901086 33.612 2.31519 28.4995C4.29492 21.3855 6.23115 14.4021 7.25365 10.6601C7.84105 8.57161 8.73302 5.33006 9.25515 3.48086L10.1906 0.108777L16.8913 0.0435101C20.916 0.0217547 23.5702 0.0652647 23.5702 0.195797C23.5702 0.304574 23.2221 1.6099 22.787 3.08926C22.3736 4.56863 21.8297 6.46134 21.6122 7.28805C21.3946 8.13651 20.3721 11.7914 19.3714 15.4463C18.3489 19.1012 17.0436 23.7786 16.4779 25.8454L15.4337 29.5873L15.9123 30.0877C16.3256 30.4793 16.6955 30.5663 18.1531 30.6533C20.5897 30.7621 21.7645 30.5445 22.1778 29.9136C22.4824 29.435 22.9175 27.9121 26.4201 15.2288C27.2686 12.183 28.3346 8.35406 28.7915 6.74416C29.2483 5.13427 29.8575 2.95873 30.1403 1.91447L30.6407 0H37.3413C41.018 0 44.0202 0.0435107 44.0202 0.108777C44.0202 0.174043 43.5198 2.02325 42.9107 4.19879C42.3015 6.37432 41.279 10.0727 40.6481 12.4006C36.3188 28.0862 34.4261 34.6563 33.9257 35.6135C32.838 37.7671 30.9452 38.7681 27.2686 39.1597C24.6144 39.4207 8.08036 39.399 6.42695 39.1379ZM39.6256 39.2467C39.5604 39.1812 39.6474 38.6808 39.8214 38.1154C39.9737 37.5495 40.4523 35.8746 40.8657 34.3735C41.2573 32.8724 42.258 29.3045 43.063 26.4328C43.8462 23.5611 44.9122 19.7539 45.4126 17.9482L46.3263 14.6849L60.8154 14.6196L75.3044 14.5761L74.9128 15.9249C74.6953 16.6864 74.1514 18.6443 73.7163 20.2978L72.8896 23.2782H57.3563L56.5513 26.1717C55.6593 29.2827 53.5708 36.9626 53.1575 38.4635L52.9182 39.3772H46.3263C42.7149 39.3772 39.6909 39.3337 39.6256 39.2467ZM80.6563 39.0509C77.4582 38.3547 75.5655 36.5055 75.5655 34.0471C75.5655 33.1769 77.0449 27.3682 78.8288 21.3203C79.0464 20.5371 79.699 18.2527 80.2429 16.2077C82.2009 9.02848 83.2016 5.52586 83.6802 4.35107C84.6157 1.97974 86.552 0.717928 90.0113 0.23931C91.0336 0.0870228 96.1245 0 103.021 0H114.334L114.203 0.500374C114.138 0.761438 113.594 2.69766 113.028 4.78618L111.962 8.59337L103.934 8.70215C98.2561 8.78917 95.7762 8.89794 95.4499 9.07199C94.9278 9.37656 94.645 10.2685 91.4469 21.9076C90.2069 26.3675 89.4889 29.348 89.5759 29.6526C89.8153 30.6098 90.3154 30.6751 98.8873 30.6751C105.653 30.6751 106.915 30.7186 106.828 30.9796C106.763 31.1319 106.393 32.4372 106.023 33.8513C105.653 35.2872 105.153 37.0929 104.913 37.9196L104.478 39.3772L93.2308 39.3555C84.7463 39.3555 81.657 39.2684 80.6563 39.0509ZM48.1537 8.31055C48.1537 8.09299 48.4366 6.93996 48.7846 5.74341C49.1327 4.56862 49.6331 2.78469 49.8942 1.8057L50.3728 0H64.8183C72.7591 0 79.2639 0.0435107 79.2639 0.108777C79.2639 0.28282 78.2849 3.91597 77.567 6.41783L76.9361 8.59337L62.5558 8.65864C48.7194 8.70215 48.1537 8.68039 48.1537 8.31055Z" fill="white"/>
</svg>
