<svg width="126" height="40" viewBox="0 0 126 40" fill="none" xmlns="http://www.w3.org/2000/svg">
<path d="M84.5864 12.3664H91.6093V15.4177C93.1711 12.8173 95.8455 11.3598 98.918 11.3598C102.521 11.3598 105.543 13.1109 106.962 15.9105C108.574 13.1109 111.882 11.4018 115.342 11.4018C120.997 11.4018 124.948 15.7114 124.948 21.8665V37.9934H117.639V23.3764C117.639 20.3251 115.781 18.0706 113.005 17.9658C110.177 17.9658 108.278 20.2201 108.278 23.3764V37.9934H100.97V23.3764C100.97 20.1258 99.214 17.9658 96.4886 17.9658C93.7631 17.9658 91.9053 20.1153 91.9053 23.3764V37.9934H84.5966V12.356L84.5864 12.3664ZM55.77 24.7395C55.617 16.8228 50.2068 11.3808 42.3266 11.3808C34.4463 11.3808 28.5871 16.9907 28.5871 24.9912C28.5871 32.9917 34.2829 39 42.3266 39C48.2267 39 53.3407 35.7494 54.6472 31.2931L48.2674 29.8461C47.3896 31.7964 45.1542 33.2434 42.5205 33.2434C39.887 33.2434 37.6616 31.6496 36.6408 29.0701H36.6511L55.77 24.7395ZM42.1836 17.1269C44.8887 17.1269 47.0017 18.7207 47.9306 21.08L35.9468 23.6595C36.0182 23.1353 36.0999 22.7787 36.0999 22.7787C36.7327 19.3814 38.9785 17.1269 42.1938 17.1269M83.7188 24.7395C83.5656 16.8228 78.1556 11.3808 70.2752 11.3808C62.3949 11.3808 56.5357 16.9907 56.5357 24.9912C56.5357 32.9917 62.2316 39 70.2752 39C76.165 39 81.2893 35.7494 82.596 31.2931L76.2161 29.8461C75.3382 31.7964 73.1028 33.2434 70.4691 33.2434C67.8356 33.2434 65.6001 31.6496 64.5794 29.0701H64.5896L83.7086 24.7395H83.7188ZM70.1323 17.1269C72.8373 17.1269 74.9504 18.7207 75.8793 21.08L63.8954 23.6595C63.9669 23.1353 64.0485 22.7787 64.0485 22.7787C64.6814 19.3814 66.9271 17.1269 70.1426 17.1269M20.4618 2.6777L27.7398 1V37.9829H20.5536V34.8896C18.6142 37.4272 15.7457 38.979 12.2547 38.979C5.36454 38.979 0.464844 33.2958 0.464844 25.2219C0.464844 17.1479 5.36454 11.4647 12.2547 11.4647C15.6538 11.4647 18.5121 12.9641 20.4515 15.5541V2.6777H20.4618ZM14.2452 32.2578C18.0322 32.2578 20.7475 29.2694 20.7475 25.2323C20.7475 21.1954 18.0322 18.2069 14.2452 18.2069C10.4582 18.2069 7.74293 21.1954 7.74293 25.2323C7.74293 29.2694 10.5092 32.2578 14.2452 32.2578Z" fill="white"/>
</svg>
