<svg width="88" height="40" viewBox="0 0 88 40" fill="none" xmlns="http://www.w3.org/2000/svg">
<path d="M34.4655 38.9805C31.4971 38.8203 29.282 37.5941 27.9866 35.3942C27.1175 33.9173 26.853 31.975 27.2506 29.9903C27.6912 27.7912 29.1872 25.8096 31.4832 24.3843C32.8025 23.5647 33.9318 23.0559 36.2312 22.2446C36.8094 22.0407 37.3083 21.8529 37.3405 21.8267C37.3866 21.79 37.3931 21.6599 37.3701 21.2376C37.304 20.0364 37.5036 18.1648 37.8416 16.8141C38.4102 14.5413 39.5042 12.7077 40.9563 11.5955C41.9985 10.7963 43.3649 10.1955 44.7251 9.93784C45.4764 9.79592 46.7344 9.79636 47.4413 9.93915C50.4702 10.5514 52.1702 12.895 51.5008 15.5356C51.3598 16.0923 50.9144 17.005 50.5372 17.5098C49.5711 18.8032 48.1177 19.9534 46.0654 21.0477C45.8074 21.1857 44.9626 21.6023 44.1888 21.9743C43.4149 22.3459 42.7576 22.6747 42.7272 22.7053C42.6841 22.7485 42.695 22.8747 42.7785 23.2992C43.1635 25.2616 43.8107 26.9196 44.9161 28.7737C45.3555 29.5117 45.9632 30.4423 46.0323 30.4855C46.1324 30.5475 46.5413 29.8842 46.8079 29.2279C47.1377 28.4157 47.3265 27.3415 47.2334 26.8078C47.1664 26.4258 46.9584 26.0223 46.6931 25.7616C46.5713 25.6411 46.4704 25.5271 46.4699 25.5083C46.4695 25.49 47.4996 25.4795 48.7598 25.486L51.051 25.4978L51.0379 25.7895C51.0201 26.1882 50.8726 27.0384 50.7173 27.6436C50.2793 29.3454 49.4536 30.8008 48.0264 32.3903C47.858 32.5776 47.7201 32.7614 47.7201 32.799C47.7201 32.8366 47.9568 33.0972 48.2456 33.3785C50.0496 35.1339 53.2451 37.1583 55.8469 38.1937C56.0996 38.2945 56.3058 38.3972 56.3049 38.4216C56.3041 38.4513 54.802 38.4705 51.9153 38.4784L47.527 38.4897L47.2773 38.3487C46.7675 38.0609 45.6386 37.1452 44.5542 36.1391C44.3245 35.926 44.107 35.7518 44.0709 35.7518C44.0348 35.7518 43.7794 35.9007 43.5045 36.0828C42.0955 37.0155 40.4116 37.8535 38.9874 38.3303C37.3675 38.8731 36.0303 39.0648 34.4655 38.9805ZM38.1605 35.164C38.8173 35.0466 39.6243 34.8073 40.3664 34.5099C41.1124 34.2112 42.0372 33.7544 42.0703 33.668C42.0833 33.6339 41.9124 33.347 41.691 33.03C40.67 31.5698 39.5795 29.5161 38.8465 27.6742C38.5763 26.9952 38.0717 25.4913 37.9752 25.0791C37.9447 24.9476 37.8895 24.8284 37.8525 24.814C37.7503 24.7747 36.912 25.2232 36.1877 25.7052C33.6134 27.4183 32.3793 29.5095 32.6533 31.6947C32.7751 32.6658 33.0814 33.3737 33.6386 33.9715C34.6687 35.0763 36.2791 35.5011 38.1605 35.164ZM42.5301 19.9695C43.4828 19.4097 44.994 18.0504 45.8392 16.9936C46.921 15.6412 47.4961 14.3792 47.4965 13.3557C47.4965 12.7705 47.4139 12.5085 47.1442 12.2378C46.8758 11.9688 46.573 11.8575 46.1106 11.857C44.7386 11.857 43.2548 13.4919 42.6084 15.7163C42.2821 16.8377 42.203 17.4412 42.2008 18.811C42.1991 19.8573 42.216 20.0901 42.2943 20.0901C42.3113 20.0901 42.4174 20.0359 42.5301 19.9695ZM65.2212 38.9543C62.9605 38.726 61.4706 38.3867 59.7898 37.7186C57.5025 36.8085 56.0744 35.6815 54.8681 33.8348C54.5071 33.282 53.9277 32.1213 53.6936 31.4798C52.6474 28.6218 52.4178 25.0236 53.0411 21.27C53.6723 17.4709 55.11 13.8094 57.0936 10.9474C58.3804 9.09157 60.2948 7.13702 62.271 5.66106C65.5344 3.22443 69.2907 1.72664 73.4637 1.20001C74.7296 1.04019 75.4386 0.99914 76.9337 1.00001C79.1953 1.00132 80.9179 1.17425 83.1926 1.62795C84.6438 1.9179 86.9554 2.54409 86.9997 2.65981C87.0224 2.71832 85.5577 7.43047 85.4972 7.49378C85.4785 7.51343 85.2536 7.36278 84.9983 7.15754C82.9411 5.51129 80.8092 4.50912 78.6533 4.17594C77.9647 4.06939 76.6706 4.06808 75.9954 4.17332C72.973 4.64318 70.1707 6.58157 67.6829 9.92343C66.8747 11.009 65.9842 12.464 65.2917 13.8299C64.3534 15.6814 63.7083 17.3181 63.0558 19.5067C60.9773 26.4699 60.8721 31.3348 62.7426 33.9684C63.513 35.0535 64.6392 35.7448 66.0682 36.009C66.8886 36.1609 68.8801 36.0688 69.0784 35.8701C69.1102 35.8387 70.0824 32.785 71.2387 29.0842C73.1388 23.0053 73.3441 22.3197 73.3658 21.9752C73.3945 21.5123 73.3088 21.0988 73.1013 20.7005C72.913 20.3385 72.4153 19.8473 72.0051 19.6189C71.8281 19.5202 71.6828 19.4241 71.6824 19.4058C71.6819 19.3875 74.8696 19.3722 78.7668 19.3722C82.6636 19.3722 85.8522 19.3875 85.8518 19.4058C85.8518 19.4241 85.6791 19.5189 85.4681 19.6154C84.3649 20.1219 83.5654 20.8809 83.0899 21.8739C82.9868 22.0887 82.0951 24.8695 80.7557 29.1515L78.5881 36.0815L77.9616 36.3828C75.4103 37.612 72.2892 38.4972 69.1759 38.8749C68.6038 38.9447 65.7002 39.0028 65.2217 38.9543H65.2212ZM0.00144317 38.4478C-0.012912 38.4251 0.081484 38.3452 0.21068 38.2705C0.980638 37.8255 1.84499 36.9024 2.21127 36.133C2.31741 35.9103 12.0367 4.83663 12.2512 4.03358C12.289 3.89297 12.3208 3.59604 12.3212 3.37421C12.3243 2.69649 12.1146 2.20785 11.6208 1.73886C11.486 1.61092 11.3759 1.48734 11.3759 1.4642C11.3759 1.40263 28.3476 1.40787 29.1259 1.46987C30.8111 1.60393 32.498 2.05371 33.7882 2.71221C35.9911 3.83664 37.31 5.54316 37.7155 7.79334C37.8286 8.41953 37.8503 9.81252 37.7577 10.4867C37.3801 13.2352 36.1394 16.1504 34.4503 18.2595C31.7141 21.6761 27.2393 23.8607 21.7473 24.4616C20.0064 24.652 17.8127 24.7 16.2593 24.5812C15.8104 24.5467 15.4337 24.528 15.4224 24.5393C15.3671 24.5952 11.8631 35.881 11.8231 36.133C11.6996 36.9098 12.098 37.7832 12.7849 38.2408C12.9206 38.3312 13.0198 38.4242 13.0059 38.4469C12.9711 38.5033 0.0358085 38.5037 0.00100817 38.4474L0.00144317 38.4478ZM19.2661 21.6852C20.5419 21.4582 21.6677 20.9839 22.7539 20.2167C23.2816 19.8442 24.3656 18.7573 24.8128 18.1525C25.9316 16.6403 26.7547 14.8561 27.4185 12.5059C27.8413 11.0081 28.0214 9.8671 28.021 8.69114C28.021 7.78461 27.9392 7.24313 27.7121 6.63572C27.375 5.73443 26.6885 5.02221 25.8164 4.66851C25.0673 4.36458 24.4278 4.28467 22.8896 4.30257L21.7299 4.31567L19.0342 12.9321C17.5521 17.6713 16.3472 21.5717 16.3572 21.5996C16.3676 21.6276 16.5538 21.6747 16.7704 21.7044C16.9879 21.7341 17.1954 21.7656 17.2324 21.7747C17.4012 21.8162 18.9037 21.7499 19.2661 21.6852Z" fill="white"/>
</svg>
