<svg width="109" height="40" viewBox="0 0 109 40" fill="none" xmlns="http://www.w3.org/2000/svg">
<g clip-path="url(#clip0_960_48675)">
<path d="M54.2041 0.641846C84.0254 0.641929 108.201 9.27174 108.201 19.928C108.201 30.5793 84.0256 39.214 54.2041 39.2141C24.3774 39.2141 0.201172 30.5793 0.201172 19.928C0.201451 9.27169 24.3775 0.641846 54.2041 0.641846ZM54.2041 2.24438C25.426 2.24438 2.10186 10.1942 2.10156 19.928C2.10156 29.6568 25.4259 37.6116 54.2041 37.6116C82.9822 37.6115 106.306 29.6568 106.306 19.928C106.305 10.1993 82.9769 2.24446 54.2041 2.24438ZM87.1455 13.6331C87.3119 13.6331 87.3831 13.7286 87.3125 13.8596C86.879 14.6006 78.6279 27.1599 78.1074 28.4573C77.9411 28.8757 77.9214 29.1884 78.0928 29.4153C78.5263 29.9949 79.484 29.6579 80.0889 29.2395C81.8733 28.0045 83.1131 26.5169 84.4893 25.2063C84.5649 25.1509 84.7013 25.1257 84.792 25.2063C84.9936 25.3978 85.2906 25.6401 85.4922 25.8518C85.5928 25.9574 85.5532 26.0579 85.5029 26.1184C84.1621 27.7567 82.6793 29.3048 81.2578 30.3987C79.0502 32.1072 76.8477 32.5458 75.7588 31.4524C75.3556 31.0391 75.1338 30.4591 75.1035 29.9651C75.0884 29.6979 74.9522 29.6828 74.8262 29.8088C73.5206 31.0993 71.2569 32.5211 69.2002 31.5129C67.4764 30.6561 67.0779 28.6042 67.4004 26.8752C67.4105 26.84 67.3706 26.5929 67.1592 26.7385C66.8063 26.9956 66.3318 27.2786 65.7471 27.4954C65.21 27.7423 64.6242 27.8657 64.0332 27.8577C63.6073 27.862 63.1877 27.7547 62.8164 27.5461C62.4449 27.3374 62.1339 27.0345 61.916 26.6682C61.6137 26.2196 61.4982 25.5391 61.4629 25.0452C61.4629 24.9897 61.3921 24.8889 61.3115 25.0198C59.9051 27.1621 58.5944 29.2394 57.2031 31.4221C57.1326 31.5228 57.0669 31.5878 56.9209 31.5979H54.1689C53.9976 31.5979 53.9163 31.4671 54.0068 31.3059C54.5008 30.3582 57.1726 26.4665 58.9873 23.1497C59.4863 22.2373 59.3858 21.7683 59.0732 21.5667C58.6851 21.3148 57.914 21.6928 57.2588 22.1917C55.4794 23.5376 53.9817 25.6396 53.2256 26.5823C52.7769 27.1317 52.3539 27.9539 51.1895 29.2141C49.3547 31.2101 46.92 32.3539 44.5762 31.5627C43.9586 31.3527 43.4016 30.9943 42.9551 30.5188C42.5087 30.0434 42.1855 29.4656 42.0146 28.8362C41.9441 28.5942 41.8029 28.5235 41.6719 28.6848C41.2938 29.1585 40.518 29.8538 39.873 30.2922C39.8025 30.3426 39.6258 30.4488 39.4746 30.3733C39.1931 30.0973 38.9534 29.7814 38.7637 29.4358C38.7351 29.3736 38.7266 29.3036 38.7402 29.2366C38.7538 29.1697 38.7885 29.1088 38.8389 29.0627C39.7662 28.2513 40.2706 27.7874 40.6738 27.2834C41.0149 26.8332 41.2855 26.333 41.4756 25.801C42.0351 24.3795 43.3204 21.7278 45.876 20.3567C46.8539 19.8375 47.8425 19.4602 48.9414 19.3342C49.4101 19.2839 49.7983 19.3392 49.9395 19.7122L50.2061 20.4475C50.2565 20.5987 50.2165 20.715 50.04 20.7805C48.5328 21.3552 47.0202 22.2425 45.9717 23.6438C44.7872 25.2367 44.4703 27.1475 45.2617 28.2463C45.8414 29.0474 46.7787 29.1888 47.6758 28.9016C49.0417 28.4732 50.2009 27.1976 50.8008 25.7864C51.4511 24.2439 51.557 22.4187 51.0781 20.8157C50.9976 20.5386 51.0687 20.3272 51.25 20.176C51.6129 19.8787 52.1116 19.6511 52.2578 19.5754C52.4009 19.4984 52.5676 19.4769 52.7256 19.5149C52.8837 19.553 53.0229 19.6485 53.1152 19.7825C53.6377 20.6439 53.9112 21.6334 53.9062 22.6409C53.9416 22.8675 54.0377 22.8722 54.1436 22.7512C55.0357 21.8036 55.8678 20.7906 56.8154 20.0295C57.6823 19.3391 58.7958 18.7741 59.834 18.7991C61.1749 18.8293 61.8461 19.7423 61.8008 21.3655C61.7959 21.5669 61.9412 21.5564 62.042 21.4153C62.3527 20.9466 62.7343 20.5291 63.1719 20.176C64.0994 19.4098 65.052 19.0664 66.04 19.137C66.3373 19.1575 66.6273 19.2396 66.8916 19.3772C67.1558 19.5148 67.3889 19.7051 67.5762 19.9368C67.7635 20.1685 67.9013 20.4366 67.9805 20.7239C68.0596 21.0112 68.0784 21.3126 68.0361 21.6077C67.987 22.0083 67.8412 22.3911 67.6113 22.7229C67.3812 23.0549 67.073 23.3263 66.7148 23.5129C66.0748 23.8303 65.3335 23.7744 64.8145 23.3108C64.6124 23.1211 64.4644 22.8809 64.3848 22.6155C64.3052 22.3501 64.297 22.0686 64.3613 21.7991C64.3865 21.6831 64.2354 21.5723 64.1094 21.7034C62.9148 22.9434 62.8292 24.5509 63.6055 25.2717C64.4675 26.068 65.7527 25.534 66.6953 24.9241C68.4192 23.795 69.7496 22.2724 71.292 21.0979C72.3203 20.3216 73.4853 19.6309 74.7959 19.4495C75.5162 19.3418 76.2523 19.4288 76.9277 19.7014C77.8653 20.0795 78.4605 20.8713 78.5361 21.5569C78.5513 21.7583 78.7072 21.7836 78.8281 21.6077C79.569 20.4485 83.55 14.4865 83.8789 13.8596C83.9747 13.663 84.0861 13.6331 84.2979 13.6331H87.1455ZM38.0479 6.1106C44.1574 5.60651 49.9446 7.23498 56.0088 7.97095C60.6563 8.53046 65.1124 8.54571 69.7852 7.46704C70.3396 7.35111 70.7226 7.70361 70.6924 8.25806C70.642 9.06459 70.017 9.8412 68.4795 10.678C66.7304 11.6406 64.9007 11.9334 62.9854 11.9485C58.3679 11.9888 54.0627 10.1839 49.6016 9.21606C49.6066 9.41263 49.6622 9.64476 49.501 9.77075C47.031 11.5854 44.7979 13.4355 43.3008 16.0315C43.2506 16.0919 43.2806 16.1519 43.3662 16.1418C44.6667 16.0763 45.8311 16.0415 47.0459 15.9407C47.2524 15.9256 47.2631 15.875 47.248 15.719C47.1825 15.2398 47.2333 14.7515 47.3965 14.2961C47.5597 13.8407 47.8305 13.4314 48.1855 13.1028C48.9921 12.3819 50.0005 12.2963 50.6709 12.8206C51.4265 13.4104 51.3605 14.4784 50.9473 15.2747C50.761 15.6253 50.5065 15.9355 50.1982 16.1858C49.8901 16.4359 49.5346 16.6214 49.1533 16.7317C49.1533 16.7317 49.0122 16.762 49.0322 16.8879C49.0574 17.0895 49.9747 17.5983 50.0508 17.7346C50.1264 17.8657 50.0853 18.0629 49.9492 18.2141C49.8954 18.2796 49.8275 18.3329 49.751 18.3694C49.6744 18.4058 49.5906 18.4254 49.5059 18.426C49.3497 18.426 49.2541 18.3698 49.0527 18.259C48.5722 18.0023 48.144 17.6573 47.792 17.2415C47.671 17.0953 47.6106 17.0895 47.3232 17.1096C46.0126 17.1852 43.9661 17.3826 42.585 17.554C42.2472 17.5943 42.1964 17.6597 42.1309 17.7756C39.9231 21.4149 37.5644 25.3417 34.9736 27.9729C32.2012 30.7907 29.8922 31.5318 27.4424 31.552C24.3675 31.5722 21.6554 29.6718 21.3428 26.3752C21.1629 24.6609 21.6562 22.9435 22.7188 21.5862C23.6362 20.3915 25.1894 19.4033 26.5 19.1614C26.9233 19.0809 27.4974 19.1313 27.7344 19.4133C28.1074 19.8468 28.0019 20.3214 27.6289 20.5129C26.6259 21.022 25.4211 21.8985 24.8262 23.093C24.5514 23.6007 24.4207 24.1746 24.4482 24.7512C24.4758 25.3277 24.6607 25.8854 24.9824 26.3645C26.2174 28.2296 29.6653 28.28 32.8662 25.3059C33.6625 24.5751 34.3682 23.8746 35.0889 23.0481C36.5003 21.435 36.9696 20.8454 38.8447 18.2444C38.8648 18.2143 38.875 18.1738 38.8652 18.1584C38.8501 18.1232 38.824 18.1177 38.7686 18.1077C37.5186 18.1481 36.4247 18.5214 35.3662 19.3127C35.0638 19.5344 34.6203 19.5044 34.4287 19.2122C34.217 18.8795 34.3679 18.4453 34.7207 18.2034C36.4244 17.0138 38.2899 16.8023 40.1953 16.4797C40.1953 16.4797 40.3266 16.4799 40.4375 16.344C41.2188 15.3358 41.8089 14.4334 42.6406 13.4202C43.4824 12.392 44.5659 11.4444 45.3926 10.7336C46.5518 9.74071 47.293 9.40767 48.0439 8.99438C48.2456 8.89357 48.0185 8.76685 47.958 8.76685C43.7491 7.97545 39.3789 6.95281 35.2002 8.50024C32.3067 9.57899 31.0365 11.878 31.6465 13.4104C32.0802 14.4988 33.5119 14.6701 34.8525 14.0149C35.9614 13.4755 36.9947 12.5932 37.7256 11.4641C38.1288 10.8342 38.9906 11.2876 38.5273 12.3811C37.3024 15.2544 34.968 17.5334 32.125 17.6292C29.7005 17.7097 28.1377 15.9254 28.1426 13.7278C28.1527 9.39272 32.9819 6.53915 38.0479 6.1106ZM76.1816 21.6174C75.2037 21.1488 73.7065 22.0156 72.3506 23.679C71.2417 25.045 70.6374 26.4314 70.6172 27.7874C70.6122 28.2662 70.7934 28.8615 71.2168 29.0833C72.1745 29.582 73.3293 28.8353 74.166 28.1448C74.7153 27.6912 75.174 27.2222 75.5771 26.6174C76.0156 25.9623 76.3337 25.5284 76.6865 24.7825C76.7365 24.6772 76.7162 24.6472 76.666 24.6321C76.545 24.5867 76.4184 24.4956 76.4033 24.3948C76.385 24.3308 76.3926 24.2621 76.4238 24.2034C76.8775 23.2809 77.1999 22.1064 76.1816 21.6174ZM49.9443 13.6516C49.7225 13.4654 49.3647 13.5163 49.0977 13.7532C48.8709 13.9532 48.6959 14.2051 48.5879 14.4875C48.4799 14.7703 48.4418 15.0757 48.4775 15.3762C48.5128 15.5622 48.5883 15.5973 48.6738 15.5774C49.1439 15.4494 49.5523 15.1561 49.8232 14.7512C50.0753 14.3883 50.1913 13.8633 49.9443 13.6516Z" fill="white"/>
</g>
<defs>
<clipPath id="clip0_960_48675">
<rect width="109" height="40" fill="white"/>
</clipPath>
</defs>
</svg>
