<svg width="193" height="40" viewBox="0 0 193 40" fill="none" xmlns="http://www.w3.org/2000/svg">
<path d="M65.3346 3.09897H55.0189V16.5314H44.2807V3.09897H33.9651V36.8937H44.2807V23.6005H55.0189V36.8937H65.3346V3.09897ZM101.218 30.103V3.09897H90.9027V36.8937H109.555L111.106 30.103H101.218ZM83.2764 3.09897H72.9608V36.8937H83.2764V3.09897ZM125.096 3.09897H114.785V36.8937H125.096V3.09897ZM175.954 11.7241C175.954 9.8848 177.793 9.03478 180.756 9.03478C184.007 9.03478 187.542 9.74553 189.943 10.7396L189.098 3.38231C186.409 2.81563 184.007 2.39301 179.632 2.39301C171.295 2.39301 165.643 5.68268 165.643 12.5742C165.643 24.4506 181.755 22.0494 181.755 27.5625C181.755 29.6804 180.194 30.809 176.381 30.809C172.995 30.809 167.761 29.6804 164.654 28.1244L165.787 35.9044C168.894 37.0377 173.13 37.5996 176.525 37.5996C185.141 37.5996 192.205 34.771 192.205 26.2851C192.205 14.9802 175.954 17.098 175.954 11.7241ZM146.856 28.8352C156.456 28.8352 162.536 23.8839 162.536 15.2587C162.536 5.78833 156.038 2.39301 145.439 2.39301C141.343 2.39301 136.396 2.67636 132.866 3.09897V36.8937H143.182V28.8352H146.856ZM152.364 15.4028C152.364 19.7826 150.246 22.7553 144.872 22.7553H143.182V8.78985C143.782 8.75623 144.344 8.75623 144.872 8.75623C149.958 8.75623 152.364 11.1574 152.364 15.4028ZM14.1887 28.8352C23.7935 28.8352 29.8686 23.8839 29.8686 15.2587C29.8686 5.78833 23.3709 2.39301 12.7768 2.39301C8.6755 2.39301 3.73381 2.67636 0.199219 3.09897V36.8937H10.5148V28.8352H14.1887ZM19.7019 15.4028C19.7019 19.7826 17.5792 22.7553 12.2101 22.7553H10.5148V8.78985C11.1151 8.75623 11.6818 8.75623 12.2101 8.75623C17.2959 8.75623 19.7019 11.1574 19.7019 15.4028Z" fill="white"/>
</svg>
